{
.appVersion = "3091";
copyright = "Copyright 2021 The Albert Sans Project Authors (https://github.com/usted/Albert-Sans)";
customParameters = (
{
name = "Use Typo Metrics";
value = 1;
},
{
name = fsType;
value = (
);
},
{
name = "Variable Font Origin";
value = "9F107B1E-3A61-4335-981B-27DD48125C7E";
},
{
name = "Use Line Breaks";
value = 1;
},
{
name = license;
value = "This Font Software is licensed under the SIL Open Font License, Version 1.1. This license is available with a FAQ at: https://scripts.sil.org/OFL";
},
{
name = licenseURL;
value = "https://scripts.sil.org/OFL";
},
{
name = Axes;
value = (
{
Name = Weight;
Tag = wght;
}
);
}
);
date = "2021-08-28 16:00:04 +0000";
designer = "Andreas Rasmussen";
designerURL = "https://www.andreasrasmussen.net";
familyName = "Albert Sans";
fontMaster = (
{
ascender = 720;
capHeight = 700;
custom = Thin;
customParameters = (
{
name = typoAscender;
value = 950;
},
{
name = typoDescender;
value = -250;
},
{
name = typoLineGap;
value = 0;
},
{
name = winAscent;
value = 1100;
},
{
name = winDescent;
value = 320;
},
{
name = underlineThickness;
value = 50;
},
{
name = underlinePosition;
value = -100;
},
{
name = strikeoutPosition;
value = 300;
},
{
name = strikeoutSize;
value = 50;
},
{
name = subscriptXOffset;
value = 0;
},
{
name = subscriptXSize;
value = 650;
},
{
name = subscriptYOffset;
value = 75;
},
{
name = subscriptYSize;
value = 600;
},
{
name = superscriptXOffset;
value = 0;
},
{
name = superscriptXSize;
value = 650;
},
{
name = superscriptYOffset;
value = 350;
},
{
name = superscriptYSize;
value = 600;
},
{
name = hheaAscender;
value = 950;
},
{
name = hheaDescender;
value = -250;
},
{
name = hheaLineGap;
value = 0;
}
);
descender = -200;
guideLines = (
{
locked = 1;
position = "{0, 250}";
},
{
position = "{0, -186}";
},
{
position = "{0, 711}";
}
);
horizontalStems = (
20
);
iconName = Light;
id = "6E968933-CD79-43C6-9231-80D77C940F4D";
italicAngle = 11.25;
verticalStems = (
22
);
weightValue = 0;

glyphs = (
{
glyphname = A;
lastChange = "2021-08-30 20:28:08 +0000";
layers = (
{
anchors = (
{
name = ogonek;
position = "{586.773, 0}";
},
{
name = top;
position = "{444.011, 700}";
}
);
guideLines = (
{
angle = -70.8724;
position = "{573.392, 86.5}";
},
{
angle = 70.5773;
position = "{175.892, 86.5}";
}
);
hints = (
{
horizontal = 1;
place = "{105.381, 22.381}";
type = Stem;
},
{
horizontal = 1;
place = "{630.381, -20}";
target = down;
type = TopGhost;
},
{
horizontal = 1;
place = "{-69.619, 21}";
target = up;
type = BottomGhost;
}
);
layerId = "0CF0EA28-C756-4A9E-9D7C-CFEF350B4CFE";
paths = (
{
closed = 1;
nodes = (
"75.773 0 LINE",
"171.185 173 LINE",
"508.185 173 LINE",
"533.773 0 LINE",
"651.773 0 LINE",
"542.011 700 LINE",
"346.011 700 LINE",
"-41.227 0 LINE"
);
},
{
closed = 1;
nodes = (
"495.081 268 LINE",
"223.081 268 LINE",
"408.115 605 LINE",
"444.115 605 LINE"
);
}
);
width = 710.004;
},
{
anchors = (
{
name = ogonek;
position = "{529.773, 0}";
},
{
name = top;
position = "{399.415, 697}";
}
);
guideLines = (
{
angle = -69.1455;
position = "{563.392, 105}";
},
{
angle = 68.9077;
position = "{93.892, 105}";
}
);
hints = (
{
horizontal = 1;
place = "{630.381, -20}";
target = down;
type = TopGhost;
},
{
horizontal = 1;
place = "{-69.619, 21}";
target = up;
type = BottomGhost;
}
);
layerId = "6E968933-CD79-43C6-9231-80D77C940F4D";
paths = (
{
closed = 1;
nodes = (
"-16.227 0 LINE",
"106.544 210 LINE",
"495.544 210 LINE",
"533.773 0 LINE",
"556.773 0 LINE",
"429.011 700 LINE",
"368.011 700 LINE",
"-39.227 0 LINE"
);
},
{
closed = 1;
nodes = (
"492.523 230 LINE",
"117.523 230 LINE",
"379.033 680 LINE",
"411.033 680 LINE"
);
}
);
width = 617.00053;
},
{
anchors = (
{
name = ogonek;
position = "{663.972, 1}";
},
{
name = top;
position = "{488.011, 700}";
}
);
guideLines = (
{
angle = -70.3462;
position = "{606.392, 70}";
},
{
angle = 70.71;
position = "{229.892, 70}";
}
);
hints = (
{
horizontal = 1;
place = "{305.381, 71.381}";
type = Stem;
},
{
horizontal = 1;
place = "{227.381, -20}";
target = down;
type = TopGhost;
},
{
horizontal = 1;
place = "{-69.619, 21}";
target = up;
type = BottomGhost;
}
);
layerId = "BAF31694-0472-4296-B0EA-1654553C45D2";
paths = (
{
closed = 1;
nodes = (
"135.773 0 LINE",
"212.62 140 LINE",
"539.62 140 LINE",
"561.773 0 LINE",
"740.773 0 LINE",
"626.011 700 LINE",
"351.011 700 LINE",
"-44.227 0 LINE"
);
},
{
closed = 1;
nodes = (
"515.662 286 LINE",
"292.662 286 LINE",
"439.97 554 LINE",
"474.97 554 LINE"
);
}
);
width = 796.0007;
},
{
anchors = (
{
name = ogonek;
position = "{565.773, 0}";
},
{
name = top;
position = "{426.812, 699}";
}
);
guideLines = (
{
angle = 69.7174;
position = "{144.392, 92}";
},
{
angle = -69.9919;
position = "{569.892, 92}";
}
);
hints = (
{
horizontal = 1;
place = "{630.381, -20}";
target = down;
type = TopGhost;
},
{
horizontal = 1;
place = "{-69.619, 21}";
target = up;
type = BottomGhost;
}
);
layerId = "9F107B1E-3A61-4335-981B-27DD48125C7E";
paths = (
{
closed = 1;
nodes = (
"40.773 0 LINE",
"145.373 184 LINE",
"503.373 184 LINE",
"533.773 0 LINE",
"615.773 0 LINE",
"500.011 700 LINE",
"355.011 700 LINE",
"-40.227 0 LINE"
);
},
{
closed = 1;
nodes = (
"492.296 254 LINE",
"185.296 254 LINE",
"397.087 630 LINE",
"430.087 630 LINE"
);
}
);
width = 675.0007;
}
);
leftMetricsKey = "=H*0.1";
rightMetricsKey = "=H*0.1";
unicode = 0041;
},
{
glyphname = Aacute;
lastChange = "2021-08-30 20:28:08 +0000";
layers = (
{
anchors = (
{
name = ogonek;
position = "{586.773, 0}";
},
{
name = top;
position = "{444.012, 700}";
}
);
hints = (
{
horizontal = 1;
place = "{80.943, -2.057}";
type = Stem;
},
{
horizontal = 1;
place = "{605.943, -20}";
target = down;
type = TopGhost;
},
{
horizontal = 1;
place = "{-94.057, 21}";
target = up;
type = BottomGhost;
}
);
layerId = "0CF0EA28-C756-4A9E-9D7C-CFEF350B4CFE";
paths = (
{
closed = 1;
nodes = (
"75.773 0 LINE",
"171.185 173 LINE",
"508.185 173 LINE",
"533.773 0 LINE",
"651.773 0 LINE",
"542.012 700 LINE",
"346.012 700 LINE",
"-41.227 0 LINE"
);
},
{
closed = 1;
nodes = (
"495.082 268 LINE",
"223.082 268 LINE",
"408.115 605 LINE",
"444.115 605 LINE"
);
},
{
closed = 1;
nodes = (
"350.65 823.861 LINE",
"333.824 739.273 LINE",
"576.457 848.029 LINE",
"595.887 945.708 LINE"
);
}
);
width = 710;
},
{
anchors = (
{
name = ogonek;
position = "{529.769, 0}";
},
{
name = top;
position = "{399.411, 697}";
}
);
background = {
hints = (
{
horizontal = 1;
place = "{0, 21}";
type = Stem;
},
{
horizontal = 1;
place = "{196, 47}";
type = Stem;
},
{
horizontal = 1;
place = "{685, 20}";
type = Stem;
},
{
horizontal = 1;
place = "{765, 21}";
type = Stem;
},
{
horizontal = 1;
place = "{878, 20}";
type = Stem;
}
);
paths = (
{
closed = 1;
nodes = (
"785.86 0 LINE",
"459.86 705 LINE",
"409.86 705 LINE",
"83.86 0 LINE",
"137.86 0 LINE",
"226.86 196 LINE",
"639.86 196 LINE",
"728.86 0 LINE"
);
},
{
closed = 1;
nodes = (
"617.86 243 LINE",
"248.86 243 LINE",
"433.86 648 LINE"
);
},
{
closed = 1;
nodes = (
"459.86 765 LINE",
"566.86 868 LINE",
"505.86 898 LINE",
"417.86 765 LINE"
);
}
);
};
hints = (
{
horizontal = 1;
place = "{610.909, -20}";
target = down;
type = TopGhost;
},
{
horizontal = 1;
place = "{-89.091, 21}";
target = up;
type = BottomGhost;
}
);
layerId = "6E968933-CD79-43C6-9231-80D77C940F4D";
paths = (
{
closed = 1;
nodes = (
"-16.231 0 LINE",
"106.541 210 LINE",
"495.541 210 LINE",
"533.769 0 LINE",
"556.769 0 LINE",
"429.008 700 LINE",
"368.008 700 LINE",
"-39.231 0 LINE"
);
},
{
closed = 1;
nodes = (
"492.519 230 LINE",
"117.519 230 LINE",
"379.029 680 LINE",
"411.029 680 LINE"
);
},
{
closed = 1;
nodes = (
"306.449 762.546 LINE",
"302.295 741.665 LINE",
"515.007 870.924 LINE",
"519.951 895.782 LINE"
);
}
);
width = 616.99574;
},
{
anchors = (
{
name = ogonek;
position = "{663.97, 1}";
},
{
name = top;
position = "{488.009, 700}";
}
);
hints = (
{
horizontal = 1;
place = "{278.501, 44.501}";
type = Stem;
},
{
horizontal = 1;
place = "{200.501, -20}";
target = down;
type = TopGhost;
},
{
horizontal = 1;
place = "{-96.499, 21}";
target = up;
type = BottomGhost;
}
);
layerId = "BAF31694-0472-4296-B0EA-1654553C45D2";
paths = (
{
closed = 1;
nodes = (
"135.771 0 LINE",
"212.618 140 LINE",
"539.618 140 LINE",
"561.771 0 LINE",
"740.771 0 LINE",
"626.009 700 LINE",
"351.009 700 LINE",
"-44.229 0 LINE"
);
},
{
closed = 1;
nodes = (
"515.66 286 LINE",
"292.66 286 LINE",
"439.968 554 LINE",
"474.968 554 LINE"
);
},
{
closed = 1;
nodes = (
"398.972 856.919 LINE",
"375.041 736.608 LINE",
"637.621 835.044 LINE",
"664.519 970.269 LINE"
);
}
);
width = 796.00047;
},
{
anchors = (
{
name = ogonek;
position = "{565.774, 0}";
},
{
name = top;
position = "{426.814, 699}";
}
);
hints = (
{
horizontal = 1;
place = "{607.734, -20}";
target = down;
type = TopGhost;
},
{
horizontal = 1;
place = "{-92.266, 21}";
target = up;
type = BottomGhost;
}
);
layerId = "9F107B1E-3A61-4335-981B-27DD48125C7E";
paths = (
{
closed = 1;
nodes = (
"40.774 0 LINE",
"145.374 184 LINE",
"503.374 184 LINE",
"533.774 0 LINE",
"615.774 0 LINE",
"500.013 700 LINE",
"355.013 700 LINE",
"-40.226 0 LINE"
);
},
{
closed = 1;
nodes = (
"492.298 254 LINE",
"185.298 254 LINE",
"397.089 630 LINE",
"430.089 630 LINE"
);
},
{
closed = 1;
nodes = (
"334.887 802.43 LINE",
"322.926 742.298 LINE",
"553.852 857.551 LINE",
"567.806 927.705 LINE"
);
}
);
width = 675.00465;
}
);
leftMetricsKey = A;
rightMetricsKey = A;
unicode = 00C1;
},
{
glyphname = Abreve;
lastChange = "2021-08-30 20:28:08 +0000";
layers = (
{
anchors = (
{
name = ogonek;
position = "{586.769, 0}";
},
{
name = top;
position = "{444.008, 700}";
}
);
hints = (
{
horizontal = 1;
place = "{84.649, 1.649}";
type = Stem;
},
{
horizontal = 1;
place = "{609.649, -20}";
target = down;
type = TopGhost;
},
{
horizontal = 1;
place = "{-90.351, 21}";
target = up;
type = BottomGhost;
},
{
place = "{113.399, -24.896}";
type = Stem;
},
{
place = "{348.399, -23.889}";
type = Stem;
},
{
horizontal = 1;
place = "{655.971, -0.728}";
type = Stem;
},
{
horizontal = 1;
place = "{655.971, 71.776}";
type = Stem;
}
);
layerId = "0CF0EA28-C756-4A9E-9D7C-CFEF350B4CFE";
paths = (
{
closed = 1;
nodes = (
"75.769 0 LINE",
"171.181 173 LINE",
"508.181 173 LINE",
"533.769 0 LINE",
"651.769 0 LINE",
"542.008 700 LINE",
"346.008 700 LINE",
"-41.231 0 LINE"
);
},
{
closed = 1;
nodes = (
"495.078 268 LINE",
"223.078 268 LINE",
"408.111 605 LINE",
"444.111 605 LINE"
);
},
{
closed = 1;
nodes = (
"636.471 908.449 LINE",
"570.471 908.449 LINE",
"561.457 863.134 OFFCURVE",
"536.049 835.945 OFFCURVE",
"471.049 835.945 CURVE SMOOTH",
"406.049 835.945 OFFCURVE",
"391.457 863.134 OFFCURVE",
"400.471 908.449 CURVE",
"335.471 908.449 LINE",
"331.264 887.302 LINE SMOOTH",
"314.639 803.721 OFFCURVE",
"359.222 746.322 OFFCURVE",
"453.222 746.322 CURVE SMOOTH",
"548.222 746.322 OFFCURVE",
"615.439 802.714 OFFCURVE",
"632.064 886.295 CURVE SMOOTH"
);
}
);
width = 710;
},
{
anchors = (
{
name = ogonek;
position = "{529.772, 0}";
},
{
name = top;
position = "{399.414, 697}";
}
);
hints = (
{
horizontal = 1;
place = "{612.392, -20}";
target = down;
type = TopGhost;
},
{
horizontal = 1;
place = "{-87.608, 21}";
target = up;
type = BottomGhost;
},
{
place = "{117.392, -66.727}";
type = Stem;
},
{
place = "{329.392, -64.739}";
type = Stem;
},
{
horizontal = 1;
place = "{671.955, 21}";
target = up;
type = BottomGhost;
},
{
horizontal = 1;
place = "{777.351, -20}";
target = down;
type = TopGhost;
}
);
layerId = "6E968933-CD79-43C6-9231-80D77C940F4D";
paths = (
{
closed = 1;
nodes = (
"-16.228 0 LINE",
"106.544 210 LINE",
"495.544 210 LINE",
"533.772 0 LINE",
"556.772 0 LINE",
"429.011 700 LINE",
"368.011 700 LINE",
"-39.228 0 LINE"
);
},
{
closed = 1;
nodes = (
"492.522 230 LINE",
"117.522 230 LINE",
"379.033 680 LINE",
"411.033 680 LINE"
);
},
{
closed = 1;
nodes = (
"555.988 880.867 LINE",
"534.988 880.867 LINE",
"523.714 824.192 OFFCURVE",
"481.188 791.38 OFFCURVE",
"419.188 791.38 CURVE",
"357.188 791.38 OFFCURVE",
"328.714 824.192 OFFCURVE",
"339.988 880.867 CURVE",
"318.988 880.867 LINE",
"317.999 875.896 LINE SMOOTH",
"308.505 828.17 OFFCURVE",
"330.43 772.489 OFFCURVE",
"415.43 772.489 CURVE",
"501.43 772.489 OFFCURVE",
"545.505 828.17 OFFCURVE",
"554.999 875.896 CURVE SMOOTH"
);
}
);
width = 616.99574;
},
{
anchors = (
{
name = ogonek;
position = "{663.97, 1}";
},
{
name = top;
position = "{488.009, 700}";
}
);
hints = (
{
horizontal = 1;
place = "{282.061, 48.061}";
type = Stem;
},
{
horizontal = 1;
place = "{204.061, -20}";
target = down;
type = TopGhost;
},
{
horizontal = 1;
place = "{-92.939, 21}";
target = up;
type = BottomGhost;
},
{
place = "{137.061, -6.435}";
type = Stem;
},
{
place = "{394.061, -6.435}";
type = Stem;
},
{
horizontal = 1;
place = "{647.646, 35.325}";
type = Stem;
},
{
horizontal = 1;
place = "{647.646, 100.949}";
type = Stem;
}
);
layerId = "BAF31694-0472-4296-B0EA-1654553C45D2";
paths = (
{
closed = 1;
nodes = (
"135.771 0 LINE",
"212.618 140 LINE",
"539.618 140 LINE",
"561.771 0 LINE",
"740.771 0 LINE",
"626.009 700 LINE",
"351.009 700 LINE",
"-44.229 0 LINE"
);
},
{
closed = 1;
nodes = (
"515.66 286 LINE",
"292.66 286 LINE",
"439.968 554 LINE",
"474.968 554 LINE"
);
},
{
closed = 1;
nodes = (
"711.399 934.474 LINE",
"624.399 934.474 LINE",
"616.093 892.714 OFFCURVE",
"591.148 867.856 OFFCURVE",
"526.148 867.856 CURVE SMOOTH",
"461.148 867.856 OFFCURVE",
"446.093 892.714 OFFCURVE",
"454.399 934.474 CURVE",
"367.399 934.474 LINE",
"363.641 915.582 LINE SMOOTH",
"340.897 801.238 OFFCURVE",
"400.832 740.586 OFFCURVE",
"500.832 740.586 CURVE SMOOTH",
"601.832 740.586 OFFCURVE",
"684.897 801.238 OFFCURVE",
"707.641 915.582 CURVE SMOOTH"
);
}
);
width = 796.00047;
},
{
anchors = (
{
name = ogonek;
position = "{565.775, 0}";
},
{
name = top;
position = "{426.814, 699}";
}
);
hints = (
{
horizontal = 1;
place = "{610.625, -20}";
target = down;
type = TopGhost;
},
{
horizontal = 1;
place = "{-89.375, 21}";
target = up;
type = BottomGhost;
},
{
place = "{480.625, -25.235}";
type = Stem;
},
{
place = "{560.625, 19.864}";
type = Stem;
},
{
horizontal = 1;
place = "{288.122, 21}";
target = up;
type = BottomGhost;
},
{
horizontal = 1;
place = "{328.21, -20}";
target = down;
type = TopGhost;
}
);
layerId = "9F107B1E-3A61-4335-981B-27DD48125C7E";
paths = (
{
closed = 1;
nodes = (
"40.775 0 LINE",
"145.374 184 LINE",
"503.374 184 LINE",
"533.775 0 LINE",
"615.775 0 LINE",
"500.013 700 LINE",
"355.013 700 LINE",
"-40.225 0 LINE"
);
},
{
closed = 1;
nodes = (
"492.298 254 LINE",
"185.298 254 LINE",
"397.089 630 LINE",
"430.089 630 LINE"
);
},
{
closed = 1;
nodes = (
"607.025 898.641 LINE",
"558.025 898.641 LINE",
"548.058 848.531 OFFCURVE",
"516.277 819.467 OFFCURVE",
"452.277 819.467 CURVE",
"388.277 819.467 OFFCURVE",
"368.058 848.531 OFFCURVE",
"378.025 898.641 CURVE",
"330.025 898.641 LINE",
"327.035 883.608 LINE SMOOTH",
"313.081 813.454 OFFCURVE",
"348.718 756.329 OFFCURVE",
"439.718 756.329 CURVE",
"531.718 756.329 OFFCURVE",
"589.881 812.452 OFFCURVE",
"603.836 882.606 CURVE SMOOTH"
);
}
);
width = 675.00465;
}
);
leftMetricsKey = A;
rightMetricsKey = A;
unicode = 0102;
},
{
glyphname = Acircumflex;
lastChange = "2021-08-30 20:28:08 +0000";
layers = (
{
anchors = (
{
name = ogonek;
position = "{586.769, 0}";
},
{
name = top;
position = "{444.007, 700}";
}
);
hints = (
{
horizontal = 1;
place = "{84.249, 1.249}";
type = Stem;
},
{
horizontal = 1;
place = "{609.249, -20}";
target = down;
type = TopGhost;
},
{
horizontal = 1;
place = "{-90.751, 21}";
target = up;
type = BottomGhost;
}
);
layerId = "0CF0EA28-C756-4A9E-9D7C-CFEF350B4CFE";
paths = (
{
closed = 1;
nodes = (
"75.769 0 LINE",
"171.18 173 LINE",
"508.18 173 LINE",
"533.769 0 LINE",
"651.769 0 LINE",
"542.007 700 LINE",
"346.007 700 LINE",
"-41.231 0 LINE"
);
},
{
closed = 1;
nodes = (
"495.077 268 LINE",
"223.077 268 LINE",
"408.111 605 LINE",
"444.111 605 LINE"
);
},
{
closed = 1;
nodes = (
"612.646 828.896 LINE",
"486.271 912.477 LINE",
"326.646 828.896 LINE",
"308.819 739.273 LINE",
"469.045 825.875 LINE",
"594.819 739.273 LINE"
);
}
);
width = 710;
},
{
anchors = (
{
name = ogonek;
position = "{529.769, 0}";
},
{
name = top;
position = "{399.411, 697}";
}
);
background = {
hints = (
{
horizontal = 1;
place = "{0, 21}";
type = Stem;
},
{
horizontal = 1;
place = "{196, 47}";
type = Stem;
},
{
horizontal = 1;
place = "{685, 20}";
type = Stem;
},
{
horizontal = 1;
place = "{760, 21}";
type = Stem;
},
{
horizontal = 1;
place = "{862, 20}";
type = Stem;
}
);
paths = (
{
closed = 1;
nodes = (
"784.08 0 LINE",
"458.08 705 LINE",
"408.08 705 LINE",
"82.08 0 LINE",
"136.08 0 LINE",
"225.08 196 LINE",
"638.08 196 LINE",
"727.08 0 LINE"
);
},
{
closed = 1;
nodes = (
"616.08 243 LINE",
"247.08 243 LINE",
"432.08 648 LINE"
);
},
{
closed = 1;
nodes = (
"432.08 828 LINE",
"506.08 760 LINE",
"553.08 760 LINE",
"453.08 882 LINE",
"413.08 882 LINE",
"313.08 760 LINE",
"358.08 760 LINE"
);
}
);
};
hints = (
{
horizontal = 1;
place = "{612.689, -20}";
target = down;
type = TopGhost;
},
{
horizontal = 1;
place = "{-87.311, 21}";
target = up;
type = BottomGhost;
}
);
layerId = "6E968933-CD79-43C6-9231-80D77C940F4D";
paths = (
{
closed = 1;
nodes = (
"-16.231 0 LINE",
"106.541 210 LINE",
"495.541 210 LINE",
"533.769 0 LINE",
"556.769 0 LINE",
"429.008 700 LINE",
"368.008 700 LINE",
"-39.231 0 LINE"
);
},
{
closed = 1;
nodes = (
"492.519 230 LINE",
"117.519 230 LINE",
"379.029 680 LINE",
"411.029 680 LINE"
);
},
{
closed = 1;
nodes = (
"544.371 797.346 LINE",
"436.391 877.885 LINE",
"296.371 797.346 LINE",
"292.02 775.472 LINE",
"432.04 856.01 LINE",
"540.02 775.472 LINE"
);
}
);
width = 616.99574;
},
{
anchors = (
{
name = ogonek;
position = "{663.972, 1}";
},
{
name = top;
position = "{488.012, 700}";
}
);
hints = (
{
horizontal = 1;
place = "{281.863, 47.863}";
type = Stem;
},
{
horizontal = 1;
place = "{203.863, -20}";
target = down;
type = TopGhost;
},
{
horizontal = 1;
place = "{-93.137, 21}";
target = up;
type = BottomGhost;
}
);
layerId = "BAF31694-0472-4296-B0EA-1654553C45D2";
paths = (
{
closed = 1;
nodes = (
"135.773 0 LINE",
"212.621 140 LINE",
"539.621 140 LINE",
"561.773 0 LINE",
"740.773 0 LINE",
"626.012 700 LINE",
"351.012 700 LINE",
"-44.227 0 LINE"
);
},
{
closed = 1;
nodes = (
"515.662 286 LINE",
"292.662 286 LINE",
"439.97 554 LINE",
"474.97 554 LINE"
);
},
{
closed = 1;
nodes = (
"680.37 858.907 LINE",
"539.797 936.463 LINE",
"368.37 858.907 LINE",
"344.439 738.597 LINE",
"516.459 819.135 LINE",
"656.439 738.597 LINE"
);
}
);
width = 796.00047;
},
{
anchors = (
{
name = ogonek;
position = "{565.775, 0}";
},
{
name = top;
position = "{426.815, 699}";
}
);
hints = (
{
horizontal = 1;
place = "{610.525, -20}";
target = down;
type = TopGhost;
},
{
horizontal = 1;
place = "{-89.475, 21}";
target = up;
type = BottomGhost;
}
);
layerId = "9F107B1E-3A61-4335-981B-27DD48125C7E";
paths = (
{
closed = 1;
nodes = (
"40.775 0 LINE",
"145.375 184 LINE",
"503.375 184 LINE",
"533.775 0 LINE",
"615.775 0 LINE",
"500.014 700 LINE",
"355.014 700 LINE",
"-40.225 0 LINE"
);
},
{
closed = 1;
nodes = (
"492.299 254 LINE",
"185.299 254 LINE",
"397.09 630 LINE",
"430.09 630 LINE"
);
},
{
closed = 1;
nodes = (
"587.878 817.463 LINE",
"468.225 899.643 LINE",
"315.878 817.463 LINE",
"303.12 753.322 LINE",
"455.865 837.507 LINE",
"575.12 753.322 LINE"
);
}
);
width = 675.00465;
}
);
leftMetricsKey = A;
rightMetricsKey = A;
unicode = 00C2;
},
{
glyphname = Adieresis;
lastChange = "2021-08-30 20:28:08 +0000";
layers = (
{
anchors = (
{
name = ogonek;
position = "{586.772, 0}";
},
{
name = top;
position = "{444.011, 700}";
}
);
hints = (
{
horizontal = 1;
place = "{86.452, 3.452}";
type = Stem;
},
{
horizontal = 1;
place = "{611.452, -20}";
target = down;
type = TopGhost;
},
{
horizontal = 1;
place = "{-88.548, 21}";
target = up;
type = BottomGhost;
},
{
place = "{119.202, 32.292}";
type = Stem;
},
{
place = "{291.202, 32.292}";
type = Stem;
},
{
horizontal = 1;
place = "{680.935, 32.292}";
type = Stem;
}
);
layerId = "0CF0EA28-C756-4A9E-9D7C-CFEF350B4CFE";
paths = (
{
closed = 1;
nodes = (
"75.772 0 LINE",
"171.184 173 LINE",
"508.184 173 LINE",
"533.772 0 LINE",
"651.772 0 LINE",
"542.011 700 LINE",
"346.011 700 LINE",
"-41.228 0 LINE"
);
},
{
closed = 1;
nodes = (
"495.08 268 LINE",
"223.08 268 LINE",
"408.114 605 LINE",
"444.114 605 LINE"
);
},
{
closed = 1;
nodes = (
"404.832 769.483 OFFCURVE",
"437.04 795.665 OFFCURVE",
"443.85 829.903 CURVE SMOOTH",
"450.46 863.134 OFFCURVE",
"428.868 890.323 OFFCURVE",
"395.868 890.323 CURVE SMOOTH",
"361.868 890.323 OFFCURVE",
"330.46 863.134 OFFCURVE",
"323.85 829.903 CURVE SMOOTH",
"317.04 795.665 OFFCURVE",
"337.832 769.483 OFFCURVE",
"371.832 769.483 CURVE SMOOTH"
);
},
{
closed = 1;
nodes = (
"576.832 769.483 OFFCURVE",
"609.04 795.665 OFFCURVE",
"615.85 829.903 CURVE SMOOTH",
"622.46 863.134 OFFCURVE",
"600.868 890.323 OFFCURVE",
"567.868 890.323 CURVE SMOOTH",
"533.868 890.323 OFFCURVE",
"502.46 863.134 OFFCURVE",
"495.85 829.903 CURVE SMOOTH",
"489.04 795.665 OFFCURVE",
"509.832 769.483 OFFCURVE",
"543.832 769.483 CURVE SMOOTH"
);
}
);
width = 710;
},
{
anchors = (
{
name = ogonek;
position = "{529.773, 0}";
},
{
name = top;
position = "{399.415, 697}";
}
);
background = {
hints = (
{
horizontal = 1;
place = "{0, 21}";
type = Stem;
},
{
horizontal = 1;
place = "{196, 47}";
type = Stem;
},
{
horizontal = 1;
place = "{685, 20}";
type = Stem;
},
{
horizontal = 1;
place = "{765, 80}";
type = Stem;
},
{
place = "{279, 69}";
type = Stem;
},
{
place = "{442, 69}";
type = Stem;
}
);
paths = (
{
closed = 1;
nodes = (
"780.92 0 LINE",
"454.92 705 LINE",
"404.92 705 LINE",
"78.92 0 LINE",
"132.92 0 LINE",
"221.92 196 LINE",
"634.92 196 LINE",
"723.92 0 LINE"
);
},
{
closed = 1;
nodes = (
"612.92 243 LINE",
"243.92 243 LINE",
"428.92 648 LINE"
);
},
{
closed = 1;
nodes = (
"545.92 765 LINE",
"545.92 845 LINE",
"476.92 845 LINE",
"476.92 765 LINE"
);
},
{
closed = 1;
nodes = (
"382.92 765 LINE",
"382.92 845 LINE",
"313.92 845 LINE",
"313.92 765 LINE"
);
}
);
};
hints = (
{
horizontal = 1;
place = "{615.853, -20}";
target = down;
type = TopGhost;
},
{
horizontal = 1;
place = "{-84.147, 21}";
target = up;
type = BottomGhost;
},
{
place = "{129.853, -23.494}";
type = Stem;
},
{
place = "{264.853, -24.489}";
type = Stem;
},
{
horizontal = 1;
place = "{699.28, -23.494}";
type = Stem;
}
);
layerId = "6E968933-CD79-43C6-9231-80D77C940F4D";
paths = (
{
closed = 1;
nodes = (
"-16.227 0 LINE",
"106.545 210 LINE",
"495.545 210 LINE",
"533.773 0 LINE",
"556.773 0 LINE",
"429.012 700 LINE",
"368.012 700 LINE",
"-39.227 0 LINE"
);
},
{
closed = 1;
nodes = (
"492.523 230 LINE",
"117.523 230 LINE",
"379.034 680 LINE",
"411.034 680 LINE"
);
},
{
closed = 1;
nodes = (
"368.002 785.415 OFFCURVE",
"384.771 799.335 OFFCURVE",
"387.935 815.244 CURVE SMOOTH",
"391.298 832.147 OFFCURVE",
"380.067 846.067 OFFCURVE",
"363.067 846.067 CURVE SMOOTH",
"346.067 846.067 OFFCURVE",
"330.298 832.147 OFFCURVE",
"326.935 815.244 CURVE SMOOTH",
"323.771 799.335 OFFCURVE",
"334.002 785.415 OFFCURVE",
"351.002 785.415 CURVE SMOOTH"
);
},
{
closed = 1;
nodes = (
"502.002 785.415 OFFCURVE",
"518.771 799.335 OFFCURVE",
"521.935 815.244 CURVE SMOOTH",
"525.298 832.147 OFFCURVE",
"514.067 846.067 OFFCURVE",
"498.067 846.067 CURVE SMOOTH",
"481.067 846.067 OFFCURVE",
"464.298 832.147 OFFCURVE",
"460.935 815.244 CURVE SMOOTH",
"457.771 799.335 OFFCURVE",
"469.002 785.415 OFFCURVE",
"486.002 785.415 CURVE SMOOTH"
);
}
);
width = 617.00574;
},
{
anchors = (
{
name = ogonek;
position = "{663.973, 1}";
},
{
name = top;
position = "{488.013, 700}";
}
);
hints = (
{
horizontal = 1;
place = "{284.434, 50.434}";
type = Stem;
},
{
horizontal = 1;
place = "{206.434, -20}";
target = down;
type = TopGhost;
},
{
horizontal = 1;
place = "{-90.566, 21}";
target = up;
type = BottomGhost;
},
{
place = "{135.434, 58.579}";
type = Stem;
},
{
place = "{338.434, 58.579}";
type = Stem;
},
{
horizontal = 1;
place = "{670.9, 58.579}";
type = Stem;
}
);
layerId = "BAF31694-0472-4296-B0EA-1654553C45D2";
paths = (
{
closed = 1;
nodes = (
"135.774 0 LINE",
"212.622 140 LINE",
"539.622 140 LINE",
"561.774 0 LINE",
"740.774 0 LINE",
"626.013 700 LINE",
"351.013 700 LINE",
"-44.226 0 LINE"
);
},
{
closed = 1;
nodes = (
"515.663 286 LINE",
"292.663 286 LINE",
"439.972 554 LINE",
"474.972 554 LINE"
);
},
{
closed = 1;
nodes = (
"445.989 761.466 OFFCURVE",
"485.318 793.284 OFFCURVE",
"493.625 835.044 CURVE SMOOTH",
"502.129 877.799 OFFCURVE",
"475.656 910.611 OFFCURVE",
"432.656 910.611 CURVE SMOOTH",
"390.656 910.611 OFFCURVE",
"352.129 877.799 OFFCURVE",
"343.625 835.044 CURVE SMOOTH",
"335.318 793.284 OFFCURVE",
"360.989 761.466 OFFCURVE",
"402.989 761.466 CURVE SMOOTH"
);
},
{
closed = 1;
nodes = (
"648.989 761.466 OFFCURVE",
"687.318 793.284 OFFCURVE",
"695.625 835.044 CURVE SMOOTH",
"704.129 877.799 OFFCURVE",
"678.656 910.611 OFFCURVE",
"635.656 910.611 CURVE SMOOTH",
"593.656 910.611 OFFCURVE",
"555.129 877.799 OFFCURVE",
"546.625 835.044 CURVE SMOOTH",
"538.318 793.284 OFFCURVE",
"563.989 761.466 OFFCURVE",
"605.989 761.466 CURVE SMOOTH"
);
}
);
width = 796.00047;
},
{
anchors = (
{
name = ogonek;
position = "{565.776, 0}";
},
{
name = top;
position = "{426.816, 699}";
}
);
hints = (
{
horizontal = 1;
place = "{613.216, -20}";
target = down;
type = TopGhost;
},
{
horizontal = 1;
place = "{-86.784, 21}";
target = up;
type = BottomGhost;
},
{
place = "{124.216, 11.432}";
type = Stem;
},
{
place = "{282.216, 11.432}";
type = Stem;
},
{
horizontal = 1;
place = "{688.587, 11.432}";
type = Stem;
}
);
layerId = "9F107B1E-3A61-4335-981B-27DD48125C7E";
paths = (
{
closed = 1;
nodes = (
"40.776 0 LINE",
"145.376 184 LINE",
"503.376 184 LINE",
"533.776 0 LINE",
"615.776 0 LINE",
"500.015 700 LINE",
"355.015 700 LINE",
"-40.224 0 LINE"
);
},
{
closed = 1;
nodes = (
"492.3 254 LINE",
"185.3 254 LINE",
"397.091 630 LINE",
"430.091 630 LINE"
);
},
{
closed = 1;
nodes = (
"392.308 774.368 OFFCURVE",
"418.494 795.415 OFFCURVE",
"423.876 822.474 CURVE SMOOTH",
"429.259 849.533 OFFCURVE",
"411.844 872.584 OFFCURVE",
"384.844 872.584 CURVE SMOOTH",
"356.844 872.584 OFFCURVE",
"331.259 849.533 OFFCURVE",
"325.876 822.474 CURVE SMOOTH",
"320.494 795.415 OFFCURVE",
"337.308 774.368 OFFCURVE",
"365.308 774.368 CURVE SMOOTH"
);
},
{
closed = 1;
nodes = (
"549.308 774.368 OFFCURVE",
"576.494 795.415 OFFCURVE",
"581.876 822.474 CURVE SMOOTH",
"587.259 849.533 OFFCURVE",
"568.844 872.584 OFFCURVE",
"542.844 872.584 CURVE SMOOTH",
"514.844 872.584 OFFCURVE",
"489.259 849.533 OFFCURVE",
"483.876 822.474 CURVE SMOOTH",
"478.494 795.415 OFFCURVE",
"495.308 774.368 OFFCURVE",
"523.308 774.368 CURVE SMOOTH"
);
}
);
width = 675.00465;
}
);
leftMetricsKey = A;
rightMetricsKey = A;
unicode = 00C4;
},
{
glyphname = Agrave;
lastChange = "2021-08-30 20:28:08 +0000";
layers = (
{
anchors = (
{
name = ogonek;
position = "{586.773, 0}";
},
{
name = top;
position = "{444.012, 700}";
}
);
hints = (
{
horizontal = 1;
place = "{80.943, -2.057}";
type = Stem;
},
{
horizontal = 1;
place = "{605.943, -20}";
target = down;
type = TopGhost;
},
{
horizontal = 1;
place = "{-94.057, 21}";
target = up;
type = BottomGhost;
}
);
layerId = "0CF0EA28-C756-4A9E-9D7C-CFEF350B4CFE";
paths = (
{
closed = 1;
nodes = (
"75.773 0 LINE",
"171.185 173 LINE",
"508.185 173 LINE",
"533.773 0 LINE",
"651.773 0 LINE",
"542.012 700 LINE",
"346.012 700 LINE",
"-41.227 0 LINE"
);
},
{
closed = 1;
nodes = (
"495.082 268 LINE",
"223.082 268 LINE",
"408.115 605 LINE",
"444.115 605 LINE"
);
},
{
closed = 1;
nodes = (
"355.858 850.043 LINE",
"554.824 739.273 LINE",
"571.65 823.861 LINE",
"374.887 945.708 LINE"
);
}
);
width = 710;
},
{
anchors = (
{
name = ogonek;
position = "{529.769, 0}";
},
{
name = top;
position = "{399.411, 697}";
}
);
background = {
hints = (
{
horizontal = 1;
place = "{0, 21}";
type = Stem;
},
{
horizontal = 1;
place = "{196, 47}";
type = Stem;
},
{
horizontal = 1;
place = "{685, 20}";
type = Stem;
},
{
horizontal = 1;
place = "{765, 21}";
type = Stem;
},
{
horizontal = 1;
place = "{878, 20}";
type = Stem;
}
);
paths = (
{
closed = 1;
nodes = (
"785.86 0 LINE",
"459.86 705 LINE",
"409.86 705 LINE",
"83.86 0 LINE",
"137.86 0 LINE",
"226.86 196 LINE",
"639.86 196 LINE",
"728.86 0 LINE"
);
},
{
closed = 1;
nodes = (
"617.86 243 LINE",
"248.86 243 LINE",
"433.86 648 LINE"
);
},
{
closed = 1;
nodes = (
"409.86 765 LINE",
"451.86 765 LINE",
"363.86 898 LINE",
"302.86 868 LINE"
);
}
);
};
hints = (
{
horizontal = 1;
place = "{610.909, -20}";
target = down;
type = TopGhost;
},
{
horizontal = 1;
place = "{-89.091, 21}";
target = up;
type = BottomGhost;
}
);
layerId = "6E968933-CD79-43C6-9231-80D77C940F4D";
paths = (
{
closed = 1;
nodes = (
"-16.231 0 LINE",
"106.541 210 LINE",
"495.541 210 LINE",
"533.769 0 LINE",
"556.769 0 LINE",
"429.008 700 LINE",
"368.008 700 LINE",
"-39.231 0 LINE"
);
},
{
closed = 1;
nodes = (
"492.519 230 LINE",
"117.519 230 LINE",
"379.029 680 LINE",
"411.029 680 LINE"
);
},
{
closed = 1;
nodes = (
"328.007 870.924 LINE",
"489.295 741.665 LINE",
"493.449 762.546 LINE",
"332.951 895.782 LINE"
);
}
);
width = 616.99574;
},
{
anchors = (
{
name = ogonek;
position = "{663.97, 1}";
},
{
name = top;
position = "{488.009, 700}";
}
);
hints = (
{
horizontal = 1;
place = "{278.501, 44.501}";
type = Stem;
},
{
horizontal = 1;
place = "{200.501, -20}";
target = down;
type = TopGhost;
},
{
horizontal = 1;
place = "{-96.499, 21}";
target = up;
type = BottomGhost;
}
);
layerId = "BAF31694-0472-4296-B0EA-1654553C45D2";
paths = (
{
closed = 1;
nodes = (
"135.771 0 LINE",
"212.618 140 LINE",
"539.618 140 LINE",
"561.771 0 LINE",
"740.771 0 LINE",
"626.009 700 LINE",
"351.009 700 LINE",
"-44.229 0 LINE"
);
},
{
closed = 1;
nodes = (
"515.66 286 LINE",
"292.66 286 LINE",
"439.968 554 LINE",
"474.968 554 LINE"
);
},
{
closed = 1;
nodes = (
"394.621 835.044 LINE",
"618.041 736.608 LINE",
"641.972 856.919 LINE",
"421.519 970.269 LINE"
);
}
);
width = 796.00047;
},
{
anchors = (
{
name = ogonek;
position = "{565.774, 0}";
},
{
name = top;
position = "{426.814, 699}";
}
);
hints = (
{
horizontal = 1;
place = "{607.734, -20}";
target = down;
type = TopGhost;
},
{
horizontal = 1;
place = "{-92.266, 21}";
target = up;
type = BottomGhost;
}
);
layerId = "9F107B1E-3A61-4335-981B-27DD48125C7E";
paths = (
{
closed = 1;
nodes = (
"40.774 0 LINE",
"145.374 184 LINE",
"503.374 184 LINE",
"533.774 0 LINE",
"615.774 0 LINE",
"500.013 700 LINE",
"355.013 700 LINE",
"-40.226 0 LINE"
);
},
{
closed = 1;
nodes = (
"492.298 254 LINE",
"185.298 254 LINE",
"397.089 630 LINE",
"430.089 630 LINE"
);
},
{
closed = 1;
nodes = (
"346.051 858.553 LINE",
"530.926 742.298 LINE",
"542.887 802.43 LINE",
"359.806 927.705 LINE"
);
}
);
width = 675.00465;
}
);
leftMetricsKey = A;
rightMetricsKey = A;
unicode = 00C0;
},
{
glyphname = Amacron;
lastChange = "2021-08-30 20:28:08 +0000";
layers = (
{
anchors = (
{
name = ogonek;
position = "{586.775, 0}";
},
{
name = top;
position = "{444.014, 700}";
}
);
hints = (
{
horizontal = 1;
place = "{88.455, 5.455}";
type = Stem;
},
{
horizontal = 1;
place = "{613.455, -20}";
target = down;
type = TopGhost;
},
{
horizontal = 1;
place = "{-86.545, 21}";
target = up;
type = BottomGhost;
},
{
horizontal = 1;
place = "{698.043, -0.95}";
type = Stem;
}
);
layerId = "0CF0EA28-C756-4A9E-9D7C-CFEF350B4CFE";
paths = (
{
closed = 1;
nodes = (
"75.775 0 LINE",
"171.187 173 LINE",
"508.187 173 LINE",
"533.775 0 LINE",
"651.775 0 LINE",
"542.014 700 LINE",
"346.014 700 LINE",
"-41.225 0 LINE"
);
},
{
closed = 1;
nodes = (
"495.083 268 LINE",
"223.083 268 LINE",
"408.117 605 LINE",
"444.117 605 LINE"
);
},
{
closed = 1;
nodes = (
"277.839 784.588 LINE",
"643.839 784.588 LINE",
"660.865 870.183 LINE",
"294.865 870.183 LINE"
);
}
);
width = 710;
},
{
anchors = (
{
name = ogonek;
position = "{529.77, 0}";
},
{
name = top;
position = "{399.412, 697}";
}
);
hints = (
{
horizontal = 1;
place = "{617.04, -20}";
target = down;
type = TopGhost;
},
{
horizontal = 1;
place = "{-82.96, 21}";
target = up;
type = BottomGhost;
},
{
horizontal = 1;
place = "{718.364, 21}";
target = up;
type = BottomGhost;
},
{
horizontal = 1;
place = "{736.261, -20}";
target = down;
type = TopGhost;
}
);
layerId = "6E968933-CD79-43C6-9231-80D77C940F4D";
paths = (
{
closed = 1;
nodes = (
"-16.23 0 LINE",
"106.542 210 LINE",
"495.542 210 LINE",
"533.77 0 LINE",
"556.77 0 LINE",
"429.009 700 LINE",
"368.009 700 LINE",
"-39.23 0 LINE"
);
},
{
closed = 1;
nodes = (
"492.52 230 LINE",
"117.52 230 LINE",
"379.03 680 LINE",
"411.03 680 LINE"
);
},
{
closed = 1;
nodes = (
"268.734 814.249 LINE",
"578.734 814.249 LINE",
"582.69 834.135 LINE",
"272.69 834.135 LINE"
);
}
);
width = 616.99574;
},
{
anchors = (
{
name = ogonek;
position = "{663.969, 1}";
},
{
name = top;
position = "{488.008, 700}";
}
);
hints = (
{
horizontal = 1;
place = "{286.61, 52.61}";
type = Stem;
},
{
horizontal = 1;
place = "{208.61, -20}";
target = down;
type = TopGhost;
},
{
horizontal = 1;
place = "{-88.39, 21}";
target = up;
type = BottomGhost;
},
{
horizontal = 1;
place = "{681.03, 31.92}";
type = Stem;
}
);
layerId = "BAF31694-0472-4296-B0EA-1654553C45D2";
paths = (
{
closed = 1;
nodes = (
"135.77 0 LINE",
"212.617 140 LINE",
"539.617 140 LINE",
"561.77 0 LINE",
"740.77 0 LINE",
"626.008 700 LINE",
"351.008 700 LINE",
"-44.23 0 LINE"
);
},
{
closed = 1;
nodes = (
"515.659 286 LINE",
"292.659 286 LINE",
"439.967 554 LINE",
"474.967 554 LINE"
);
},
{
closed = 1;
nodes = (
"305.567 769.42 LINE",
"708.567 769.42 LINE",
"732.3 888.736 LINE",
"329.3 888.736 LINE"
);
}
);
width = 796.00047;
},
{
anchors = (
{
name = ogonek;
position = "{565.771, 0}";
},
{
name = top;
position = "{426.811, 699}";
}
);
hints = (
{
horizontal = 1;
place = "{614.811, -20}";
target = down;
type = TopGhost;
},
{
horizontal = 1;
place = "{-85.189, 21}";
target = up;
type = BottomGhost;
},
{
horizontal = 1;
place = "{308.343, 21}";
target = up;
type = BottomGhost;
},
{
horizontal = 1;
place = "{315.359, -20}";
target = down;
type = TopGhost;
}
);
layerId = "9F107B1E-3A61-4335-981B-27DD48125C7E";
paths = (
{
closed = 1;
nodes = (
"40.771 0 LINE",
"145.371 184 LINE",
"503.371 184 LINE",
"533.771 0 LINE",
"615.771 0 LINE",
"500.01 700 LINE",
"355.01 700 LINE",
"-40.229 0 LINE"
);
},
{
closed = 1;
nodes = (
"492.295 254 LINE",
"185.295 254 LINE",
"397.086 630 LINE",
"430.086 630 LINE"
);
},
{
closed = 1;
nodes = (
"275.688 796.417 LINE",
"620.688 796.417 LINE",
"632.649 856.549 LINE",
"287.649 856.549 LINE"
);
}
);
width = 674.99465;
}
);
leftMetricsKey = A;
rightMetricsKey = A;
unicode = 0100;
},
{
glyphname = Aogonek;
lastChange = "2021-08-30 20:28:08 +0000";
layers = (
{
anchors = (
{
name = _ogonek;
position = "{-383.725, 0}";
},
{
name = ogonek;
position = "{586.775, 0}";
},
{
name = top;
position = "{444.013, 700}";
}
);
hints = (
{
place = "{407.565, 44.565}";
type = Stem;
},
{
place = "{407.565, 165.565}";
type = Stem;
},
{
horizontal = 1;
place = "{-261.435, 25.565}";
type = Stem;
},
{
horizontal = 1;
place = "{126.565, 43.565}";
type = Stem;
},
{
horizontal = 1;
place = "{651.565, -20}";
target = down;
type = TopGhost;
},
{
horizontal = 1;
place = "{-48.435, 21}";
target = up;
type = BottomGhost;
}
);
layerId = "0CF0EA28-C756-4A9E-9D7C-CFEF350B4CFE";
paths = (
{
closed = 1;
nodes = (
"540.032 39 LINE SMOOTH",
"437.28 -5 OFFCURVE",
"394.732 -53 OFFCURVE",
"384.588 -104 CURVE SMOOTH",
"368.675 -184 OFFCURVE",
"432.907 -213 OFFCURVE",
"495.907 -213 CURVE SMOOTH",
"524.907 -213 OFFCURVE",
"555.299 -206 OFFCURVE",
"580.089 -197 CURVE",
"594.411 -125 LINE",
"569.621 -134 OFFCURVE",
"544.626 -139 OFFCURVE",
"525.626 -139 CURVE SMOOTH",
"491.626 -139 OFFCURVE",
"474.405 -120 OFFCURVE",
"479.975 -92 CURVE SMOOTH",
"484.749 -68 OFFCURVE",
"502.926 -47 OFFCURVE",
"550.302 -25 CURVE SMOOTH",
"604.275 0 LINE",
"585.812 58 LINE"
);
},
{
closed = 1;
nodes = (
"75.775 0 LINE",
"171.187 173 LINE",
"508.187 173 LINE",
"533.775 0 LINE",
"651.775 0 LINE",
"542.013 700 LINE",
"346.013 700 LINE",
"-41.225 0 LINE"
);
},
{
closed = 1;
nodes = (
"495.083 268 LINE",
"223.083 268 LINE",
"408.117 605 LINE",
"444.117 605 LINE"
);
}
);
width = 710;
},
{
anchors = (
{
name = _ogonek;
position = "{-319.232, 0}";
},
{
name = ogonek;
position = "{529.768, 0}";
},
{
name = top;
position = "{399.41, 697}";
}
);
hints = (
{
place = "{371.178, -29.822}";
type = Stem;
},
{
horizontal = 1;
place = "{-235.822, 21}";
target = up;
type = BottomGhost;
},
{
horizontal = 1;
place = "{649.178, -20}";
target = down;
type = TopGhost;
},
{
horizontal = 1;
place = "{-50.822, 21}";
target = up;
type = BottomGhost;
}
);
layerId = "6E968933-CD79-43C6-9231-80D77C940F4D";
paths = (
{
closed = 1;
nodes = (
"467.784 -15 LINE SMOOTH",
"399.215 -43 OFFCURVE",
"368.452 -77 OFFCURVE",
"360.893 -115 CURVE SMOOTH",
"350.748 -166 OFFCURVE",
"385.173 -189 OFFCURVE",
"437.173 -189 CURVE SMOOTH",
"456.173 -189 OFFCURVE",
"478.969 -185 OFFCURVE",
"501.56 -177 CURVE",
"505.738 -156 LINE",
"483.146 -164 OFFCURVE",
"460.152 -169 OFFCURVE",
"440.152 -169 CURVE SMOOTH",
"401.152 -169 OFFCURVE",
"374.533 -152 OFFCURVE",
"382.092 -114 CURVE SMOOTH",
"387.86 -85 OFFCURVE",
"411.629 -56 OFFCURVE",
"468.204 -33 CURVE SMOOTH",
"545.768 0 LINE",
"541.95 16 LINE"
);
},
{
closed = 1;
nodes = (
"-16.232 0 LINE",
"106.539 210 LINE",
"495.539 210 LINE",
"533.768 0 LINE",
"556.768 0 LINE",
"429.007 700 LINE",
"368.007 700 LINE",
"-39.232 0 LINE"
);
},
{
closed = 1;
nodes = (
"492.518 230 LINE",
"117.518 230 LINE",
"379.028 680 LINE",
"411.028 680 LINE"
);
}
);
width = 616.99553;
},
{
anchors = (
{
name = _ogonek;
position = "{231.471, 1}";
},
{
name = ogonek;
position = "{663.971, 1}";
},
{
name = top;
position = "{488.011, 700}";
}
);
hints = (
{
place = "{146.062, -8.938}";
type = Stem;
},
{
place = "{408.062, 132.062}";
type = Stem;
},
{
horizontal = 1;
place = "{-265.938, 51.062}";
type = Stem;
},
{
horizontal = 1;
place = "{327.062, 93.062}";
type = Stem;
},
{
horizontal = 1;
place = "{249.062, -20}";
target = down;
type = TopGhost;
},
{
horizontal = 1;
place = "{-47.938, 21}";
target = up;
type = BottomGhost;
}
);
layerId = "BAF31694-0472-4296-B0EA-1654553C45D2";
paths = (
{
closed = 1;
nodes = (
"605.599 67 LINE SMOOTH",
"464.858 13 OFFCURVE",
"418.912 -37 OFFCURVE",
"406.381 -100 CURVE SMOOTH",
"390.468 -180 OFFCURVE",
"446.909 -218 OFFCURVE",
"530.909 -218 CURVE SMOOTH",
"567.909 -218 OFFCURVE",
"603.103 -212 OFFCURVE",
"633.893 -203 CURVE",
"653.585 -104 LINE",
"623.596 -114 OFFCURVE",
"596.602 -119 OFFCURVE",
"575.602 -119 CURVE SMOOTH",
"547.602 -119 OFFCURVE",
"532.988 -107 OFFCURVE",
"537.166 -86 CURVE SMOOTH",
"540.945 -67 OFFCURVE",
"557.724 -48 OFFCURVE",
"617.697 -23 CURVE SMOOTH",
"668.073 -1 LINE",
"647.981 84 LINE"
);
},
{
closed = 1;
nodes = (
"135.772 0 LINE",
"212.62 140 LINE",
"539.62 140 LINE",
"561.772 0 LINE",
"740.772 0 LINE",
"626.011 700 LINE",
"351.011 700 LINE",
"-44.228 0 LINE"
);
},
{
closed = 1;
nodes = (
"515.661 286 LINE",
"292.661 286 LINE",
"439.97 554 LINE",
"474.97 554 LINE"
);
}
);
width = 795.99623;
},
{
anchors = (
{
name = _ogonek;
position = "{-359.23, 0}";
},
{
name = ogonek;
position = "{565.77, 0}";
},
{
name = top;
position = "{426.809, 699}";
}
);
hints = (
{
place = "{-24.33, 4.67}";
type = Stem;
},
{
horizontal = 1;
place = "{-118.33, 21}";
target = up;
type = BottomGhost;
},
{
horizontal = 1;
place = "{650.67, -20}";
target = down;
type = TopGhost;
},
{
horizontal = 1;
place = "{-49.33, 21}";
target = up;
type = BottomGhost;
}
);
layerId = "9F107B1E-3A61-4335-981B-27DD48125C7E";
paths = (
{
closed = 1;
nodes = (
"520.549 19 LINE SMOOTH",
"430.99 -19 OFFCURVE",
"392.437 -62 OFFCURVE",
"383.287 -108 CURVE SMOOTH",
"369.562 -177 OFFCURVE",
"423.192 -204 OFFCURVE",
"482.192 -204 CURVE SMOOTH",
"507.192 -204 OFFCURVE",
"534.385 -198 OFFCURVE",
"557.976 -190 CURVE",
"568.519 -137 LINE",
"544.927 -145 OFFCURVE",
"520.933 -150 OFFCURVE",
"501.933 -150 CURVE SMOOTH",
"465.933 -150 OFFCURVE",
"444.513 -132 OFFCURVE",
"450.878 -100 CURVE SMOOTH",
"456.05 -74 OFFCURVE",
"476.824 -50 OFFCURVE",
"527.2 -28 CURVE SMOOTH",
"589.77 0 LINE",
"577.124 42 LINE"
);
},
{
closed = 1;
nodes = (
"40.77 0 LINE",
"145.37 184 LINE",
"503.37 184 LINE",
"533.77 0 LINE",
"615.77 0 LINE",
"500.008 700 LINE",
"355.008 700 LINE",
"-40.23 0 LINE"
);
},
{
closed = 1;
nodes = (
"492.293 254 LINE",
"185.293 254 LINE",
"397.085 630 LINE",
"430.085 630 LINE"
);
}
);
width = 674.99707;
}
);
leftMetricsKey = A;
rightMetricsKey = A;
unicode = 0104;
},
{
glyphname = Aring;
lastChange = "2021-08-30 20:28:08 +0000";
layers = (
{
anchors = (
{
name = ogonek;
position = "{586.769, 0}";
},
{
name = top;
position = "{444.008, 700}";
}
);
hints = (
{
horizontal = 1;
place = "{78.039, -4.961}";
type = Stem;
},
{
horizontal = 1;
place = "{603.039, -20}";
target = down;
type = TopGhost;
},
{
horizontal = 1;
place = "{-96.961, 21}";
target = up;
type = BottomGhost;
},
{
place = "{144.789, -32.513}";
type = Stem;
},
{
place = "{305.789, -32.513}";
type = Stem;
},
{
horizontal = 1;
place = "{657.417, -37.548}";
type = Stem;
},
{
horizontal = 1;
place = "{819.544, -38.555}";
type = Stem;
}
);
layerId = "0CF0EA28-C756-4A9E-9D7C-CFEF350B4CFE";
paths = (
{
closed = 1;
nodes = (
"75.769 0 LINE",
"171.181 173 LINE",
"508.181 173 LINE",
"533.769 0 LINE",
"651.769 0 LINE",
"542.008 700 LINE",
"346.008 700 LINE",
"-41.231 0 LINE"
);
},
{
closed = 1;
nodes = (
"495.078 268 LINE",
"223.078 268 LINE",
"408.111 605 LINE",
"444.111 605 LINE"
);
},
{
closed = 1;
nodes = (
"603.278 932.617 OFFCURVE",
"561.691 974.911 OFFCURVE",
"498.691 974.911 CURVE SMOOTH",
"437.691 974.911 OFFCURVE",
"378.278 932.617 OFFCURVE",
"364.657 864.141 CURVE SMOOTH",
"351.237 796.672 OFFCURVE",
"393.824 754.378 OFFCURVE",
"454.824 754.378 CURVE SMOOTH",
"517.824 754.378 OFFCURVE",
"576.237 796.672 OFFCURVE",
"589.657 864.141 CURVE SMOOTH"
);
},
{
closed = 1;
nodes = (
"519.849 834.938 OFFCURVE",
"493.642 813.791 OFFCURVE",
"466.642 813.791 CURVE SMOOTH",
"440.642 813.791 OFFCURVE",
"422.849 834.938 OFFCURVE",
"428.858 865.148 CURVE SMOOTH",
"435.067 896.365 OFFCURVE",
"461.073 916.505 OFFCURVE",
"487.073 916.505 CURVE SMOOTH",
"514.073 916.505 OFFCURVE",
"532.067 896.365 OFFCURVE",
"525.858 865.148 CURVE SMOOTH"
);
}
);
width = 710;
},
{
anchors = (
{
name = ogonek;
position = "{529.771, 0}";
},
{
name = top;
position = "{399.413, 697}";
}
);
background = {
hints = (
{
horizontal = 1;
place = "{0, 21}";
type = Stem;
},
{
horizontal = 1;
place = "{196, 47}";
type = Stem;
},
{
horizontal = 1;
place = "{682, 20}";
type = Stem;
},
{
horizontal = 1;
place = "{826, 32}";
type = Stem;
},
{
place = "{297, 36}";
type = Stem;
},
{
place = "{457, 36}";
type = Stem;
}
);
paths = (
{
closed = 1;
nodes = (
"89.4 0 LINE",
"143.4 0 LINE",
"232.4 196 LINE",
"645.4 196 LINE",
"734.4 0 LINE",
"791.4 0 LINE",
"478.4 678 LINE",
"512.4 692 OFFCURVE",
"538.4 725 OFFCURVE",
"538.4 764 CURVE SMOOTH",
"538.4 816 OFFCURVE",
"492.4 858 OFFCURVE",
"440.4 858 CURVE SMOOTH",
"388.4 858 OFFCURVE",
"342.4 816 OFFCURVE",
"342.4 764 CURVE SMOOTH",
"342.4 725 OFFCURVE",
"368.4 692 OFFCURVE",
"402.4 678 CURVE"
);
},
{
closed = 1;
nodes = (
"502.4 730 OFFCURVE",
"474.4 702 OFFCURVE",
"440.4 702 CURVE SMOOTH",
"406.4 702 OFFCURVE",
"378.4 730 OFFCURVE",
"378.4 764 CURVE SMOOTH",
"378.4 798 OFFCURVE",
"406.4 826 OFFCURVE",
"440.4 826 CURVE SMOOTH",
"474.4 826 OFFCURVE",
"502.4 798 OFFCURVE",
"502.4 764 CURVE SMOOTH"
);
},
{
closed = 1;
nodes = (
"623.4 243 LINE",
"254.4 243 LINE",
"439.4 648 LINE"
);
}
);
};
hints = (
{
horizontal = 1;
place = "{605.371, -20}";
target = down;
type = TopGhost;
},
{
horizontal = 1;
place = "{-94.629, 21}";
target = up;
type = BottomGhost;
},
{
place = "{128.371, -73.749}";
type = Stem;
},
{
place = "{294.371, -73.749}";
type = Stem;
},
{
horizontal = 1;
place = "{679.849, 81.362}";
type = Stem;
}
);
layerId = "6E968933-CD79-43C6-9231-80D77C940F4D";
paths = (
{
closed = 1;
nodes = (
"-16.229 0 LINE",
"106.543 210 LINE",
"495.543 210 LINE",
"533.771 0 LINE",
"556.771 0 LINE",
"429.01 700 LINE",
"368.01 700 LINE",
"-39.229 0 LINE"
);
},
{
closed = 1;
nodes = (
"492.521 230 LINE",
"117.521 230 LINE",
"379.032 680 LINE",
"411.032 680 LINE"
);
},
{
closed = 1;
nodes = (
"534.107 916.662 OFFCURVE",
"499.029 951.463 OFFCURVE",
"450.029 951.463 CURVE SMOOTH",
"401.029 951.463 OFFCURVE",
"353.107 916.662 OFFCURVE",
"342.031 860.981 CURVE SMOOTH",
"330.955 805.301 OFFCURVE",
"365.231 771.495 OFFCURVE",
"414.231 771.495 CURVE SMOOTH",
"463.231 771.495 OFFCURVE",
"511.955 805.301 OFFCURVE",
"523.031 860.981 CURVE SMOOTH"
);
},
{
closed = 1;
nodes = (
"493.329 817.232 OFFCURVE",
"457.989 790.386 OFFCURVE",
"417.989 790.386 CURVE SMOOTH",
"377.989 790.386 OFFCURVE",
"354.329 817.232 OFFCURVE",
"363.031 860.981 CURVE SMOOTH",
"371.931 905.725 OFFCURVE",
"406.271 932.571 OFFCURVE",
"446.271 932.571 CURVE SMOOTH",
"486.271 932.571 OFFCURVE",
"510.931 905.725 OFFCURVE",
"502.031 860.981 CURVE SMOOTH"
);
}
);
width = 616.99574;
},
{
anchors = (
{
name = ogonek;
position = "{663.974, 1}";
},
{
name = top;
position = "{488.014, 700}";
}
);
hints = (
{
horizontal = 1;
place = "{277.215, 43.215}";
type = Stem;
},
{
horizontal = 1;
place = "{199.215, -20}";
target = down;
type = TopGhost;
},
{
horizontal = 1;
place = "{-97.785, 21}";
target = up;
type = BottomGhost;
},
{
place = "{181.215, -21.224}";
type = Stem;
},
{
place = "{352.215, -21.224}";
type = Stem;
},
{
horizontal = 1;
place = "{641.807, -24.207}";
type = Stem;
},
{
horizontal = 1;
place = "{811.832, -24.207}";
type = Stem;
}
);
layerId = "BAF31694-0472-4296-B0EA-1654553C45D2";
paths = (
{
closed = 1;
nodes = (
"135.775 0 LINE",
"212.623 140 LINE",
"539.623 140 LINE",
"561.775 0 LINE",
"740.775 0 LINE",
"626.014 700 LINE",
"351.014 700 LINE",
"-44.225 0 LINE"
);
},
{
closed = 1;
nodes = (
"515.664 286 LINE",
"292.664 286 LINE",
"439.973 554 LINE",
"474.973 554 LINE"
);
},
{
closed = 1;
nodes = (
"663.799 936.463 OFFCURVE",
"618.095 983.195 OFFCURVE",
"550.095 983.195 CURVE SMOOTH",
"482.095 983.195 OFFCURVE",
"416.799 936.463 OFFCURVE",
"401.768 860.896 CURVE SMOOTH",
"386.935 786.323 OFFCURVE",
"433.639 739.591 OFFCURVE",
"501.639 739.591 CURVE SMOOTH",
"569.639 739.591 OFFCURVE",
"633.935 786.323 OFFCURVE",
"648.768 860.896 CURVE SMOOTH"
);
},
{
closed = 1;
nodes = (
"567.23 833.056 OFFCURVE",
"542.275 813.17 OFFCURVE",
"516.275 813.17 CURVE SMOOTH",
"490.275 813.17 OFFCURVE",
"473.23 833.056 OFFCURVE",
"478.966 861.89 CURVE SMOOTH",
"484.701 890.725 OFFCURVE",
"509.459 909.617 OFFCURVE",
"535.459 909.617 CURVE SMOOTH",
"561.459 909.617 OFFCURVE",
"578.701 890.725 OFFCURVE",
"572.966 861.89 CURVE SMOOTH"
);
}
);
width = 796.00047;
},
{
anchors = (
{
name = ogonek;
position = "{565.767, 0}";
},
{
name = top;
position = "{426.806, 699}";
}
);
hints = (
{
horizontal = 1;
place = "{603.847, -20}";
target = down;
type = TopGhost;
},
{
horizontal = 1;
place = "{-96.153, 21}";
target = up;
type = BottomGhost;
},
{
place = "{239.847, -48.048}";
type = Stem;
},
{
place = "{571.847, -51.054}";
type = Stem;
},
{
horizontal = 1;
place = "{767.411, 7.073}";
type = Stem;
}
);
layerId = "9F107B1E-3A61-4335-981B-27DD48125C7E";
paths = (
{
closed = 1;
nodes = (
"40.767 0 LINE",
"145.367 184 LINE",
"503.367 184 LINE",
"533.767 0 LINE",
"615.767 0 LINE",
"500.005 700 LINE",
"355.005 700 LINE",
"-40.233 0 LINE"
);
},
{
closed = 1;
nodes = (
"492.29 254 LINE",
"185.29 254 LINE",
"397.081 630 LINE",
"430.081 630 LINE"
);
},
{
closed = 1;
nodes = (
"577.599 926.703 OFFCURVE",
"538.573 966.791 OFFCURVE",
"481.573 966.791 CURVE SMOOTH",
"424.573 966.791 OFFCURVE",
"369.599 926.703 OFFCURVE",
"357.04 863.564 CURVE SMOOTH",
"344.481 800.426 OFFCURVE",
"383.707 761.34 OFFCURVE",
"440.707 761.34 CURVE SMOOTH",
"497.707 761.34 OFFCURVE",
"552.481 800.426 OFFCURVE",
"565.04 863.564 CURVE SMOOTH"
);
},
{
closed = 1;
nodes = (
"511.063 828.487 OFFCURVE",
"481.478 805.437 OFFCURVE",
"449.478 805.437 CURVE SMOOTH",
"417.478 805.437 OFFCURVE",
"398.063 828.487 OFFCURVE",
"405.04 863.564 CURVE SMOOTH",
"412.416 900.646 OFFCURVE",
"440.802 922.694 OFFCURVE",
"472.802 922.694 CURVE SMOOTH",
"504.802 922.694 OFFCURVE",
"525.416 900.646 OFFCURVE",
"518.04 863.564 CURVE SMOOTH"
);
}
);
width = 674.99465;
}
);
leftMetricsKey = A;
rightMetricsKey = A;
unicode = 00C5;
},
{
glyphname = Atilde;
lastChange = "2021-08-30 20:28:08 +0000";
layers = (
{
anchors = (
{
name = ogonek;
position = "{586.774, 0}";
},
{
name = top;
position = "{444.013, 700}";
}
);
hints = (
{
horizontal = 1;
place = "{87.954, 4.954}";
type = Stem;
},
{
horizontal = 1;
place = "{612.954, -20}";
target = down;
type = TopGhost;
},
{
horizontal = 1;
place = "{-87.046, 21}";
target = up;
type = BottomGhost;
},
{
horizontal = 1;
place = "{668.339, -11.521}";
type = Stem;
},
{
horizontal = 1;
place = "{670.353, 30.773}";
type = Stem;
},
{
horizontal = 1;
place = "{713.654, -12.528}";
type = Stem;
},
{
horizontal = 1;
place = "{668.339, 30.773}";
type = Stem;
}
);
layerId = "0CF0EA28-C756-4A9E-9D7C-CFEF350B4CFE";
paths = (
{
closed = 1;
nodes = (
"75.774 0 LINE",
"171.186 173 LINE",
"508.186 173 LINE",
"533.774 0 LINE",
"651.774 0 LINE",
"542.013 700 LINE",
"346.013 700 LINE",
"-41.226 0 LINE"
);
},
{
closed = 1;
nodes = (
"495.083 268 LINE",
"223.083 268 LINE",
"408.116 605 LINE",
"444.116 605 LINE"
);
},
{
closed = 1;
nodes = (
"356.43 757.399 LINE",
"366.239 786.602 OFFCURVE",
"386.043 800.7 OFFCURVE",
"408.043 800.7 CURVE SMOOTH",
"448.043 800.7 OFFCURVE",
"461.03 755.385 OFFCURVE",
"515.03 755.385 CURVE SMOOTH",
"573.03 755.385 OFFCURVE",
"624.641 793.651 OFFCURVE",
"651.465 873.204 CURVE",
"587.465 873.204 LINE",
"577.656 844.001 OFFCURVE",
"558.052 830.91 OFFCURVE",
"536.052 830.91 CURVE SMOOTH",
"496.052 830.91 OFFCURVE",
"482.866 875.218 OFFCURVE",
"428.866 875.218 CURVE SMOOTH",
"370.866 875.218 OFFCURVE",
"319.254 836.952 OFFCURVE",
"292.43 757.399 CURVE"
);
}
);
width = 710;
},
{
anchors = (
{
name = ogonek;
position = "{529.772, 0}";
},
{
name = top;
position = "{399.414, 697}";
}
);
background = {
hints = (
{
horizontal = 1;
place = "{0, 21}";
type = Stem;
},
{
horizontal = 1;
place = "{196, 47}";
type = Stem;
},
{
horizontal = 1;
place = "{685, 20}";
type = Stem;
},
{
horizontal = 1;
place = "{756, 21}";
type = Stem;
},
{
horizontal = 1;
place = "{806, 52}";
type = Stem;
},
{
horizontal = 1;
place = "{765, 52}";
type = Stem;
},
{
horizontal = 1;
place = "{847, 20}";
type = Stem;
}
);
paths = (
{
closed = 1;
nodes = (
"779.04 0 LINE",
"453.04 705 LINE",
"403.04 705 LINE",
"77.04 0 LINE",
"131.04 0 LINE",
"220.04 196 LINE",
"633.04 196 LINE",
"722.04 0 LINE"
);
},
{
closed = 1;
nodes = (
"611.04 243 LINE",
"242.04 243 LINE",
"427.04 648 LINE"
);
},
{
closed = 1;
nodes = (
"542.04 867 LINE",
"527.04 829 OFFCURVE",
"516.04 817 OFFCURVE",
"492.04 817 CURVE SMOOTH",
"458.04 817 OFFCURVE",
"402.04 858 OFFCURVE",
"364.04 858 CURVE SMOOTH",
"324.04 858 OFFCURVE",
"299.04 837 OFFCURVE",
"280.04 765 CURVE",
"314.04 756 LINE",
"329.04 794 OFFCURVE",
"340.04 806 OFFCURVE",
"364.04 806 CURVE SMOOTH",
"398.04 806 OFFCURVE",
"454.04 765 OFFCURVE",
"492.04 765 CURVE SMOOTH",
"532.04 765 OFFCURVE",
"557.04 786 OFFCURVE",
"576.04 858 CURVE"
);
}
);
};
hints = (
{
horizontal = 1;
place = "{617.732, -20}";
target = down;
type = TopGhost;
},
{
horizontal = 1;
place = "{-82.268, 21}";
target = up;
type = BottomGhost;
},
{
horizontal = 1;
place = "{663.375, 21}";
target = up;
type = BottomGhost;
},
{
horizontal = 1;
place = "{729.993, -20}";
target = down;
type = TopGhost;
}
);
layerId = "6E968933-CD79-43C6-9231-80D77C940F4D";
paths = (
{
closed = 1;
nodes = (
"-16.228 0 LINE",
"106.544 210 LINE",
"495.544 210 LINE",
"533.772 0 LINE",
"556.772 0 LINE",
"429.011 700 LINE",
"368.011 700 LINE",
"-39.228 0 LINE"
);
},
{
closed = 1;
nodes = (
"492.522 230 LINE",
"117.522 230 LINE",
"379.033 680 LINE",
"411.033 680 LINE"
);
},
{
closed = 1;
nodes = (
"315.057 760.557 LINE",
"325.583 793.369 OFFCURVE",
"343.55 808.284 OFFCURVE",
"366.55 808.284 CURVE SMOOTH",
"408.55 808.284 OFFCURVE",
"412.661 758.569 OFFCURVE",
"464.661 758.569 CURVE SMOOTH",
"498.661 758.569 OFFCURVE",
"531.397 787.403 OFFCURVE",
"540.714 824.192 CURVE",
"521.714 824.192 LINE",
"511.583 793.369 OFFCURVE",
"489.419 777.46 OFFCURVE",
"468.419 777.46 CURVE SMOOTH",
"421.419 777.46 OFFCURVE",
"420.308 827.175 OFFCURVE",
"370.308 827.175 CURVE SMOOTH",
"335.308 827.175 OFFCURVE",
"309.165 801.323 OFFCURVE",
"296.057 760.557 CURVE"
);
}
);
width = 616.99574;
},
{
anchors = (
{
name = ogonek;
position = "{663.967, 1}";
},
{
name = top;
position = "{488.007, 700}";
}
);
hints = (
{
horizontal = 1;
place = "{285.819, 51.819}";
type = Stem;
},
{
horizontal = 1;
place = "{207.819, -20}";
target = down;
type = TopGhost;
},
{
horizontal = 1;
place = "{-89.181, 21}";
target = up;
type = BottomGhost;
},
{
horizontal = 1;
place = "{311.354, -57.364}";
type = Stem;
},
{
horizontal = 1;
place = "{658.364, 33.117}";
type = Stem;
},
{
horizontal = 1;
place = "{702.114, 16.214}";
type = Stem;
},
{
horizontal = 1;
place = "{656.376, 60.958}";
type = Stem;
}
);
layerId = "BAF31694-0472-4296-B0EA-1654553C45D2";
paths = (
{
closed = 1;
nodes = (
"135.769 0 LINE",
"212.616 140 LINE",
"539.616 140 LINE",
"561.769 0 LINE",
"740.769 0 LINE",
"626.007 700 LINE",
"351.007 700 LINE",
"-44.231 0 LINE"
);
},
{
closed = 1;
nodes = (
"515.657 286 LINE",
"292.657 286 LINE",
"439.966 554 LINE",
"474.966 554 LINE"
);
},
{
closed = 1;
nodes = (
"387.017 746.552 LINE",
"398.148 777.375 OFFCURVE",
"416.917 791.295 OFFCURVE",
"439.917 791.295 CURVE SMOOTH",
"479.917 791.295 OFFCURVE",
"503.017 746.552 OFFCURVE",
"564.017 746.552 CURVE SMOOTH",
"635.017 746.552 OFFCURVE",
"695.521 789.306 OFFCURVE",
"733.684 895.697 CURVE",
"643.684 895.697 LINE",
"633.75 865.867 OFFCURVE",
"614.784 850.953 OFFCURVE",
"591.784 850.953 CURVE SMOOTH",
"551.784 850.953 OFFCURVE",
"528.881 896.691 OFFCURVE",
"468.881 896.691 CURVE SMOOTH",
"396.881 896.691 OFFCURVE",
"336.179 852.942 OFFCURVE",
"298.017 746.552 CURVE"
);
}
);
width = 796.00047;
},
{
anchors = (
{
name = ogonek;
position = "{565.771, 0}";
},
{
name = top;
position = "{426.811, 699}";
}
);
hints = (
{
horizontal = 1;
place = "{614.711, -20}";
target = down;
type = TopGhost;
},
{
horizontal = 1;
place = "{-85.289, 21}";
target = up;
type = BottomGhost;
},
{
horizontal = 1;
place = "{287.197, 21}";
target = up;
type = BottomGhost;
},
{
horizontal = 1;
place = "{312.252, -20}";
target = down;
type = TopGhost;
}
);
layerId = "9F107B1E-3A61-4335-981B-27DD48125C7E";
paths = (
{
closed = 1;
nodes = (
"40.771 0 LINE",
"145.371 184 LINE",
"503.371 184 LINE",
"533.771 0 LINE",
"615.771 0 LINE",
"500.01 700 LINE",
"355.01 700 LINE",
"-40.229 0 LINE"
);
},
{
closed = 1;
nodes = (
"492.295 254 LINE",
"185.295 254 LINE",
"397.086 630 LINE",
"430.086 630 LINE"
);
},
{
closed = 1;
nodes = (
"341.711 761.34 LINE",
"351.692 791.406 OFFCURVE",
"370.084 803.432 OFFCURVE",
"393.084 803.432 CURVE SMOOTH",
"433.084 803.432 OFFCURVE",
"442.914 757.331 OFFCURVE",
"496.914 757.331 CURVE SMOOTH",
"545.914 757.331 OFFCURVE",
"589.293 789.401 OFFCURVE",
"609.852 852.54 CURVE",
"562.852 852.54 LINE",
"553.071 823.476 OFFCURVE",
"532.679 811.45 OFFCURVE",
"510.679 811.45 CURVE SMOOTH",
"468.679 811.45 OFFCURVE",
"459.849 857.551 OFFCURVE",
"406.849 857.551 CURVE SMOOTH",
"357.849 857.551 OFFCURVE",
"316.47 825.481 OFFCURVE",
"294.711 761.34 CURVE"
);
}
);
width = 674.99465;
}
);
leftMetricsKey = A;
rightMetricsKey = A;
unicode = 00C3;
},
{
glyphname = AE;
lastChange = "2021-08-30 20:28:10 +0000";
layers = (
{
hints = (
{
place = "{398.381, 44.381}";
type = Stem;
},
{
horizontal = 1;
place = "{-69.619, 19.381}";
type = Stem;
},
{
horizontal = 1;
place = "{73.381, 19.381}";
type = Stem;
},
{
horizontal = 1;
place = "{240.381, 18.381}";
type = Stem;
},
{
horizontal = 1;
place = "{541.381, 19.381}";
type = Stem;
}
);
layerId = "0CF0EA28-C756-4A9E-9D7C-CFEF350B4CFE";
paths = (
{
closed = 1;
nodes = (
"131.984 172 LINE",
"503.984 172 LINE",
"522.88 267 LINE",
"199.88 267 LINE"
);
},
{
closed = 1;
nodes = (
"920.113 605 LINE",
"939.009 700 LINE",
"480.009 700 LINE",
"-41.229 0 LINE",
"80.771 0 LINE",
"540.295 621 LINE",
"416.771 0 LINE",
"799.771 0 LINE",
"818.667 95 LINE",
"549.667 95 LINE",
"591.638 306 LINE",
"770.638 306 LINE",
"789.535 401 LINE",
"610.535 401 LINE",
"651.113 605 LINE"
);
}
);
width = 914.5;
},
{
background = {
hints = (
{
horizontal = 1;
place = "{0, 48}";
type = Stem;
},
{
horizontal = 1;
place = "{196, 47}";
type = Stem;
},
{
horizontal = 1;
place = "{329, 48}";
type = Stem;
},
{
horizontal = 1;
place = "{652, 48}";
type = Stem;
},
{
place = "{494, 52}";
type = Stem;
}
);
paths = (
{
closed = 1;
nodes = (
"214.79 196 LINE",
"514.79 196 LINE",
"514.79 0 LINE",
"1002.79 0 LINE",
"1002.79 48 LINE",
"566.79 48 LINE",
"566.79 329 LINE",
"952.79 329 LINE",
"952.79 377 LINE",
"566.79 377 LINE",
"566.79 652 LINE",
"997.79 652 LINE",
"997.79 700 LINE",
"464.79 700 LINE",
"40.79 0 LINE",
"96.79 0 LINE"
);
},
{
closed = 1;
nodes = (
"488.79 653 LINE",
"514.79 653 LINE",
"514.79 243 LINE",
"242.79 243 LINE"
);
}
);
};
hints = (
{
place = "{377.381, -48.619}";
type = Stem;
},
{
horizontal = 1;
place = "{615.381, -20}";
target = down;
type = TopGhost;
},
{
horizontal = 1;
place = "{-69.619, 21}";
target = up;
type = BottomGhost;
}
);
layerId = "6E968933-CD79-43C6-9231-80D77C940F4D";
paths = (
{
closed = 1;
nodes = (
"148.542 210 LINE",
"444.542 210 LINE",
"448.521 230 LINE",
"159.521 230 LINE"
);
},
{
closed = 1;
nodes = (
"875.031 680 LINE",
"879.009 700 LINE",
"532.009 700 LINE",
"-39.229 0 LINE",
"-13.229 0 LINE",
"526.451 662 LINE",
"394.771 0 LINE",
"739.771 0 LINE",
"743.749 20 LINE",
"420.749 20 LINE",
"486.39 350 LINE",
"719.39 350 LINE",
"723.368 370 LINE",
"490.368 370 LINE",
"552.031 680 LINE"
);
}
);
width = 874.50043;
},
{
hints = (
{
place = "{413.381, 106.381}";
type = Stem;
},
{
horizontal = 1;
place = "{-69.619, 70.381}";
type = Stem;
},
{
horizontal = 1;
place = "{46.381, 64.381}";
type = Stem;
},
{
horizontal = 1;
place = "{220.381, 63.381}";
type = Stem;
},
{
horizontal = 1;
place = "{491.381, 69.381}";
type = Stem;
}
);
layerId = "BAF31694-0472-4296-B0EA-1654553C45D2";
paths = (
{
closed = 1;
nodes = (
"130.618 140 LINE",
"544.618 140 LINE",
"573.66 286 LINE",
"234.66 286 LINE"
);
},
{
closed = 1;
nodes = (
"969.968 554 LINE",
"999.009 700 LINE",
"454.009 700 LINE",
"-44.229 0 LINE",
"145.771 0 LINE",
"544.952 569 LINE",
"431.771 0 LINE",
"859.771 0 LINE",
"888.812 146 LINE",
"634.812 146 LINE",
"662.859 287 LINE",
"814.859 287 LINE",
"841.911 423 LINE",
"689.911 423 LINE",
"715.968 554 LINE"
);
}
);
width = 944.49519;
},
{
hints = (
{
place = "{480.381, -5.619}";
type = Stem;
},
{
horizontal = 1;
place = "{187.381, -20}";
target = down;
type = TopGhost;
},
{
horizontal = 1;
place = "{-69.619, 21}";
target = up;
type = BottomGhost;
}
);
layerId = "9F107B1E-3A61-4335-981B-27DD48125C7E";
paths = (
{
closed = 1;
nodes = (
"132.371 184 LINE",
"482.371 184 LINE",
"496.294 254 LINE",
"179.294 254 LINE"
);
},
{
closed = 1;
nodes = (
"904.085 630 LINE",
"918.009 700 LINE",
"500.009 700 LINE",
"-40.229 0 LINE",
"46.771 0 LINE",
"536.279 636 LINE",
"409.771 0 LINE",
"778.771 0 LINE",
"792.695 70 LINE",
"503.695 70 LINE",
"553.622 321 LINE",
"751.622 321 LINE",
"765.545 391 LINE",
"567.545 391 LINE",
"615.085 630 LINE"
);
}
);
width = 903.49891;
}
);
leftMetricsKey = A;
rightMetricsKey = E;
unicode = 00C6;
},
{
glyphname = AEacute;
lastChange = "2021-08-30 20:28:10 +0000";
layers = (
{
guideLines = (
{
position = "{44.61, 753.04}";
}
);
hints = (
{
place = "{373.659, 19.659}";
type = Stem;
},
{
horizontal = 1;
place = "{-94.341, -5.341}";
type = Stem;
},
{
horizontal = 1;
place = "{48.659, -5.341}";
type = Stem;
},
{
horizontal = 1;
place = "{215.659, -6.341}";
type = Stem;
},
{
horizontal = 1;
place = "{516.659, -5.341}";
type = Stem;
}
);
layerId = "0CF0EA28-C756-4A9E-9D7C-CFEF350B4CFE";
paths = (
{
closed = 1;
nodes = (
"131.982 172 LINE",
"503.982 172 LINE",
"522.879 267 LINE",
"199.879 267 LINE"
);
},
{
closed = 1;
nodes = (
"920.111 605 LINE",
"939.008 700 LINE",
"480.008 700 LINE",
"-41.231 0 LINE",
"80.769 0 LINE",
"540.294 621 LINE",
"416.769 0 LINE",
"799.769 0 LINE",
"818.666 95 LINE",
"549.666 95 LINE",
"591.637 306 LINE",
"770.637 306 LINE",
"789.533 401 LINE",
"610.533 401 LINE",
"651.111 605 LINE"
);
},
{
closed = 1;
nodes = (
"498.464 826.718 LINE",
"481.638 742.13 LINE",
"724.271 850.886 LINE",
"743.701 948.565 LINE"
);
}
);
width = 914.5;
},
{
hints = (
{
place = "{357.611, -68.389}";
type = Stem;
},
{
horizontal = 1;
place = "{595.611, -20}";
target = down;
type = TopGhost;
},
{
horizontal = 1;
place = "{-89.389, 21}";
target = up;
type = BottomGhost;
}
);
layerId = "6E968933-CD79-43C6-9231-80D77C940F4D";
paths = (
{
closed = 1;
nodes = (
"148.542 210 LINE",
"444.542 210 LINE",
"448.52 230 LINE",
"159.52 230 LINE"
);
},
{
closed = 1;
nodes = (
"875.031 680 LINE",
"879.009 700 LINE",
"532.009 700 LINE",
"-39.229 0 LINE",
"-13.229 0 LINE",
"526.451 662 LINE",
"394.771 0 LINE",
"739.771 0 LINE",
"743.749 20 LINE",
"420.749 20 LINE",
"486.39 350 LINE",
"719.39 350 LINE",
"723.368 370 LINE",
"490.368 370 LINE",
"552.031 680 LINE"
);
},
{
closed = 1;
nodes = (
"533.047 765.546 LINE",
"528.894 744.665 LINE",
"741.605 873.924 LINE",
"746.549 898.782 LINE"
);
}
);
width = 874.50043;
},
{
hints = (
{
place = "{386.501, 79.501}";
type = Stem;
},
{
horizontal = 1;
place = "{-96.499, 43.501}";
type = Stem;
},
{
horizontal = 1;
place = "{19.501, 37.501}";
type = Stem;
},
{
horizontal = 1;
place = "{193.501, 36.501}";
type = Stem;
},
{
horizontal = 1;
place = "{464.501, 42.501}";
type = Stem;
}
);
layerId = "BAF31694-0472-4296-B0EA-1654553C45D2";
paths = (
{
closed = 1;
nodes = (
"130.618 140 LINE",
"544.618 140 LINE",
"573.66 286 LINE",
"234.66 286 LINE"
);
},
{
closed = 1;
nodes = (
"969.968 554 LINE",
"999.009 700 LINE",
"454.009 700 LINE",
"-44.229 0 LINE",
"145.771 0 LINE",
"544.952 569 LINE",
"431.771 0 LINE",
"859.771 0 LINE",
"888.812 146 LINE",
"634.812 146 LINE",
"662.859 287 LINE",
"814.859 287 LINE",
"841.911 423 LINE",
"689.911 423 LINE",
"715.968 554 LINE"
);
},
{
closed = 1;
nodes = (
"480.972 856.919 LINE",
"457.041 736.608 LINE",
"719.621 835.044 LINE",
"746.519 970.269 LINE"
);
}
);
width = 944.49519;
},
{
hints = (
{
place = "{457.436, -28.564}";
type = Stem;
},
{
horizontal = 1;
place = "{164.436, -20}";
target = down;
type = TopGhost;
},
{
horizontal = 1;
place = "{-92.564, 21}";
target = up;
type = BottomGhost;
}
);
layerId = "9F107B1E-3A61-4335-981B-27DD48125C7E";
paths = (
{
closed = 1;
nodes = (
"132.376 184 LINE",
"482.376 184 LINE",
"496.299 254 LINE",
"179.299 254 LINE"
);
},
{
closed = 1;
nodes = (
"904.09 630 LINE",
"918.014 700 LINE",
"500.014 700 LINE",
"-40.224 0 LINE",
"46.776 0 LINE",
"536.284 636 LINE",
"409.776 0 LINE",
"778.776 0 LINE",
"792.699 70 LINE",
"503.699 70 LINE",
"553.627 321 LINE",
"751.627 321 LINE",
"765.55 391 LINE",
"567.55 391 LINE",
"615.09 630 LINE"
);
},
{
closed = 1;
nodes = (
"512.486 805.43 LINE",
"500.525 745.298 LINE",
"731.45 860.551 LINE",
"745.404 930.705 LINE"
);
}
);
width = 903.50891;
}
);
leftMetricsKey = A;
rightMetricsKey = E;
unicode = 01FC;
},
{
glyphname = B;
lastChange = "2021-08-30 20:28:08 +0000";
layers = (
{
hints = (
{
place = "{15.381, 44.381}";
type = Stem;
},
{
place = "{429.381, 46.381}";
type = Stem;
},
{
place = "{447.381, 44.381}";
type = Stem;
},
{
horizontal = 1;
place = "{-69.619, 23.381}";
type = Stem;
},
{
horizontal = 1;
place = "{238.381, 23.381}";
type = Stem;
},
{
horizontal = 1;
place = "{537.381, 23.381}";
type = Stem;
}
);
layerId = "0CF0EA28-C756-4A9E-9D7C-CFEF350B4CFE";
paths = (
{
closed = 1;
nodes = (
"536.593 439 OFFCURVE",
"484.233 402 OFFCURVE",
"410.233 402 CURVE SMOOTH",
"229.233 402 LINE",
"269.613 605 LINE",
"450.613 605 LINE SMOOTH",
"524.613 605 OFFCURVE",
"562.054 567 OFFCURVE",
"549.324 503 CURVE SMOOTH"
);
},
{
closed = 1;
nodes = (
"641.342 302 OFFCURVE",
"580.89 350 OFFCURVE",
"481.885 355 CURVE",
"482.083 356 LINE",
"568.272 367 OFFCURVE",
"646.62 414 OFFCURVE",
"667.108 517 CURVE SMOOTH",
"686.801 616 OFFCURVE",
"626.509 700 OFFCURVE",
"479.509 700 CURVE SMOOTH",
"174.509 700 LINE",
"35.271 0 LINE",
"353.271 0 LINE SMOOTH",
"495.271 0 OFFCURVE",
"597.184 80 OFFCURVE",
"618.467 187 CURVE SMOOTH"
);
},
{
closed = 1;
nodes = (
"493.328 131 OFFCURVE",
"439.167 95 OFFCURVE",
"362.167 95 CURVE SMOOTH",
"168.167 95 LINE",
"210.337 307 LINE",
"400.337 307 LINE SMOOTH",
"476.337 307 OFFCURVE",
"520.778 269 OFFCURVE",
"506.854 199 CURVE SMOOTH"
);
},
{
closed = 1;
nodes = (
"424.707 334 LINE",
"503.707 334 LINE",
"514.449 388 LINE",
"435.449 388 LINE"
);
}
);
width = 687.0992;
},
{
background = {
hints = (
{
horizontal = 1;
place = "{0, 48}";
type = Stem;
},
{
horizontal = 1;
place = "{329, 48}";
type = Stem;
},
{
horizontal = 1;
place = "{652, 48}";
type = Stem;
},
{
place = "{104, 52}";
type = Stem;
},
{
place = "{606, 53}";
type = Stem;
},
{
place = "{567, 53}";
type = Stem;
}
);
paths = (
{
closed = 1;
nodes = (
"687.89 193 LINE SMOOTH",
"687.89 290 OFFCURVE",
"613.89 338 OFFCURVE",
"529.89 360 CURVE",
"586.89 383 OFFCURVE",
"648.89 431 OFFCURVE",
"648.89 526 CURVE SMOOTH",
"648.89 528 LINE SMOOTH",
"648.89 633 OFFCURVE",
"557.89 700 OFFCURVE",
"421.89 700 CURVE SMOOTH",
"132.89 700 LINE",
"132.89 0 LINE",
"436.89 0 LINE SMOOTH",
"587.89 0 OFFCURVE",
"687.89 74 OFFCURVE",
"687.89 191 CURVE SMOOTH"
);
},
{
closed = 1;
nodes = (
"595.89 521 LINE SMOOTH",
"595.89 428 OFFCURVE",
"520.89 377 OFFCURVE",
"415.89 377 CURVE SMOOTH",
"184.89 377 LINE",
"184.89 652 LINE",
"420.89 652 LINE SMOOTH",
"532.89 652 OFFCURVE",
"595.89 600 OFFCURVE",
"595.89 523 CURVE SMOOTH"
);
},
{
closed = 1;
nodes = (
"634.89 191 LINE SMOOTH",
"634.89 103 OFFCURVE",
"558.89 48 OFFCURVE",
"438.89 48 CURVE SMOOTH",
"184.89 48 LINE",
"184.89 329 LINE",
"421.89 329 LINE SMOOTH",
"559.89 329 OFFCURVE",
"634.89 279 OFFCURVE",
"634.89 193 CURVE SMOOTH"
);
}
);
};
hints = (
{
place = "{33.381, -47.619}";
type = Stem;
},
{
place = "{469.381, -47.619}";
type = Stem;
},
{
place = "{491.381, -47.619}";
type = Stem;
},
{
horizontal = 1;
place = "{615.381, -20}";
target = down;
type = TopGhost;
},
{
horizontal = 1;
place = "{-69.619, 21}";
target = up;
type = BottomGhost;
}
);
layerId = "6E968933-CD79-43C6-9231-80D77C940F4D";
paths = (
{
closed = 1;
nodes = (
"579.201 432 OFFCURVE",
"504.868 370 OFFCURVE",
"386.868 370 CURVE SMOOTH",
"150.868 370 LINE",
"212.531 680 LINE",
"442.531 680 LINE SMOOTH",
"573.531 680 OFFCURVE",
"615.005 612 OFFCURVE",
"597.7 525 CURVE"
);
},
{
closed = 1;
nodes = (
"588.955 290 OFFCURVE",
"518.879 360 OFFCURVE",
"421.879 360 CURVE",
"413.481 358 LINE",
"495.68 359 OFFCURVE",
"596.029 406 OFFCURVE",
"619.899 526 CURVE",
"638.795 621 OFFCURVE",
"594.509 700 OFFCURVE",
"447.509 700 CURVE SMOOTH",
"194.509 700 LINE",
"55.271 0 LINE",
"308.271 0 LINE SMOOTH",
"460.271 0 OFFCURVE",
"547.581 82 OFFCURVE",
"568.069 185 CURVE SMOOTH"
);
},
{
closed = 1;
nodes = (
"525.78 83 OFFCURVE",
"439.249 20 OFFCURVE",
"312.249 20 CURVE SMOOTH",
"81.249 20 LINE",
"146.89 350 LINE",
"375.89 350 LINE SMOOTH",
"502.89 350 OFFCURVE",
"566.16 286 OFFCURVE",
"546.069 185 CURVE SMOOTH"
);
},
{
closed = 1;
nodes = (
"363.686 354 LINE",
"452.686 354 LINE",
"455.272 367 LINE",
"366.272 367 LINE"
);
}
);
width = 650.29806;
},
{
hints = (
{
place = "{-16.619, 106.381}";
type = Stem;
},
{
place = "{393.381, 109.381}";
type = Stem;
},
{
place = "{410.381, 109.381}";
type = Stem;
},
{
horizontal = 1;
place = "{-69.619, 72.381}";
type = Stem;
},
{
horizontal = 1;
place = "{220.381, 63.381}";
type = Stem;
},
{
horizontal = 1;
place = "{489.381, 71.381}";
type = Stem;
}
);
layerId = "BAF31694-0472-4296-B0EA-1654553C45D2";
paths = (
{
closed = 1;
nodes = (
"504.588 444 OFFCURVE",
"467.61 424 OFFCURVE",
"413.61 424 CURVE SMOOTH",
"263.61 424 LINE",
"289.468 554 LINE",
"441.468 554 LINE SMOOTH",
"495.468 554 OFFCURVE",
"522.689 535 OFFCURVE",
"513.539 489 CURVE SMOOTH"
);
},
{
closed = 1;
nodes = (
"666.552 293 OFFCURVE",
"614.288 352 OFFCURVE",
"501.282 357 CURVE",
"499.078 361 LINE",
"596.073 366 OFFCURVE",
"674.223 412 OFFCURVE",
"694.711 515 CURVE SMOOTH",
"716.989 627 OFFCURVE",
"648.509 700 OFFCURVE",
"505.509 700 CURVE SMOOTH",
"144.509 700 LINE",
"5.271 0 LINE",
"377.271 0 LINE SMOOTH",
"526.271 0 OFFCURVE",
"623.388 76 OFFCURVE",
"646.462 192 CURVE SMOOTH"
);
},
{
closed = 1;
nodes = (
"467.086 170 OFFCURVE",
"430.312 146 OFFCURVE",
"374.312 146 CURVE SMOOTH",
"208.312 146 LINE",
"236.557 288 LINE",
"400.557 288 LINE SMOOTH",
"456.557 288 OFFCURVE",
"485.982 265 OFFCURVE",
"476.435 217 CURVE SMOOTH"
);
},
{
closed = 1;
nodes = (
"445.31 332 LINE",
"519.31 332 LINE",
"530.25 387 LINE",
"456.25 387 LINE"
);
}
);
width = 694.30034;
},
{
hints = (
{
place = "{-30.619, -3.619}";
type = Stem;
},
{
place = "{325.381, -3.619}";
type = Stem;
},
{
place = "{520.381, -3.619}";
type = Stem;
},
{
horizontal = 1;
place = "{187.381, -20}";
target = down;
type = TopGhost;
},
{
horizontal = 1;
place = "{-69.619, 21}";
target = up;
type = BottomGhost;
}
);
layerId = "9F107B1E-3A61-4335-981B-27DD48125C7E";
paths = (
{
closed = 1;
nodes = (
"554.996 436 OFFCURVE",
"494.045 391 OFFCURVE",
"404.045 391 CURVE SMOOTH",
"203.045 391 LINE",
"250.585 630 LINE",
"448.585 630 LINE SMOOTH",
"544.585 630 OFFCURVE",
"584.237 583 OFFCURVE",
"569.716 510 CURVE"
);
},
{
closed = 1;
nodes = (
"623.745 299 OFFCURVE",
"559.686 354 OFFCURVE",
"461.282 357 CURVE",
"458.282 357 LINE",
"542.675 364 OFFCURVE",
"628.825 410 OFFCURVE",
"650.705 520 CURVE",
"670 617 OFFCURVE",
"616.509 700 OFFCURVE",
"469.509 700 CURVE SMOOTH",
"184.509 700 LINE",
"45.271 0 LINE",
"338.271 0 LINE SMOOTH",
"484.271 0 OFFCURVE",
"580.78 83 OFFCURVE",
"601.666 188 CURVE SMOOTH"
);
},
{
closed = 1;
nodes = (
"508.146 115 OFFCURVE",
"442.195 70 OFFCURVE",
"346.195 70 CURVE SMOOTH",
"139.195 70 LINE",
"189.122 321 LINE",
"393.122 321 LINE SMOOTH",
"488.122 321 OFFCURVE",
"540.369 277 OFFCURVE",
"524.257 196 CURVE SMOOTH"
);
},
{
closed = 1;
nodes = (
"404.299 342 LINE",
"486.299 342 LINE",
"493.857 380 LINE",
"411.857 380 LINE"
);
}
);
width = 676.69667;
}
);
leftMetricsKey = H;
rightMetricsKey = "=H*0.66";
unicode = 0042;
},
{
glyphname = C;
lastChange = "2021-08-30 20:28:08 +0000";
layers = (
{
anchors = (
{
name = bottom;
position = "{341.771, 0}";
},
{
name = top;
position = "{490.8, 709}";
}
);
hints = (
{
place = "{-27.619, 47.381}";
type = Stem;
},
{
horizontal = 1;
place = "{-75.619, 30.381}";
type = Stem;
},
{
horizontal = 1;
place = "{538.381, 31.381}";
type = Stem;
}
);
layerId = "0CF0EA28-C756-4A9E-9D7C-CFEF350B4CFE";
paths = (
{
closed = 1;
nodes = (
"20.817 141 OFFCURVE",
"150.378 -7 OFFCURVE",
"346.378 -7 CURVE SMOOTH",
"486.378 -7 OFFCURVE",
"619.308 58 OFFCURVE",
"709.951 202 CURVE",
"624.117 233 LINE",
"550.436 124 OFFCURVE",
"448.673 90 OFFCURVE",
"368.673 90 CURVE SMOOTH",
"230.673 90 OFFCURVE",
"147.161 193 OFFCURVE",
"178.39 350 CURVE SMOOTH",
"209.818 508 OFFCURVE",
"334.107 610 OFFCURVE",
"472.107 610 CURVE SMOOTH",
"550.107 610 OFFCURVE",
"636.145 575 OFFCURVE",
"665.442 486 CURVE",
"764.006 519 LINE",
"730.273 641 OFFCURVE",
"624.402 707 OFFCURVE",
"488.402 707 CURVE SMOOTH",
"292.402 707 OFFCURVE",
"104.162 560 OFFCURVE",
"62.39 350 CURVE SMOOTH"
);
}
);
width = 776.16661;
},
{
anchors = (
{
name = bottom;
position = "{353.771, 0}";
},
{
name = top;
position = "{471.009, 700}";
}
);
background = {
hints = (
{
horizontal = 1;
place = "{-12, 47}";
type = Stem;
},
{
horizontal = 1;
place = "{665, 47}";
type = Stem;
},
{
place = "{73, 54}";
type = Stem;
}
);
paths = (
{
closed = 1;
nodes = (
"688.39 144 LINE",
"617.39 74 OFFCURVE",
"548.39 35 OFFCURVE",
"447.39 35 CURVE SMOOTH",
"280.39 35 OFFCURVE",
"151.39 173 OFFCURVE",
"151.39 350 CURVE SMOOTH",
"151.39 352 LINE SMOOTH",
"151.39 528 OFFCURVE",
"278.39 665 OFFCURVE",
"446.39 665 CURVE SMOOTH",
"551.39 665 OFFCURVE",
"621.39 621 OFFCURVE",
"682.39 562 CURVE",
"719.39 600 LINE",
"647.39 666 OFFCURVE",
"572.39 712 OFFCURVE",
"447.39 712 CURVE SMOOTH",
"245.39 712 OFFCURVE",
"97.39 548 OFFCURVE",
"97.39 350 CURVE SMOOTH",
"97.39 348 LINE SMOOTH",
"97.39 147 OFFCURVE",
"245.39 -12 OFFCURVE",
"445.39 -12 CURVE SMOOTH",
"569.39 -12 OFFCURVE",
"649.39 37 OFFCURVE",
"723.39 110 CURVE"
);
}
);
};
hints = (
{
place = "{-5.619, -46.619}";
type = Stem;
},
{
horizontal = 1;
place = "{-76.619, 21}";
target = up;
type = BottomGhost;
},
{
horizontal = 1;
place = "{622.381, -20}";
target = down;
type = TopGhost;
}
);
layerId = "6E968933-CD79-43C6-9231-80D77C940F4D";
paths = (
{
closed = 1;
nodes = (
"30.817 141 OFFCURVE",
"139.378 -7 OFFCURVE",
"330.378 -7 CURVE SMOOTH",
"496.378 -7 OFFCURVE",
"616.689 75 OFFCURVE",
"690.752 201 CURVE",
"674.144 208 LINE",
"611.065 97 OFFCURVE",
"489.959 11 OFFCURVE",
"334.357 13 CURVE",
"165.357 13 OFFCURVE",
"52.817 141 OFFCURVE",
"94.39 350 CURVE SMOOTH",
"136.361 561 OFFCURVE",
"299.423 687 OFFCURVE",
"468.423 687 CURVE SMOOTH",
"622.423 687 OFFCURVE",
"706.908 609 OFFCURVE",
"728.426 501 CURVE",
"747.818 508 LINE",
"721.887 629 OFFCURVE",
"634.402 707 OFFCURVE",
"472.402 707 CURVE SMOOTH",
"281.402 707 OFFCURVE",
"114.361 561 OFFCURVE",
"72.39 350 CURVE SMOOTH"
);
}
);
width = 770.49774;
},
{
anchors = (
{
name = bottom;
position = "{325.97, 1}";
},
{
name = top;
position = "{471.004, 705}";
}
);
hints = (
{
place = "{-43.619, 109.381}";
type = Stem;
},
{
horizontal = 1;
place = "{-74.619, 89.381}";
type = Stem;
},
{
horizontal = 1;
place = "{478.381, 89.381}";
type = Stem;
}
);
layerId = "BAF31694-0472-4296-B0EA-1654553C45D2";
paths = (
{
closed = 1;
nodes = (
"5.419 139 OFFCURVE",
"120.378 -7 OFFCURVE",
"328.378 -7 CURVE SMOOTH",
"490.378 -7 OFFCURVE",
"625.286 78 OFFCURVE",
"702.123 228 CURVE",
"561.09 258 LINE",
"506.785 171 OFFCURVE",
"436.419 139 OFFCURVE",
"357.419 139 CURVE SMOOTH",
"246.419 139 OFFCURVE",
"197.123 228 OFFCURVE",
"221.39 350 CURVE SMOOTH",
"245.259 470 OFFCURVE",
"330.361 561 OFFCURVE",
"441.361 561 CURVE SMOOTH",
"519.361 561 OFFCURVE",
"570.995 529 OFFCURVE",
"591.276 455 CURVE",
"748.84 488 LINE",
"728.892 624 OFFCURVE",
"628.402 707 OFFCURVE",
"470.402 707 CURVE SMOOTH",
"262.402 707 OFFCURVE",
"88.963 559 OFFCURVE",
"47.39 350 CURVE SMOOTH"
);
}
);
width = 743.16209;
},
{
anchors = (
{
name = bottom;
position = "{347.771, 0}";
},
{
name = top;
position = "{485.203, 706}";
}
);
hints = (
{
place = "{334.381, 2.381}";
type = Stem;
},
{
horizontal = 1;
place = "{-72.619, 21}";
target = up;
type = BottomGhost;
},
{
horizontal = 1;
place = "{190.381, -20}";
target = down;
type = TopGhost;
}
);
layerId = "9F107B1E-3A61-4335-981B-27DD48125C7E";
paths = (
{
closed = 1;
nodes = (
"25.817 141 OFFCURVE",
"147.378 -7 OFFCURVE",
"342.378 -7 CURVE SMOOTH",
"491.378 -7 OFFCURVE",
"619.501 64 OFFCURVE",
"703.752 201 CURVE",
"643.526 225 LINE",
"573.845 116 OFFCURVE",
"464.501 64 OFFCURVE",
"356.7 65 CURVE",
"206.7 65 OFFCURVE",
"114.183 173 OFFCURVE",
"149.39 350 CURVE SMOOTH",
"184.796 528 OFFCURVE",
"320.08 635 OFFCURVE",
"470.08 635 CURVE SMOOTH",
"576.08 635 OFFCURVE",
"663.731 588 OFFCURVE",
"689.437 491 CURVE",
"759.211 515 LINE",
"728.478 637 OFFCURVE",
"629.402 707 OFFCURVE",
"484.402 707 CURVE SMOOTH",
"289.402 707 OFFCURVE",
"109.361 561 OFFCURVE",
"67.39 350 CURVE SMOOTH"
);
}
);
width = 776.83478;
}
);
leftMetricsKey = O;
rightMetricsKey = "=O*1.3333";
unicode = 0043;
},
{
glyphname = Cacute;
lastChange = "2021-08-30 20:28:08 +0000";
layers = (
{
anchors = (
{
name = bottom;
position = "{341.775, 0}";
},
{
name = top;
position = "{490.803, 709}";
}
);
hints = (
{
place = "{-52.255, 22.745}";
type = Stem;
},
{
horizontal = 1;
place = "{-100.255, 5.745}";
type = Stem;
},
{
horizontal = 1;
place = "{513.745, 6.745}";
type = Stem;
}
);
layerId = "0CF0EA28-C756-4A9E-9D7C-CFEF350B4CFE";
paths = (
{
closed = 1;
nodes = (
"20.821 141 OFFCURVE",
"150.382 -7 OFFCURVE",
"346.382 -7 CURVE SMOOTH",
"486.382 -7 OFFCURVE",
"619.311 58 OFFCURVE",
"709.955 202 CURVE",
"624.121 233 LINE",
"550.44 124 OFFCURVE",
"448.677 90 OFFCURVE",
"368.677 90 CURVE SMOOTH",
"230.677 90 OFFCURVE",
"147.165 193 OFFCURVE",
"178.394 350 CURVE SMOOTH",
"209.822 508 OFFCURVE",
"334.111 610 OFFCURVE",
"472.111 610 CURVE SMOOTH",
"550.111 610 OFFCURVE",
"636.149 575 OFFCURVE",
"665.446 486 CURVE",
"764.01 519 LINE",
"730.277 641 OFFCURVE",
"624.406 707 OFFCURVE",
"488.406 707 CURVE SMOOTH",
"292.406 707 OFFCURVE",
"104.166 560 OFFCURVE",
"62.394 350 CURVE SMOOTH"
);
},
{
closed = 1;
nodes = (
"397.441 832.861 LINE",
"380.615 748.273 LINE",
"623.248 857.029 LINE",
"642.678 954.708 LINE"
);
}
);
width = 776.17;
},
{
anchors = (
{
name = bottom;
position = "{353.777, 0}";
},
{
name = top;
position = "{471.015, 700}";
}
);
hints = (
{
place = "{-24.693, -65.693}";
type = Stem;
},
{
horizontal = 1;
place = "{-95.693, 21}";
target = up;
type = BottomGhost;
},
{
horizontal = 1;
place = "{603.307, -20}";
target = down;
type = TopGhost;
}
);
layerId = "6E968933-CD79-43C6-9231-80D77C940F4D";
paths = (
{
closed = 1;
nodes = (
"30.823 141 OFFCURVE",
"139.384 -7 OFFCURVE",
"330.384 -7 CURVE SMOOTH",
"496.384 -7 OFFCURVE",
"616.695 75 OFFCURVE",
"690.758 201 CURVE",
"674.151 208 LINE",
"611.071 97 OFFCURVE",
"489.965 11 OFFCURVE",
"334.363 13 CURVE",
"165.363 13 OFFCURVE",
"52.823 141 OFFCURVE",
"94.396 350 CURVE SMOOTH",
"136.367 561 OFFCURVE",
"299.43 687 OFFCURVE",
"468.43 687 CURVE SMOOTH",
"622.43 687 OFFCURVE",
"706.914 609 OFFCURVE",
"728.432 501 CURVE",
"747.824 508 LINE",
"721.893 629 OFFCURVE",
"634.408 707 OFFCURVE",
"472.408 707 CURVE SMOOTH",
"281.408 707 OFFCURVE",
"114.367 561 OFFCURVE",
"72.396 350 CURVE SMOOTH"
);
},
{
closed = 1;
nodes = (
"378.053 765.546 LINE",
"373.9 744.665 LINE",
"586.611 873.924 LINE",
"591.556 898.782 LINE"
);
}
);
width = 770.50021;
},
{
anchors = (
{
name = bottom;
position = "{325.969, 1}";
},
{
name = top;
position = "{471.003, 705}";
}
);
hints = (
{
place = "{-70.3, 82.7}";
type = Stem;
},
{
horizontal = 1;
place = "{-101.3, 62.7}";
type = Stem;
},
{
horizontal = 1;
place = "{451.7, 62.7}";
type = Stem;
}
);
layerId = "BAF31694-0472-4296-B0EA-1654553C45D2";
paths = (
{
closed = 1;
nodes = (
"5.418 139 OFFCURVE",
"120.377 -7 OFFCURVE",
"328.377 -7 CURVE SMOOTH",
"490.377 -7 OFFCURVE",
"625.285 78 OFFCURVE",
"702.122 228 CURVE",
"561.089 258 LINE",
"506.784 171 OFFCURVE",
"436.418 139 OFFCURVE",
"357.418 139 CURVE SMOOTH",
"246.418 139 OFFCURVE",
"197.122 228 OFFCURVE",
"221.389 350 CURVE SMOOTH",
"245.258 470 OFFCURVE",
"330.359 561 OFFCURVE",
"441.359 561 CURVE SMOOTH",
"519.359 561 OFFCURVE",
"570.994 529 OFFCURVE",
"591.275 455 CURVE",
"748.839 488 LINE",
"728.891 624 OFFCURVE",
"628.401 707 OFFCURVE",
"470.401 707 CURVE SMOOTH",
"262.401 707 OFFCURVE",
"88.962 559 OFFCURVE",
"47.389 350 CURVE SMOOTH"
);
},
{
closed = 1;
nodes = (
"375.966 861.919 LINE",
"352.035 741.608 LINE",
"614.615 840.044 LINE",
"641.513 975.269 LINE"
);
}
);
width = 743.15811;
},
{
anchors = (
{
name = bottom;
position = "{347.773, 0}";
},
{
name = top;
position = "{485.206, 706}";
}
);
hints = (
{
place = "{311.833, -20.167}";
type = Stem;
},
{
horizontal = 1;
place = "{-95.167, 21}";
target = up;
type = BottomGhost;
},
{
horizontal = 1;
place = "{167.833, -20}";
target = down;
type = TopGhost;
}
);
layerId = "9F107B1E-3A61-4335-981B-27DD48125C7E";
paths = (
{
closed = 1;
nodes = (
"25.82 141 OFFCURVE",
"147.381 -7 OFFCURVE",
"342.381 -7 CURVE SMOOTH",
"491.381 -7 OFFCURVE",
"619.504 64 OFFCURVE",
"703.755 201 CURVE",
"643.529 225 LINE",
"573.847 116 OFFCURVE",
"464.504 64 OFFCURVE",
"356.703 65 CURVE",
"206.703 65 OFFCURVE",
"114.185 173 OFFCURVE",
"149.393 350 CURVE SMOOTH",
"184.799 528 OFFCURVE",
"320.083 635 OFFCURVE",
"470.083 635 CURVE SMOOTH",
"576.083 635 OFFCURVE",
"663.734 588 OFFCURVE",
"689.439 491 CURVE",
"759.213 515 LINE",
"728.481 637 OFFCURVE",
"629.405 707 OFFCURVE",
"484.405 707 CURVE SMOOTH",
"289.405 707 OFFCURVE",
"109.363 561 OFFCURVE",
"67.393 350 CURVE SMOOTH"
);
},
{
closed = 1;
nodes = (
"392.08 808.43 LINE",
"380.119 748.298 LINE",
"611.044 863.551 LINE",
"624.999 933.705 LINE"
);
}
);
width = 776.84383;
}
);
leftMetricsKey = C;
rightMetricsKey = C;
unicode = 0106;
},
{
glyphname = Ccaron;
lastChange = "2021-08-30 20:28:08 +0000";
layers = (
{
anchors = (
{
name = bottom;
position = "{341.77, 0}";
},
{
name = top;
position = "{490.798, 709}";
}
);
hints = (
{
place = "{-48.95, 26.05}";
type = Stem;
},
{
horizontal = 1;
place = "{-96.95, 9.05}";
type = Stem;
},
{
horizontal = 1;
place = "{517.05, 10.05}";
type = Stem;
}
);
layerId = "0CF0EA28-C756-4A9E-9D7C-CFEF350B4CFE";
paths = (
{
closed = 1;
nodes = (
"20.816 141 OFFCURVE",
"150.377 -7 OFFCURVE",
"346.377 -7 CURVE SMOOTH",
"486.377 -7 OFFCURVE",
"619.307 58 OFFCURVE",
"709.95 202 CURVE",
"624.116 233 LINE",
"550.435 124 OFFCURVE",
"448.672 90 OFFCURVE",
"368.672 90 CURVE SMOOTH",
"230.672 90 OFFCURVE",
"147.16 193 OFFCURVE",
"178.389 350 CURVE SMOOTH",
"209.817 508 OFFCURVE",
"334.106 610 OFFCURVE",
"472.106 610 CURVE SMOOTH",
"550.106 610 OFFCURVE",
"636.144 575 OFFCURVE",
"665.441 486 CURVE",
"764.005 519 LINE",
"730.272 641 OFFCURVE",
"624.401 707 OFFCURVE",
"488.401 707 CURVE SMOOTH",
"292.401 707 OFFCURVE",
"104.161 560 OFFCURVE",
"62.389 350 CURVE SMOOTH"
);
},
{
closed = 1;
nodes = (
"515.837 834.875 LINE",
"390.063 921.477 LINE",
"372.236 831.854 LINE",
"498.61 748.273 LINE",
"658.236 831.854 LINE",
"676.063 921.477 LINE"
);
}
);
width = 776.17;
},
{
anchors = (
{
name = bottom;
position = "{353.773, 0}";
},
{
name = top;
position = "{471.012, 700}";
}
);
hints = (
{
place = "{-22.617, -63.617}";
type = Stem;
},
{
horizontal = 1;
place = "{-93.617, 21}";
target = up;
type = BottomGhost;
},
{
horizontal = 1;
place = "{605.383, -20}";
target = down;
type = TopGhost;
}
);
layerId = "6E968933-CD79-43C6-9231-80D77C940F4D";
paths = (
{
closed = 1;
nodes = (
"30.82 141 OFFCURVE",
"139.381 -7 OFFCURVE",
"330.381 -7 CURVE SMOOTH",
"496.381 -7 OFFCURVE",
"616.692 75 OFFCURVE",
"690.755 201 CURVE",
"674.147 208 LINE",
"611.068 97 OFFCURVE",
"489.961 11 OFFCURVE",
"334.359 13 CURVE",
"165.359 13 OFFCURVE",
"52.82 141 OFFCURVE",
"94.393 350 CURVE SMOOTH",
"136.363 561 OFFCURVE",
"299.426 687 OFFCURVE",
"468.426 687 CURVE SMOOTH",
"622.426 687 OFFCURVE",
"706.911 609 OFFCURVE",
"728.429 501 CURVE",
"747.821 508 LINE",
"721.889 629 OFFCURVE",
"634.404 707 OFFCURVE",
"472.404 707 CURVE SMOOTH",
"281.404 707 OFFCURVE",
"114.363 561 OFFCURVE",
"72.393 350 CURVE SMOOTH"
);
},
{
closed = 1;
nodes = (
"491.379 797.363 LINE",
"383.399 877.902 LINE",
"379.048 856.027 LINE",
"487.028 775.489 LINE",
"627.048 856.027 LINE",
"631.399 877.902 LINE"
);
}
);
width = 770.50021;
},
{
anchors = (
{
name = bottom;
position = "{325.971, 1}";
},
{
name = top;
position = "{471.005, 705}";
}
);
hints = (
{
place = "{-66.938, 86.062}";
type = Stem;
},
{
horizontal = 1;
place = "{-97.938, 66.062}";
type = Stem;
},
{
horizontal = 1;
place = "{455.062, 66.062}";
type = Stem;
}
);
layerId = "BAF31694-0472-4296-B0EA-1654553C45D2";
paths = (
{
closed = 1;
nodes = (
"5.421 139 OFFCURVE",
"120.38 -7 OFFCURVE",
"328.38 -7 CURVE SMOOTH",
"490.38 -7 OFFCURVE",
"625.287 78 OFFCURVE",
"702.124 228 CURVE",
"561.091 258 LINE",
"506.786 171 OFFCURVE",
"436.421 139 OFFCURVE",
"357.421 139 CURVE SMOOTH",
"246.421 139 OFFCURVE",
"197.124 228 OFFCURVE",
"221.391 350 CURVE SMOOTH",
"245.261 470 OFFCURVE",
"330.362 561 OFFCURVE",
"441.362 561 CURVE SMOOTH",
"519.362 561 OFFCURVE",
"570.997 529 OFFCURVE",
"591.277 455 CURVE",
"748.841 488 LINE",
"728.893 624 OFFCURVE",
"628.403 707 OFFCURVE",
"470.403 707 CURVE SMOOTH",
"262.403 707 OFFCURVE",
"88.964 559 OFFCURVE",
"47.391 350 CURVE SMOOTH"
);
},
{
closed = 1;
nodes = (
"499.584 854.959 LINE",
"360.79 941.463 LINE",
"336.859 821.152 LINE",
"477.433 743.597 LINE",
"648.859 821.152 LINE",
"672.79 941.463 LINE"
);
}
);
width = 743.15811;
},
{
anchors = (
{
name = bottom;
position = "{347.774, 0}";
},
{
name = top;
position = "{485.206, 706}";
}
);
hints = (
{
place = "{314.724, -17.276}";
type = Stem;
},
{
horizontal = 1;
place = "{-92.276, 21}";
target = up;
type = BottomGhost;
},
{
horizontal = 1;
place = "{170.724, -20}";
target = down;
type = TopGhost;
}
);
layerId = "9F107B1E-3A61-4335-981B-27DD48125C7E";
paths = (
{
closed = 1;
nodes = (
"25.821 141 OFFCURVE",
"147.382 -7 OFFCURVE",
"342.382 -7 CURVE SMOOTH",
"491.382 -7 OFFCURVE",
"619.504 64 OFFCURVE",
"703.755 201 CURVE",
"643.529 225 LINE",
"573.848 116 OFFCURVE",
"464.504 64 OFFCURVE",
"356.703 65 CURVE",
"206.703 65 OFFCURVE",
"114.186 173 OFFCURVE",
"149.393 350 CURVE SMOOTH",
"184.8 528 OFFCURVE",
"320.083 635 OFFCURVE",
"470.083 635 CURVE SMOOTH",
"576.083 635 OFFCURVE",
"663.735 588 OFFCURVE",
"689.44 491 CURVE",
"759.214 515 LINE",
"728.481 637 OFFCURVE",
"629.405 707 OFFCURVE",
"484.405 707 CURVE SMOOTH",
"289.405 707 OFFCURVE",
"109.364 561 OFFCURVE",
"67.393 350 CURVE SMOOTH"
);
},
{
closed = 1;
nodes = (
"508.473 820.456 LINE",
"389.218 904.641 LINE",
"376.46 840.5 LINE",
"496.113 758.32 LINE",
"648.46 840.5 LINE",
"661.218 904.641 LINE"
);
}
);
width = 776.84383;
}
);
leftMetricsKey = C;
rightMetricsKey = C;
unicode = 010C;
},
{
glyphname = Ccedilla;
lastChange = "2021-08-30 20:28:08 +0000";
layers = (
{
anchors = (
{
name = bottom;
position = "{341.774, 0}";
},
{
name = top;
position = "{490.803, 709}";
}
);
hints = (
{
place = "{-2.076, 72.924}";
type = Stem;
},
{
horizontal = 1;
place = "{-50.076, 55.924}";
type = Stem;
},
{
horizontal = 1;
place = "{563.924, 56.924}";
type = Stem;
},
{
place = "{312.674, 31.449}";
type = Stem;
},
{
place = "{423.674, 50.582}";
type = Stem;
},
{
horizontal = 1;
place = "{-307.91, 28.428}";
type = Stem;
},
{
horizontal = 1;
place = "{-160.888, 24.4}";
type = Stem;
},
{
horizontal = 1;
place = "{-160.888, 79.785}";
type = Stem;
}
);
layerId = "0CF0EA28-C756-4A9E-9D7C-CFEF350B4CFE";
paths = (
{
closed = 1;
nodes = (
"20.821 141 OFFCURVE",
"150.382 -7 OFFCURVE",
"346.382 -7 CURVE SMOOTH",
"486.382 -7 OFFCURVE",
"619.311 58 OFFCURVE",
"709.955 202 CURVE",
"624.121 233 LINE",
"550.44 124 OFFCURVE",
"448.677 90 OFFCURVE",
"368.677 90 CURVE SMOOTH",
"230.677 90 OFFCURVE",
"147.164 193 OFFCURVE",
"178.394 350 CURVE SMOOTH",
"209.822 508 OFFCURVE",
"334.111 610 OFFCURVE",
"472.111 610 CURVE SMOOTH",
"550.111 610 OFFCURVE",
"636.149 575 OFFCURVE",
"665.446 486 CURVE",
"764.01 519 LINE",
"730.277 641 OFFCURVE",
"624.405 707 OFFCURVE",
"488.405 707 CURVE SMOOTH",
"292.405 707 OFFCURVE",
"104.165 560 OFFCURVE",
"62.394 350 CURVE SMOOTH"
);
},
{
closed = 1;
nodes = (
"384.177 7.049 LINE",
"309.177 7.049 LINE",
"284.539 -116.812 LINE",
"339.539 -116.812 LINE SMOOTH",
"374.539 -116.812 OFFCURVE",
"394.137 -123.861 OFFCURVE",
"388.128 -154.071 CURVE SMOOTH",
"382.119 -184.281 OFFCURVE",
"359.716 -191.33 OFFCURVE",
"324.716 -191.33 CURVE SMOOTH",
"215.716 -191.33 LINE",
"201.295 -263.834 LINE",
"333.295 -263.834 LINE SMOOTH",
"404.295 -263.834 OFFCURVE",
"468.507 -222.547 OFFCURVE",
"482.128 -154.071 CURVE SMOOTH",
"495.949 -84.588 OFFCURVE",
"447.16 -48.336 OFFCURVE",
"373.16 -48.336 CURVE"
);
}
);
width = 776.17;
},
{
anchors = (
{
name = bottom;
position = "{353.772, 0}";
},
{
name = top;
position = "{471.011, 700}";
}
);
background = {
hints = (
{
horizontal = 1;
place = "{-148, 21}";
type = Stem;
},
{
horizontal = 1;
place = "{-12, 47}";
type = Stem;
},
{
horizontal = 1;
place = "{665, 47}";
type = Stem;
},
{
place = "{73, 54}";
type = Stem;
}
);
paths = (
{
closed = 1;
nodes = (
"309.97 -122 LINE",
"364.97 -148 LINE",
"431.97 -12 LINE",
"548.97 -8 OFFCURVE",
"625.97 40 OFFCURVE",
"696.97 110 CURVE",
"661.97 144 LINE",
"590.97 74 OFFCURVE",
"521.97 35 OFFCURVE",
"420.97 35 CURVE SMOOTH",
"253.97 35 OFFCURVE",
"124.97 173 OFFCURVE",
"124.97 351 CURVE SMOOTH",
"124.97 529 OFFCURVE",
"251.97 665 OFFCURVE",
"419.97 665 CURVE SMOOTH",
"524.97 665 OFFCURVE",
"594.97 621 OFFCURVE",
"655.97 562 CURVE",
"692.97 600 LINE",
"620.97 666 OFFCURVE",
"545.97 712 OFFCURVE",
"420.97 712 CURVE SMOOTH",
"218.97 712 OFFCURVE",
"70.97 549 OFFCURVE",
"70.97 349 CURVE SMOOTH",
"70.97 158 OFFCURVE",
"202.97 6 OFFCURVE",
"385.97 -11 CURVE"
);
}
);
};
hints = (
{
place = "{18.802, -22.198}";
type = Stem;
},
{
horizontal = 1;
place = "{-52.198, 21}";
target = up;
type = BottomGhost;
},
{
horizontal = 1;
place = "{646.802, -20}";
target = down;
type = TopGhost;
},
{
place = "{341.802, -24.317}";
type = Stem;
},
{
place = "{467.802, -24.317}";
type = Stem;
},
{
horizontal = 1;
place = "{-294.767, 117.868}";
type = Stem;
},
{
horizontal = 1;
place = "{-38.238, -20}";
target = down;
type = TopGhost;
}
);
layerId = "6E968933-CD79-43C6-9231-80D77C940F4D";
paths = (
{
closed = 1;
nodes = (
"30.819 141 OFFCURVE",
"139.38 -7 OFFCURVE",
"330.38 -7 CURVE SMOOTH",
"496.38 -7 OFFCURVE",
"616.691 75 OFFCURVE",
"690.754 201 CURVE",
"674.146 208 LINE",
"611.067 97 OFFCURVE",
"489.96 11 OFFCURVE",
"334.358 13 CURVE",
"165.358 13 OFFCURVE",
"52.819 141 OFFCURVE",
"94.392 350 CURVE SMOOTH",
"136.362 561 OFFCURVE",
"299.425 687 OFFCURVE",
"468.425 687 CURVE SMOOTH",
"622.425 687 OFFCURVE",
"706.91 609 OFFCURVE",
"728.427 501 CURVE",
"747.82 508 LINE",
"721.888 629 OFFCURVE",
"634.403 707 OFFCURVE",
"472.403 707 CURVE SMOOTH",
"281.403 707 OFFCURVE",
"114.362 561 OFFCURVE",
"72.392 350 CURVE SMOOTH"
);
},
{
closed = 1;
nodes = (
"369.157 6.96 LINE",
"347.157 6.96 LINE",
"324.61 -106.39 LINE",
"362.61 -106.39 LINE SMOOTH",
"428.61 -106.39 OFFCURVE",
"445.072 -134.231 OFFCURVE",
"438.546 -167.042 CURVE SMOOTH",
"431.03 -204.826 OFFCURVE",
"403.492 -232.666 OFFCURVE",
"337.492 -232.666 CURVE SMOOTH",
"276.492 -232.666 LINE",
"272.537 -252.552 LINE",
"336.537 -252.552 LINE SMOOTH",
"406.537 -252.552 OFFCURVE",
"450.657 -216.757 OFFCURVE",
"460.546 -167.042 CURVE SMOOTH",
"471.423 -112.356 OFFCURVE",
"433.357 -82.527 OFFCURVE",
"350.368 -87.498 CURVE"
);
}
);
width = 770.50021;
},
{
anchors = (
{
name = bottom;
position = "{325.975, 1}";
},
{
name = top;
position = "{471.01, 705}";
}
);
hints = (
{
place = "{-17.614, 135.386}";
type = Stem;
},
{
horizontal = 1;
place = "{-48.614, 115.386}";
type = Stem;
},
{
horizontal = 1;
place = "{504.386, 115.386}";
type = Stem;
},
{
place = "{245.386, -11.796}";
type = Stem;
},
{
place = "{396.386, 80.674}";
type = Stem;
},
{
horizontal = 1;
place = "{-312.092, 51.839}";
type = Stem;
},
{
horizontal = 1;
place = "{-250.445, 124.423}";
type = Stem;
},
{
horizontal = 1;
place = "{-167.918, 84.651}";
type = Stem;
}
);
layerId = "BAF31694-0472-4296-B0EA-1654553C45D2";
paths = (
{
closed = 1;
nodes = (
"5.425 139 OFFCURVE",
"120.384 -7 OFFCURVE",
"328.384 -7 CURVE SMOOTH",
"490.384 -7 OFFCURVE",
"625.291 78 OFFCURVE",
"702.128 228 CURVE",
"561.096 258 LINE",
"506.79 171 OFFCURVE",
"436.425 139 OFFCURVE",
"357.425 139 CURVE SMOOTH",
"246.425 139 OFFCURVE",
"197.128 228 OFFCURVE",
"221.396 350 CURVE SMOOTH",
"245.265 470 OFFCURVE",
"330.366 561 OFFCURVE",
"441.366 561 CURVE SMOOTH",
"519.366 561 OFFCURVE",
"571.001 529 OFFCURVE",
"591.281 455 CURVE",
"748.846 488 LINE",
"728.898 624 OFFCURVE",
"628.407 707 OFFCURVE",
"470.407 707 CURVE SMOOTH",
"262.407 707 OFFCURVE",
"88.968 559 OFFCURVE",
"47.396 350 CURVE SMOOTH"
);
},
{
closed = 1;
nodes = (
"386.314 3.96 LINE",
"280.314 3.96 LINE",
"254.801 -124.305 LINE",
"327.801 -124.305 LINE SMOOTH",
"351.801 -124.305 OFFCURVE",
"364.614 -130.27 OFFCURVE",
"360.856 -149.162 CURVE SMOOTH",
"357.296 -167.059 OFFCURVE",
"341.912 -174.02 OFFCURVE",
"317.912 -174.02 CURVE SMOOTH",
"184.912 -174.02 LINE",
"166.123 -268.478 LINE",
"322.123 -268.478 LINE SMOOTH",
"390.123 -268.478 OFFCURVE",
"468.649 -235.666 OFFCURVE",
"485.065 -153.139 CURVE SMOOTH",
"501.678 -69.618 OFFCURVE",
"436.81 -38.795 OFFCURVE",
"377.81 -38.795 CURVE"
);
}
);
width = 743.16811;
},
{
anchors = (
{
name = bottom;
position = "{347.77, 0}";
},
{
name = top;
position = "{485.202, 706}";
}
);
hints = (
{
place = "{359.5, 27.5}";
type = Stem;
},
{
horizontal = 1;
place = "{-47.5, 21}";
target = up;
type = BottomGhost;
},
{
horizontal = 1;
place = "{215.5, -20}";
target = down;
type = TopGhost;
},
{
place = "{118.5, 8.617}";
type = Stem;
},
{
place = "{257.5, 5.61}";
type = Stem;
},
{
horizontal = 1;
place = "{-211.867, 93.804}";
type = Stem;
},
{
horizontal = 1;
place = "{-41.493, -20}";
target = down;
type = TopGhost;
}
);
layerId = "9F107B1E-3A61-4335-981B-27DD48125C7E";
paths = (
{
closed = 1;
nodes = (
"25.817 141 OFFCURVE",
"147.378 -7 OFFCURVE",
"342.378 -7 CURVE SMOOTH",
"491.378 -7 OFFCURVE",
"619.501 64 OFFCURVE",
"703.752 201 CURVE",
"643.526 225 LINE",
"573.844 116 OFFCURVE",
"464.501 64 OFFCURVE",
"356.7 65 CURVE",
"206.7 65 OFFCURVE",
"114.182 173 OFFCURVE",
"149.39 350 CURVE SMOOTH",
"184.796 528 OFFCURVE",
"320.08 635 OFFCURVE",
"470.08 635 CURVE SMOOTH",
"576.08 635 OFFCURVE",
"663.731 588 OFFCURVE",
"689.436 491 CURVE",
"759.21 515 LINE",
"728.477 637 OFFCURVE",
"629.401 707 OFFCURVE",
"484.401 707 CURVE SMOOTH",
"289.401 707 OFFCURVE",
"109.36 561 OFFCURVE",
"67.39 350 CURVE SMOOTH"
);
},
{
closed = 1;
nodes = (
"379.666 7.015 LINE",
"324.666 7.015 LINE",
"300.744 -113.249 LINE",
"349.744 -113.249 LINE SMOOTH",
"396.744 -113.249 OFFCURVE",
"414.754 -128.282 OFFCURVE",
"408.574 -159.35 CURVE SMOOTH",
"401.995 -192.422 OFFCURVE",
"378.005 -207.455 OFFCURVE",
"331.005 -207.455 CURVE SMOOTH",
"240.005 -207.455 LINE",
"229.639 -259.57 LINE",
"335.639 -259.57 LINE SMOOTH",
"406.639 -259.57 OFFCURVE",
"463.413 -220.484 OFFCURVE",
"475.574 -159.35 CURVE SMOOTH",
"488.332 -95.209 OFFCURVE",
"443.11 -61.134 OFFCURVE",
"365.711 -63.139 CURVE"
);
}
);
width = 776.83383;
}
);
leftMetricsKey = C;
rightMetricsKey = C;
unicode = 00C7;
},
{
glyphname = Cdotaccent;
lastChange = "2021-08-30 20:28:08 +0000";
layers = (
{
anchors = (
{
name = bottom;
position = "{341.773, 0}";
},
{
name = top;
position = "{490.802, 709}";
}
);
hints = (
{
place = "{-46.747, 28.253}";
type = Stem;
},
{
horizontal = 1;
place = "{-94.747, 11.253}";
type = Stem;
},
{
horizontal = 1;
place = "{519.253, 12.253}";
type = Stem;
},
{
place = "{250.003, 32.093}";
type = Stem;
},
{
horizontal = 1;
place = "{689.736, 32.093}";
type = Stem;
}
);
layerId = "0CF0EA28-C756-4A9E-9D7C-CFEF350B4CFE";
paths = (
{
closed = 1;
nodes = (
"20.82 141 OFFCURVE",
"150.381 -7 OFFCURVE",
"346.381 -7 CURVE SMOOTH",
"486.381 -7 OFFCURVE",
"619.31 58 OFFCURVE",
"709.953 202 CURVE",
"624.12 233 LINE",
"550.438 124 OFFCURVE",
"448.675 90 OFFCURVE",
"368.675 90 CURVE SMOOTH",
"230.675 90 OFFCURVE",
"147.163 193 OFFCURVE",
"178.392 350 CURVE SMOOTH",
"209.82 508 OFFCURVE",
"334.11 610 OFFCURVE",
"472.11 610 CURVE SMOOTH",
"550.11 610 OFFCURVE",
"636.148 575 OFFCURVE",
"665.444 486 CURVE",
"764.008 519 LINE",
"730.276 641 OFFCURVE",
"624.404 707 OFFCURVE",
"488.404 707 CURVE SMOOTH",
"292.404 707 OFFCURVE",
"104.164 560 OFFCURVE",
"62.392 350 CURVE SMOOTH"
);
},
{
closed = 1;
nodes = (
"537.623 778.483 OFFCURVE",
"569.831 804.665 OFFCURVE",
"576.641 838.903 CURVE SMOOTH",
"583.251 872.134 OFFCURVE",
"561.659 899.323 OFFCURVE",
"528.659 899.323 CURVE SMOOTH",
"494.659 899.323 OFFCURVE",
"463.251 872.134 OFFCURVE",
"456.641 838.903 CURVE SMOOTH",
"449.831 804.665 OFFCURVE",
"470.623 778.483 OFFCURVE",
"504.623 778.483 CURVE SMOOTH"
);
}
);
width = 776.17;
},
{
anchors = (
{
name = bottom;
position = "{353.77, 0}";
},
{
name = top;
position = "{471.008, 700}";
}
);
hints = (
{
place = "{-17.66, -58.66}";
type = Stem;
},
{
horizontal = 1;
place = "{-88.66, 21}";
target = up;
type = BottomGhost;
},
{
horizontal = 1;
place = "{610.34, -20}";
target = down;
type = TopGhost;
},
{
place = "{268.34, -21.008}";
type = Stem;
},
{
horizontal = 1;
place = "{683.766, -21.008}";
type = Stem;
}
);
layerId = "6E968933-CD79-43C6-9231-80D77C940F4D";
paths = (
{
closed = 1;
nodes = (
"30.816 141 OFFCURVE",
"139.377 -7 OFFCURVE",
"330.377 -7 CURVE SMOOTH",
"496.377 -7 OFFCURVE",
"616.688 75 OFFCURVE",
"690.751 201 CURVE",
"674.144 208 LINE",
"611.064 97 OFFCURVE",
"489.958 11 OFFCURVE",
"334.356 13 CURVE",
"165.356 13 OFFCURVE",
"52.816 141 OFFCURVE",
"94.389 350 CURVE SMOOTH",
"136.36 561 OFFCURVE",
"299.423 687 OFFCURVE",
"468.423 687 CURVE SMOOTH",
"622.423 687 OFFCURVE",
"706.907 609 OFFCURVE",
"728.425 501 CURVE",
"747.817 508 LINE",
"721.886 629 OFFCURVE",
"634.401 707 OFFCURVE",
"472.401 707 CURVE SMOOTH",
"281.401 707 OFFCURVE",
"114.36 561 OFFCURVE",
"72.389 350 CURVE SMOOTH"
);
},
{
closed = 1;
nodes = (
"502.418 767.415 OFFCURVE",
"519.187 781.335 OFFCURVE",
"522.351 797.244 CURVE SMOOTH",
"525.714 814.147 OFFCURVE",
"514.483 828.067 OFFCURVE",
"497.483 828.067 CURVE SMOOTH",
"481.483 828.067 OFFCURVE",
"464.714 814.147 OFFCURVE",
"461.351 797.244 CURVE SMOOTH",
"458.187 781.335 OFFCURVE",
"469.418 767.415 OFFCURVE",
"485.418 767.415 CURVE SMOOTH"
);
}
);
width = 770.50021;
},
{
anchors = (
{
name = bottom;
position = "{325.972, 1}";
},
{
name = top;
position = "{471.006, 705}";
}
);
hints = (
{
place = "{-64.367, 88.633}";
type = Stem;
},
{
horizontal = 1;
place = "{-95.367, 68.633}";
type = Stem;
},
{
horizontal = 1;
place = "{457.633, 68.633}";
type = Stem;
},
{
place = "{212.633, 58.778}";
type = Stem;
},
{
horizontal = 1;
place = "{676.099, 58.778}";
type = Stem;
}
);
layerId = "BAF31694-0472-4296-B0EA-1654553C45D2";
paths = (
{
closed = 1;
nodes = (
"5.422 139 OFFCURVE",
"120.381 -7 OFFCURVE",
"328.381 -7 CURVE SMOOTH",
"490.381 -7 OFFCURVE",
"625.288 78 OFFCURVE",
"702.125 228 CURVE",
"561.092 258 LINE",
"506.787 171 OFFCURVE",
"436.422 139 OFFCURVE",
"357.422 139 CURVE SMOOTH",
"246.422 139 OFFCURVE",
"197.125 228 OFFCURVE",
"221.392 350 CURVE SMOOTH",
"245.262 470 OFFCURVE",
"330.363 561 OFFCURVE",
"441.363 561 CURVE SMOOTH",
"519.363 561 OFFCURVE",
"570.998 529 OFFCURVE",
"591.278 455 CURVE",
"748.842 488 LINE",
"728.894 624 OFFCURVE",
"628.404 707 OFFCURVE",
"470.404 707 CURVE SMOOTH",
"262.404 707 OFFCURVE",
"88.965 559 OFFCURVE",
"47.392 350 CURVE SMOOTH"
);
},
{
closed = 1;
nodes = (
"523.983 766.466 OFFCURVE",
"563.311 798.284 OFFCURVE",
"571.618 840.044 CURVE SMOOTH",
"580.123 882.799 OFFCURVE",
"553.649 915.611 OFFCURVE",
"510.649 915.611 CURVE SMOOTH",
"468.649 915.611 OFFCURVE",
"430.123 882.799 OFFCURVE",
"421.618 840.044 CURVE SMOOTH",
"413.311 798.284 OFFCURVE",
"438.983 766.466 OFFCURVE",
"480.983 766.466 CURVE SMOOTH"
);
}
);
width = 743.15811;
},
{
anchors = (
{
name = bottom;
position = "{347.772, 0}";
},
{
name = top;
position = "{485.204, 706}";
}
);
hints = (
{
place = "{318.012, -13.988}";
type = Stem;
},
{
horizontal = 1;
place = "{-88.988, 21}";
target = up;
type = BottomGhost;
},
{
horizontal = 1;
place = "{174.012, -20}";
target = down;
type = TopGhost;
},
{
place = "{257.012, 12.227}";
type = Stem;
},
{
horizontal = 1;
place = "{688.382, 12.227}";
type = Stem;
}
);
layerId = "9F107B1E-3A61-4335-981B-27DD48125C7E";
paths = (
{
closed = 1;
nodes = (
"25.818 141 OFFCURVE",
"147.379 -7 OFFCURVE",
"342.379 -7 CURVE SMOOTH",
"491.379 -7 OFFCURVE",
"619.502 64 OFFCURVE",
"703.753 201 CURVE",
"643.527 225 LINE",
"573.846 116 OFFCURVE",
"464.502 64 OFFCURVE",
"356.701 65 CURVE",
"206.701 65 OFFCURVE",
"114.184 173 OFFCURVE",
"149.391 350 CURVE SMOOTH",
"184.798 528 OFFCURVE",
"320.081 635 OFFCURVE",
"470.081 635 CURVE SMOOTH",
"576.081 635 OFFCURVE",
"663.732 588 OFFCURVE",
"689.438 491 CURVE",
"759.212 515 LINE",
"728.479 637 OFFCURVE",
"629.403 707 OFFCURVE",
"484.403 707 CURVE SMOOTH",
"289.403 707 OFFCURVE",
"109.362 561 OFFCURVE",
"67.391 350 CURVE SMOOTH"
);
},
{
closed = 1;
nodes = (
"526.104 773.368 OFFCURVE",
"552.291 794.415 OFFCURVE",
"557.673 821.474 CURVE SMOOTH",
"563.056 848.533 OFFCURVE",
"545.641 871.584 OFFCURVE",
"518.641 871.584 CURVE SMOOTH",
"490.641 871.584 OFFCURVE",
"465.056 848.533 OFFCURVE",
"459.673 821.474 CURVE SMOOTH",
"454.291 794.415 OFFCURVE",
"471.104 773.368 OFFCURVE",
"499.104 773.368 CURVE SMOOTH"
);
}
);
width = 776.84383;
}
);
leftMetricsKey = C;
rightMetricsKey = C;
unicode = 010A;
},
{
glyphname = D;
lastChange = "2021-08-30 20:28:08 +0000";
layers = (
{
anchors = (
{
name = top;
position = "{444.708, 701}";
}
);
hints = (
{
place = "{15.381, 44.381}";
type = Stem;
},
{
place = "{514.381, 47.381}";
type = Stem;
},
{
horizontal = 1;
place = "{-69.619, 23.381}";
type = Stem;
},
{
horizontal = 1;
place = "{537.381, 23.381}";
type = Stem;
}
);
layerId = "0CF0EA28-C756-4A9E-9D7C-CFEF350B4CFE";
paths = (
{
closed = 1;
nodes = (
"174.509 700 LINE",
"35.271 0 LINE",
"282.271 0 LINE SMOOTH",
"505.271 0 OFFCURVE",
"677.527 132 OFFCURVE",
"720.293 347 CURVE SMOOTH",
"763.258 563 OFFCURVE",
"644.509 700 OFFCURVE",
"421.509 700 CURVE SMOOTH"
);
},
{
closed = 1;
nodes = (
"168.167 95 LINE",
"269.613 605 LINE",
"402.613 605 LINE SMOOTH",
"566.613 605 OFFCURVE",
"636.119 507 OFFCURVE",
"604.293 347 CURVE SMOOTH",
"572.666 188 OFFCURVE",
"465.167 95 OFFCURVE",
"301.167 95 CURVE SMOOTH"
);
}
);
width = 743.5;
},
{
anchors = (
{
name = top;
position = "{416.332, 679}";
}
);
background = {
hints = (
{
horizontal = 1;
place = "{0, 48}";
type = Stem;
},
{
horizontal = 1;
place = "{652, 48}";
type = Stem;
},
{
place = "{104, 52}";
type = Stem;
},
{
place = "{655, 54}";
type = Stem;
}
);
paths = (
{
closed = 1;
nodes = (
"737.89 352 LINE SMOOTH",
"737.89 549 OFFCURVE",
"585.89 700 OFFCURVE",
"365.89 700 CURVE SMOOTH",
"132.89 700 LINE",
"132.89 0 LINE",
"365.89 0 LINE SMOOTH",
"585.89 0 OFFCURVE",
"737.89 153 OFFCURVE",
"737.89 350 CURVE SMOOTH"
);
},
{
closed = 1;
nodes = (
"683.89 348 LINE SMOOTH",
"683.89 181 OFFCURVE",
"560.89 48 OFFCURVE",
"365.89 48 CURVE SMOOTH",
"184.89 48 LINE",
"184.89 652 LINE",
"365.89 652 LINE SMOOTH",
"560.89 652 OFFCURVE",
"683.89 516 OFFCURVE",
"683.89 350 CURVE SMOOTH"
);
}
);
};
hints = (
{
place = "{33.381, -47.619}";
type = Stem;
},
{
place = "{591.381, -47.619}";
type = Stem;
},
{
horizontal = 1;
place = "{-69.619, 21}";
target = up;
type = BottomGhost;
},
{
horizontal = 1;
place = "{615.381, -20}";
target = down;
type = TopGhost;
}
);
layerId = "6E968933-CD79-43C6-9231-80D77C940F4D";
paths = (
{
closed = 1;
nodes = (
"194.509 700 LINE",
"55.271 0 LINE",
"260.271 0 LINE",
"505.271 0 OFFCURVE",
"657.93 129 OFFCURVE",
"701.89 350 CURVE",
"745.85 571 OFFCURVE",
"644.509 700 OFFCURVE",
"399.509 700 CURVE"
);
},
{
closed = 1;
nodes = (
"81.249 20 LINE",
"212.531 680 LINE",
"395.531 680 LINE",
"630.531 680 OFFCURVE",
"720.468 554 OFFCURVE",
"679.89 350 CURVE",
"639.312 146 OFFCURVE",
"499.249 20 OFFCURVE",
"264.249 20 CURVE"
);
}
);
width = 734.49649;
},
{
anchors = (
{
name = top;
position = "{431.907, 702}";
}
);
hints = (
{
place = "{-16.619, 106.381}";
type = Stem;
},
{
place = "{459.381, 109.381}";
type = Stem;
},
{
horizontal = 1;
place = "{-69.619, 83.381}";
type = Stem;
},
{
horizontal = 1;
place = "{479.381, 81.381}";
type = Stem;
}
);
layerId = "BAF31694-0472-4296-B0EA-1654553C45D2";
paths = (
{
closed = 1;
nodes = (
"144.509 700 LINE",
"5.271 0 LINE",
"291.271 0 LINE SMOOTH",
"516.271 0 OFFCURVE",
"688.914 144 OFFCURVE",
"729.89 350 CURVE SMOOTH",
"771.264 558 OFFCURVE",
"655.509 700 OFFCURVE",
"430.509 700 CURVE SMOOTH"
);
},
{
closed = 1;
nodes = (
"208.312 146 LINE",
"289.468 554 LINE",
"390.468 554 LINE SMOOTH",
"516.468 554 OFFCURVE",
"577.953 476 OFFCURVE",
"552.89 350 CURVE SMOOTH",
"527.827 224 OFFCURVE",
"435.312 146 OFFCURVE",
"309.312 146 CURVE SMOOTH"
);
}
);
width = 737.50255;
},
{
anchors = (
{
name = top;
position = "{436.117, 693}";
}
);
hints = (
{
place = "{-30.619, -3.619}";
type = Stem;
},
{
place = "{557.381, -3.619}";
type = Stem;
},
{
horizontal = 1;
place = "{-69.619, 21}";
target = up;
type = BottomGhost;
},
{
horizontal = 1;
place = "{187.381, -20}";
target = down;
type = TopGhost;
}
);
layerId = "9F107B1E-3A61-4335-981B-27DD48125C7E";
paths = (
{
closed = 1;
nodes = (
"184.509 700 LINE",
"45.271 0 LINE",
"276.271 0 LINE",
"507.271 0 OFFCURVE",
"672.328 131 OFFCURVE",
"715.492 348 CURVE",
"758.855 566 OFFCURVE",
"646.509 700 OFFCURVE",
"415.509 700 CURVE"
);
},
{
closed = 1;
nodes = (
"139.195 70 LINE",
"250.585 630 LINE",
"401.585 630 LINE",
"591.585 630 OFFCURVE",
"669.7 525 OFFCURVE",
"634.492 348 CURVE",
"599.484 172 OFFCURVE",
"480.195 70 OFFCURVE",
"290.195 70 CURVE"
);
}
);
width = 743.50243;
}
);
leftMetricsKey = H;
rightMetricsKey = "=H*0.5";
unicode = 0044;
},
{
glyphname = Eth;
lastChange = "2021-08-30 20:28:08 +0000";
layers = (
{
hints = (
{
place = "{72.381, 45.381}";
type = Stem;
},
{
place = "{551.381, 47.381}";
type = Stem;
},
{
horizontal = 1;
place = "{-69.619, 17.381}";
type = Stem;
},
{
horizontal = 1;
place = "{225.381, 35.381}";
type = Stem;
},
{
horizontal = 1;
place = "{538.381, 22.381}";
type = Stem;
}
);
layerId = "0CF0EA28-C756-4A9E-9D7C-CFEF350B4CFE";
paths = (
{
closed = 1;
nodes = (
"73.95 295 LINE",
"443.95 295 LINE",
"464.836 400 LINE",
"94.836 400 LINE"
);
},
{
closed = 1;
nodes = (
"231.509 700 LINE",
"92.271 0 LINE",
"320.271 0 LINE SMOOTH",
"543.271 0 OFFCURVE",
"714.527 132 OFFCURVE",
"757.293 347 CURVE SMOOTH",
"800.258 563 OFFCURVE",
"682.509 700 OFFCURVE",
"459.509 700 CURVE SMOOTH"
);
},
{
closed = 1;
nodes = (
"224.576 87 LINE",
"328.209 608 LINE",
"441.209 608 LINE SMOOTH",
"604.209 608 OFFCURVE",
"672.119 507 OFFCURVE",
"640.293 347 CURVE SMOOTH",
"608.666 188 OFFCURVE",
"500.377 86 OFFCURVE",
"337.576 87 CURVE SMOOTH"
);
}
);
width = 780.5;
},
{
background = {
hints = (
{
horizontal = 1;
place = "{0, 48}";
type = Stem;
},
{
horizontal = 1;
place = "{328, 48}";
type = Stem;
},
{
horizontal = 1;
place = "{652, 48}";
type = Stem;
},
{
place = "{134, 52}";
type = Stem;
},
{
place = "{685, 54}";
type = Stem;
}
);
paths = (
{
closed = 1;
nodes = (
"162.89 328 LINE",
"162.89 0 LINE",
"395.89 0 LINE SMOOTH",
"615.89 0 OFFCURVE",
"767.89 153 OFFCURVE",
"767.89 351 CURVE SMOOTH",
"767.89 549 OFFCURVE",
"615.89 700 OFFCURVE",
"395.89 700 CURVE SMOOTH",
"162.89 700 LINE",
"162.89 376 LINE",
"87.89 376 LINE",
"87.89 328 LINE"
);
},
{
closed = 1;
nodes = (
"214.89 376 LINE",
"214.89 652 LINE",
"395.89 652 LINE SMOOTH",
"590.89 652 OFFCURVE",
"713.89 517 OFFCURVE",
"713.89 349 CURVE SMOOTH",
"713.89 181 OFFCURVE",
"590.89 48 OFFCURVE",
"395.89 48 CURVE SMOOTH",
"214.89 48 LINE",
"214.89 328 LINE",
"446.89 328 LINE",
"446.89 376 LINE"
);
}
);
};
hints = (
{
place = "{132.381, -47.619}";
type = Stem;
},
{
place = "{664.381, -47.619}";
type = Stem;
},
{
horizontal = 1;
place = "{-69.619, 21}";
target = up;
type = BottomGhost;
},
{
horizontal = 1;
place = "{615.381, -20}";
target = down;
type = TopGhost;
}
);
layerId = "6E968933-CD79-43C6-9231-80D77C940F4D";
paths = (
{
closed = 1;
nodes = (
"102.901 340 LINE",
"470.901 340 LINE",
"474.879 360 LINE",
"106.879 360 LINE"
);
},
{
closed = 1;
nodes = (
"288.509 700 LINE",
"149.271 0 LINE",
"335.271 0 LINE",
"579.271 0 OFFCURVE",
"732.93 129 OFFCURVE",
"776.89 350 CURVE",
"820.85 571 OFFCURVE",
"718.509 700 OFFCURVE",
"474.509 700 CURVE"
);
},
{
closed = 1;
nodes = (
"175.05 19 LINE",
"306.73 681 LINE",
"470.73 681 LINE",
"704.73 681 OFFCURVE",
"795.468 554 OFFCURVE",
"754.89 350 CURVE",
"714.312 146 OFFCURVE",
"573.05 19 OFFCURVE",
"339.05 19 CURVE"
);
}
);
width = 809.50298;
},
{
hints = (
{
place = "{25.381, 107.381}";
type = Stem;
},
{
place = "{480.381, 109.381}";
type = Stem;
},
{
horizontal = 1;
place = "{-69.619, 81.381}";
type = Stem;
},
{
horizontal = 1;
place = "{207.381, 76.381}";
type = Stem;
},
{
horizontal = 1;
place = "{479.381, 81.381}";
type = Stem;
}
);
layerId = "BAF31694-0472-4296-B0EA-1654553C45D2";
paths = (
{
closed = 1;
nodes = (
"40.369 277 LINE",
"429.369 277 LINE",
"458.411 423 LINE",
"69.411 423 LINE"
);
},
{
closed = 1;
nodes = (
"186.509 700 LINE",
"47.271 0 LINE",
"313.271 0 LINE SMOOTH",
"538.271 0 OFFCURVE",
"709.914 144 OFFCURVE",
"750.89 350 CURVE SMOOTH",
"792.264 558 OFFCURVE",
"677.509 700 OFFCURVE",
"452.509 700 CURVE SMOOTH"
);
},
{
closed = 1;
nodes = (
"253.306 151 LINE",
"332.672 550 LINE",
"411.672 550 LINE SMOOTH",
"536.672 550 OFFCURVE",
"596.953 476 OFFCURVE",
"571.89 350 CURVE SMOOTH",
"546.827 224 OFFCURVE",
"457.108 150 OFFCURVE",
"332.306 151 CURVE SMOOTH"
);
}
);
width = 758.50245;
},
{
hints = (
{
place = "{190.381, 4.381}";
type = Stem;
},
{
place = "{585.381, -3.619}";
type = Stem;
},
{
horizontal = 1;
place = "{-69.619, 21}";
target = up;
type = BottomGhost;
},
{
horizontal = 1;
place = "{187.381, -20}";
target = down;
type = TopGhost;
}
);
layerId = "9F107B1E-3A61-4335-981B-27DD48125C7E";
paths = (
{
closed = 1;
nodes = (
"87.331 312 LINE",
"456.331 312 LINE",
"470.852 385 LINE",
"101.852 385 LINE"
);
},
{
closed = 1;
nodes = (
"254.509 700 LINE",
"115.271 0 LINE",
"328.271 0 LINE",
"559.271 0 OFFCURVE",
"723.328 131 OFFCURVE",
"766.492 348 CURVE",
"809.855 566 OFFCURVE",
"698.509 700 OFFCURVE",
"467.509 700 CURVE"
);
},
{
closed = 1;
nodes = (
"208.603 62 LINE",
"322.58 635 LINE",
"454.58 635 LINE",
"643.58 635 OFFCURVE",
"720.7 525 OFFCURVE",
"685.492 348 CURVE",
"650.484 172 OFFCURVE",
"529.404 61 OFFCURVE",
"340.603 62 CURVE"
);
}
);
width = 794.49487;
}
);
leftMetricsKey = "=D-20";
rightMetricsKey = D;
unicode = 00D0;
},
{
glyphname = Dcaron;
lastChange = "2021-08-30 20:28:08 +0000";
layers = (
{
anchors = (
{
name = top;
position = "{444.707, 701}";
}
);
hints = (
{
place = "{-5.851, 23.149}";
type = Stem;
},
{
place = "{493.149, 26.149}";
type = Stem;
},
{
horizontal = 1;
place = "{-90.851, 2.149}";
type = Stem;
},
{
horizontal = 1;
place = "{516.149, 2.149}";
type = Stem;
}
);
layerId = "0CF0EA28-C756-4A9E-9D7C-CFEF350B4CFE";
paths = (
{
closed = 1;
nodes = (
"174.508 700 LINE",
"35.269 0 LINE",
"282.269 0 LINE SMOOTH",
"505.269 0 OFFCURVE",
"677.525 132 OFFCURVE",
"720.292 347 CURVE SMOOTH",
"763.257 563 OFFCURVE",
"644.508 700 OFFCURVE",
"421.508 700 CURVE SMOOTH"
);
},
{
closed = 1;
nodes = (
"168.166 95 LINE",
"269.611 605 LINE",
"402.611 605 LINE SMOOTH",
"566.611 605 OFFCURVE",
"636.118 507 OFFCURVE",
"604.292 347 CURVE SMOOTH",
"572.665 188 OFFCURVE",
"465.166 95 OFFCURVE",
"301.166 95 CURVE SMOOTH"
);
},
{
closed = 1;
nodes = (
"469.745 826.875 LINE",
"343.971 913.477 LINE",
"326.144 823.854 LINE",
"452.519 740.273 LINE",
"612.144 823.854 LINE",
"629.971 913.477 LINE"
);
}
);
width = 743.5;
},
{
anchors = (
{
name = top;
position = "{416.337, 679}";
}
);
hints = (
{
place = "{17.776, -63.224}";
type = Stem;
},
{
place = "{575.776, -63.224}";
type = Stem;
},
{
horizontal = 1;
place = "{-85.224, 21}";
target = up;
type = BottomGhost;
},
{
horizontal = 1;
place = "{599.776, -20}";
target = down;
type = TopGhost;
}
);
layerId = "6E968933-CD79-43C6-9231-80D77C940F4D";
paths = (
{
closed = 1;
nodes = (
"194.514 700 LINE",
"55.276 0 LINE",
"260.276 0 LINE",
"505.276 0 OFFCURVE",
"657.936 129 OFFCURVE",
"701.895 350 CURVE",
"745.855 571 OFFCURVE",
"644.514 700 OFFCURVE",
"399.514 700 CURVE"
);
},
{
closed = 1;
nodes = (
"81.254 20 LINE",
"212.536 680 LINE",
"395.536 680 LINE",
"630.536 680 OFFCURVE",
"720.473 554 OFFCURVE",
"679.895 350 CURVE",
"639.317 146 OFFCURVE",
"499.254 20 OFFCURVE",
"264.254 20 CURVE"
);
},
{
closed = 1;
nodes = (
"438.704 776.363 LINE",
"330.724 856.902 LINE",
"326.373 835.027 LINE",
"434.353 754.489 LINE",
"574.373 835.027 LINE",
"578.724 856.902 LINE"
);
}
);
width = 734.50149;
},
{
anchors = (
{
name = top;
position = "{431.91, 702}";
}
);
hints = (
{
place = "{-40.236, 82.764}";
type = Stem;
},
{
place = "{435.764, 85.764}";
type = Stem;
},
{
horizontal = 1;
place = "{-93.236, 59.764}";
type = Stem;
},
{
horizontal = 1;
place = "{455.764, 57.764}";
type = Stem;
}
);
layerId = "BAF31694-0472-4296-B0EA-1654553C45D2";
paths = (
{
closed = 1;
nodes = (
"144.512 700 LINE",
"5.274 0 LINE",
"291.274 0 LINE SMOOTH",
"516.274 0 OFFCURVE",
"688.917 144 OFFCURVE",
"729.893 350 CURVE SMOOTH",
"771.267 558 OFFCURVE",
"655.512 700 OFFCURVE",
"430.512 700 CURVE SMOOTH"
);
},
{
closed = 1;
nodes = (
"208.315 146 LINE",
"289.471 554 LINE",
"390.471 554 LINE SMOOTH",
"516.471 554 OFFCURVE",
"577.956 476 OFFCURVE",
"552.893 350 CURVE SMOOTH",
"527.83 224 OFFCURVE",
"435.315 146 OFFCURVE",
"309.315 146 CURVE SMOOTH"
);
},
{
closed = 1;
nodes = (
"459.79 850.959 LINE",
"320.996 937.463 LINE",
"297.065 817.152 LINE",
"437.639 739.597 LINE",
"609.065 817.152 LINE",
"632.996 937.463 LINE"
);
}
);
width = 737.50019;
},
{
anchors = (
{
name = top;
position = "{436.118, 693}";
}
);
hints = (
{
place = "{-49.779, -22.779}";
type = Stem;
},
{
place = "{538.221, -22.779}";
type = Stem;
},
{
horizontal = 1;
place = "{-88.779, 21}";
target = up;
type = BottomGhost;
},
{
horizontal = 1;
place = "{168.221, -20}";
target = down;
type = TopGhost;
}
);
layerId = "9F107B1E-3A61-4335-981B-27DD48125C7E";
paths = (
{
closed = 1;
nodes = (
"184.51 700 LINE",
"45.271 0 LINE",
"276.271 0 LINE",
"507.271 0 OFFCURVE",
"672.329 131 OFFCURVE",
"715.493 348 CURVE",
"758.856 566 OFFCURVE",
"646.51 700 OFFCURVE",
"415.51 700 CURVE"
);
},
{
closed = 1;
nodes = (
"139.195 70 LINE",
"250.586 630 LINE",
"401.586 630 LINE",
"591.586 630 OFFCURVE",
"669.7 525 OFFCURVE",
"634.493 348 CURVE",
"599.484 172 OFFCURVE",
"480.195 70 OFFCURVE",
"290.195 70 CURVE"
);
},
{
closed = 1;
nodes = (
"461.583 808.456 LINE",
"342.329 892.641 LINE",
"329.57 828.5 LINE",
"449.224 746.32 LINE",
"601.57 828.5 LINE",
"614.329 892.641 LINE"
);
}
);
width = 743.50431;
}
);
leftMetricsKey = D;
rightMetricsKey = D;
unicode = 010E;
},
{
glyphname = Dcroat;
lastChange = "2021-08-30 20:28:08 +0000";
layers = (
{
hints = (
{
place = "{92.381, 45.381}";
type = Stem;
},
{
place = "{571.381, 47.381}";
type = Stem;
},
{
horizontal = 1;
place = "{-69.619, 17.381}";
type = Stem;
},
{
horizontal = 1;
place = "{225.381, 35.381}";
type = Stem;
},
{
horizontal = 1;
place = "{538.381, 22.381}";
type = Stem;
}
);
layerId = "0CF0EA28-C756-4A9E-9D7C-CFEF350B4CFE";
paths = (
{
closed = 1;
nodes = (
"93.95 295 LINE",
"463.95 295 LINE",
"484.836 400 LINE",
"114.836 400 LINE"
);
},
{
closed = 1;
nodes = (
"251.509 700 LINE",
"112.271 0 LINE",
"340.271 0 LINE SMOOTH",
"563.271 0 OFFCURVE",
"734.527 132 OFFCURVE",
"777.293 347 CURVE SMOOTH",
"820.258 563 OFFCURVE",
"702.509 700 OFFCURVE",
"479.509 700 CURVE SMOOTH"
);
},
{
closed = 1;
nodes = (
"244.576 87 LINE",
"348.209 608 LINE",
"461.209 608 LINE SMOOTH",
"624.209 608 OFFCURVE",
"692.119 507 OFFCURVE",
"660.293 347 CURVE SMOOTH",
"628.666 188 OFFCURVE",
"520.377 86 OFFCURVE",
"357.576 87 CURVE SMOOTH"
);
}
);
width = 800.5;
},
{
hints = (
{
place = "{152.381, -47.619}";
type = Stem;
},
{
place = "{684.381, -47.619}";
type = Stem;
},
{
horizontal = 1;
place = "{-69.619, 21}";
target = up;
type = BottomGhost;
},
{
horizontal = 1;
place = "{615.381, -20}";
target = down;
type = TopGhost;
}
);
layerId = "6E968933-CD79-43C6-9231-80D77C940F4D";
paths = (
{
closed = 1;
nodes = (
"122.901 340 LINE",
"490.901 340 LINE",
"494.879 360 LINE",
"126.879 360 LINE"
);
},
{
closed = 1;
nodes = (
"308.509 700 LINE",
"169.271 0 LINE",
"355.271 0 LINE",
"599.271 0 OFFCURVE",
"752.93 129 OFFCURVE",
"796.89 350 CURVE",
"840.85 571 OFFCURVE",
"738.509 700 OFFCURVE",
"494.509 700 CURVE"
);
},
{
closed = 1;
nodes = (
"195.05 19 LINE",
"326.73 681 LINE",
"490.73 681 LINE",
"724.73 681 OFFCURVE",
"815.468 554 OFFCURVE",
"774.89 350 CURVE",
"734.312 146 OFFCURVE",
"593.05 19 OFFCURVE",
"359.05 19 CURVE"
);
}
);
width = 829.50298;
},
{
hints = (
{
place = "{45.381, 107.381}";
type = Stem;
},
{
place = "{500.381, 109.381}";
type = Stem;
},
{
horizontal = 1;
place = "{-69.619, 81.381}";
type = Stem;
},
{
horizontal = 1;
place = "{207.381, 76.381}";
type = Stem;
},
{
horizontal = 1;
place = "{479.381, 81.381}";
type = Stem;
}
);
layerId = "BAF31694-0472-4296-B0EA-1654553C45D2";
paths = (
{
closed = 1;
nodes = (
"60.369 277 LINE",
"449.369 277 LINE",
"478.411 423 LINE",
"89.411 423 LINE"
);
},
{
closed = 1;
nodes = (
"206.509 700 LINE",
"67.271 0 LINE",
"333.271 0 LINE SMOOTH",
"558.271 0 OFFCURVE",
"729.914 144 OFFCURVE",
"770.89 350 CURVE SMOOTH",
"812.264 558 OFFCURVE",
"697.509 700 OFFCURVE",
"472.509 700 CURVE SMOOTH"
);
},
{
closed = 1;
nodes = (
"273.306 151 LINE",
"352.672 550 LINE",
"431.672 550 LINE SMOOTH",
"556.672 550 OFFCURVE",
"616.953 476 OFFCURVE",
"591.89 350 CURVE SMOOTH",
"566.827 224 OFFCURVE",
"477.108 150 OFFCURVE",
"352.306 151 CURVE SMOOTH"
);
}
);
width = 778.50245;
},
{
hints = (
{
place = "{210.381, 4.381}";
type = Stem;
},
{
place = "{605.381, -3.619}";
type = Stem;
},
{
horizontal = 1;
place = "{-69.619, 21}";
target = up;
type = BottomGhost;
},
{
horizontal = 1;
place = "{187.381, -20}";
target = down;
type = TopGhost;
}
);
layerId = "9F107B1E-3A61-4335-981B-27DD48125C7E";
paths = (
{
closed = 1;
nodes = (
"107.331 312 LINE",
"476.331 312 LINE",
"490.852 385 LINE",
"121.852 385 LINE"
);
},
{
closed = 1;
nodes = (
"274.509 700 LINE",
"135.271 0 LINE",
"348.271 0 LINE",
"579.271 0 OFFCURVE",
"743.328 131 OFFCURVE",
"786.492 348 CURVE",
"829.855 566 OFFCURVE",
"718.509 700 OFFCURVE",
"487.509 700 CURVE"
);
},
{
closed = 1;
nodes = (
"228.603 62 LINE",
"342.58 635 LINE",
"474.58 635 LINE",
"663.58 635 OFFCURVE",
"740.7 525 OFFCURVE",
"705.492 348 CURVE",
"670.484 172 OFFCURVE",
"549.404 61 OFFCURVE",
"360.603 62 CURVE"
);
}
);
width = 814.49487;
}
);
leftMetricsKey = D;
rightMetricsKey = D;
unicode = 0110;
},
{
glyphname = E;
lastChange = "2021-08-30 20:28:08 +0000";
layers = (
{
anchors = (
{
name = bottom;
position = "{262.271, 0}";
},
{
name = ogonek;
position = "{459.271, 0}";
},
{
name = top;
position = "{411.708, 701}";
}
);
hints = (
{
place = "{15.381, 44.381}";
type = Stem;
},
{
horizontal = 1;
place = "{-69.619, 23.381}";
type = Stem;
},
{
horizontal = 1;
place = "{238.381, 23.381}";
type = Stem;
},
{
horizontal = 1;
place = "{537.381, 23.381}";
type = Stem;
}
);
layerId = "0CF0EA28-C756-4A9E-9D7C-CFEF350B4CFE";
paths = (
{
closed = 1;
nodes = (
"648.509 700 LINE",
"174.509 700 LINE",
"35.271 0 LINE",
"509.271 0 LINE",
"528.167 95 LINE",
"168.167 95 LINE",
"210.337 307 LINE",
"480.337 307 LINE",
"499.233 402 LINE",
"229.233 402 LINE",
"269.613 605 LINE",
"629.613 605 LINE"
);
}
);
width = 624;
},
{
anchors = (
{
name = bottom;
position = "{243.271, 0}";
},
{
name = ogonek;
position = "{439.271, 0}";
},
{
name = top;
position = "{409.52, 690}";
}
);
background = {
hints = (
{
horizontal = 1;
place = "{0, 48}";
type = Stem;
},
{
horizontal = 1;
place = "{329, 48}";
type = Stem;
},
{
horizontal = 1;
place = "{652, 48}";
type = Stem;
},
{
place = "{104, 52}";
type = Stem;
}
);
paths = (
{
closed = 1;
nodes = (
"635.89 0 LINE",
"635.89 48 LINE",
"184.89 48 LINE",
"184.89 329 LINE",
"585.89 329 LINE",
"585.89 377 LINE",
"184.89 377 LINE",
"184.89 652 LINE",
"630.89 652 LINE",
"630.89 700 LINE",
"132.89 700 LINE",
"132.89 0 LINE"
);
}
);
};
hints = (
{
place = "{46.381, -47.619}";
type = Stem;
},
{
horizontal = 1;
place = "{615.381, -20}";
target = down;
type = TopGhost;
},
{
horizontal = 1;
place = "{-69.619, 21}";
target = up;
type = BottomGhost;
}
);
layerId = "6E968933-CD79-43C6-9231-80D77C940F4D";
paths = (
{
closed = 1;
nodes = (
"628.509 700 LINE",
"194.509 700 LINE",
"55.271 0 LINE",
"489.271 0 LINE",
"493.249 20 LINE",
"81.249 20 LINE",
"146.89 350 LINE",
"468.89 350 LINE",
"472.868 370 LINE",
"150.868 370 LINE",
"212.531 680 LINE",
"624.531 680 LINE"
);
}
);
width = 624;
},
{
anchors = (
{
name = bottom;
position = "{258.47, 1}";
},
{
name = ogonek;
position = "{480.47, 1}";
},
{
name = top;
position = "{401.907, 702}";
}
);
hints = (
{
place = "{-16.619, 106.381}";
type = Stem;
},
{
horizontal = 1;
place = "{-69.619, 71.381}";
type = Stem;
},
{
horizontal = 1;
place = "{216.381, 71.381}";
type = Stem;
},
{
horizontal = 1;
place = "{489.381, 71.381}";
type = Stem;
}
);
layerId = "BAF31694-0472-4296-B0EA-1654553C45D2";
paths = (
{
closed = 1;
nodes = (
"669.509 700 LINE",
"144.509 700 LINE",
"5.271 0 LINE",
"530.262 0 LINE",
"559.312 146 LINE",
"208.312 146 LINE",
"236.359 287 LINE",
"485.359 287 LINE",
"512.411 423 LINE",
"263.411 423 LINE",
"289.468 554 LINE",
"640.468 554 LINE"
);
}
);
width = 614.99434;
},
{
anchors = (
{
name = bottom;
position = "{257.271, 0}";
},
{
name = ogonek;
position = "{454.271, 0}";
},
{
name = top;
position = "{412.913, 697}";
}
);
hints = (
{
place = "{353.381, -3.619}";
type = Stem;
},
{
horizontal = 1;
place = "{187.381, -20}";
target = down;
type = TopGhost;
},
{
horizontal = 1;
place = "{-69.619, 21}";
target = up;
type = BottomGhost;
}
);
layerId = "9F107B1E-3A61-4335-981B-27DD48125C7E";
paths = (
{
closed = 1;
nodes = (
"643.509 700 LINE",
"184.509 700 LINE",
"45.271 0 LINE",
"504.271 0 LINE",
"518.195 70 LINE",
"139.195 70 LINE",
"189.122 321 LINE",
"478.122 321 LINE",
"492.045 391 LINE",
"203.045 391 LINE",
"250.585 630 LINE",
"629.585 630 LINE"
);
}
);
width = 629.00375;
}
);
leftMetricsKey = H;
rightMetricsKey = "=H-20";
unicode = 0045;
},
{
glyphname = Eacute;
lastChange = "2021-08-30 20:28:08 +0000";
layers = (
{
anchors = (
{
name = bottom;
position = "{262.274, 0}";
},
{
name = ogonek;
position = "{459.274, 0}";
},
{
name = top;
position = "{411.712, 701}";
}
);
hints = (
{
place = "{-9.156, 19.844}";
type = Stem;
},
{
horizontal = 1;
place = "{-94.156, -1.156}";
type = Stem;
},
{
horizontal = 1;
place = "{213.844, -1.156}";
type = Stem;
},
{
horizontal = 1;
place = "{512.844, -1.156}";
type = Stem;
}
);
layerId = "0CF0EA28-C756-4A9E-9D7C-CFEF350B4CFE";
paths = (
{
closed = 1;
nodes = (
"648.513 700 LINE",
"174.513 700 LINE",
"35.274 0 LINE",
"509.274 0 LINE",
"528.171 95 LINE",
"168.171 95 LINE",
"210.34 307 LINE",
"480.34 307 LINE",
"499.237 402 LINE",
"229.237 402 LINE",
"269.616 605 LINE",
"629.616 605 LINE"
);
},
{
closed = 1;
nodes = (
"318.349 824.861 LINE",
"301.523 740.273 LINE",
"544.156 849.029 LINE",
"563.586 946.708 LINE"
);
}
);
width = 624;
},
{
anchors = (
{
name = bottom;
position = "{243.275, 0}";
},
{
name = ogonek;
position = "{439.275, 0}";
},
{
name = top;
position = "{409.525, 690}";
}
);
background = {
hints = (
{
horizontal = 1;
place = "{0, 48}";
type = Stem;
},
{
horizontal = 1;
place = "{329, 48}";
type = Stem;
},
{
horizontal = 1;
place = "{652, 48}";
type = Stem;
},
{
horizontal = 1;
place = "{765, 21}";
type = Stem;
},
{
horizontal = 1;
place = "{878, 20}";
type = Stem;
},
{
place = "{104, 52}";
type = Stem;
}
);
paths = (
{
closed = 1;
nodes = (
"650.67 0 LINE",
"650.67 48 LINE",
"199.67 48 LINE",
"199.67 329 LINE",
"600.67 329 LINE",
"600.67 377 LINE",
"199.67 377 LINE",
"199.67 652 LINE",
"645.67 652 LINE",
"645.67 700 LINE",
"147.67 700 LINE",
"147.67 0 LINE"
);
},
{
closed = 1;
nodes = (
"394.67 765 LINE",
"501.67 868 LINE",
"440.67 898 LINE",
"352.67 765 LINE"
);
}
);
};
hints = (
{
place = "{27.605, -66.395}";
type = Stem;
},
{
horizontal = 1;
place = "{596.605, -20}";
target = down;
type = TopGhost;
},
{
horizontal = 1;
place = "{-88.395, 21}";
target = up;
type = BottomGhost;
}
);
layerId = "6E968933-CD79-43C6-9231-80D77C940F4D";
paths = (
{
closed = 1;
nodes = (
"628.514 700 LINE",
"194.514 700 LINE",
"55.275 0 LINE",
"489.275 0 LINE",
"493.253 20 LINE",
"81.253 20 LINE",
"146.894 350 LINE",
"468.894 350 LINE",
"472.873 370 LINE",
"150.873 370 LINE",
"212.536 680 LINE",
"624.536 680 LINE"
);
},
{
closed = 1;
nodes = (
"319.563 755.546 LINE",
"315.409 734.665 LINE",
"528.12 863.924 LINE",
"533.065 888.782 LINE"
);
}
);
width = 624;
},
{
anchors = (
{
name = bottom;
position = "{258.47, 1}";
},
{
name = ogonek;
position = "{480.47, 1}";
},
{
name = top;
position = "{401.908, 702}";
}
);
hints = (
{
place = "{-43.599, 79.401}";
type = Stem;
},
{
horizontal = 1;
place = "{-96.599, 44.401}";
type = Stem;
},
{
horizontal = 1;
place = "{189.401, 44.401}";
type = Stem;
},
{
horizontal = 1;
place = "{462.401, 44.401}";
type = Stem;
}
);
layerId = "BAF31694-0472-4296-B0EA-1654553C45D2";
paths = (
{
closed = 1;
nodes = (
"669.51 700 LINE",
"144.51 700 LINE",
"5.271 0 LINE",
"530.262 0 LINE",
"559.312 146 LINE",
"208.312 146 LINE",
"236.359 287 LINE",
"485.359 287 LINE",
"512.411 423 LINE",
"263.411 423 LINE",
"289.469 554 LINE",
"640.469 554 LINE"
);
},
{
closed = 1;
nodes = (
"306.172 857.919 LINE",
"282.241 737.608 LINE",
"544.821 836.044 LINE",
"571.719 971.269 LINE"
);
}
);
width = 614.99962;
},
{
anchors = (
{
name = bottom;
position = "{257.273, 0}";
},
{
name = ogonek;
position = "{454.273, 0}";
},
{
name = top;
position = "{412.915, 697}";
}
);
hints = (
{
place = "{330.933, -26.067}";
type = Stem;
},
{
horizontal = 1;
place = "{164.933, -20}";
target = down;
type = TopGhost;
},
{
horizontal = 1;
place = "{-92.067, 21}";
target = up;
type = BottomGhost;
}
);
layerId = "9F107B1E-3A61-4335-981B-27DD48125C7E";
paths = (
{
closed = 1;
nodes = (
"643.512 700 LINE",
"184.512 700 LINE",
"45.273 0 LINE",
"504.273 0 LINE",
"518.197 70 LINE",
"139.197 70 LINE",
"189.124 321 LINE",
"478.124 321 LINE",
"492.048 391 LINE",
"203.048 391 LINE",
"250.588 630 LINE",
"629.588 630 LINE"
);
},
{
closed = 1;
nodes = (
"321.988 800.43 LINE",
"310.027 740.298 LINE",
"540.953 855.551 LINE",
"554.907 925.705 LINE"
);
}
);
width = 629.00375;
}
);
leftMetricsKey = H;
rightMetricsKey = E;
unicode = 00C9;
},
{
glyphname = Ebreve;
lastChange = "2021-08-30 20:28:08 +0000";
layers = (
{
anchors = (
{
name = bottom;
position = "{262.27, 0}";
},
{
name = ogonek;
position = "{459.27, 0}";
},
{
name = top;
position = "{411.707, 701}";
}
);
hints = (
{
place = "{-5.45, 23.55}";
type = Stem;
},
{
horizontal = 1;
place = "{-90.45, 2.55}";
type = Stem;
},
{
horizontal = 1;
place = "{217.55, 2.55}";
type = Stem;
},
{
horizontal = 1;
place = "{516.55, 2.55}";
type = Stem;
},
{
place = "{80.8, -24.995}";
type = Stem;
},
{
place = "{315.8, -23.988}";
type = Stem;
},
{
horizontal = 1;
place = "{656.872, -0.827}";
type = Stem;
},
{
horizontal = 1;
place = "{656.872, 71.677}";
type = Stem;
}
);
layerId = "0CF0EA28-C756-4A9E-9D7C-CFEF350B4CFE";
paths = (
{
closed = 1;
nodes = (
"648.508 700 LINE",
"174.508 700 LINE",
"35.27 0 LINE",
"509.27 0 LINE",
"528.166 95 LINE",
"168.166 95 LINE",
"210.336 307 LINE",
"480.336 307 LINE",
"499.232 402 LINE",
"229.232 402 LINE",
"269.612 605 LINE",
"629.612 605 LINE"
);
},
{
closed = 1;
nodes = (
"604.17 909.449 LINE",
"538.17 909.449 LINE",
"529.157 864.134 OFFCURVE",
"503.748 836.945 OFFCURVE",
"438.748 836.945 CURVE SMOOTH",
"373.748 836.945 OFFCURVE",
"359.157 864.134 OFFCURVE",
"368.17 909.449 CURVE",
"303.17 909.449 LINE",
"298.964 888.302 LINE SMOOTH",
"282.339 804.721 OFFCURVE",
"326.921 747.322 OFFCURVE",
"420.921 747.322 CURVE SMOOTH",
"515.921 747.322 OFFCURVE",
"583.138 803.714 OFFCURVE",
"599.764 887.295 CURVE SMOOTH"
);
}
);
width = 624;
},
{
anchors = (
{
name = bottom;
position = "{243.268, 0}";
},
{
name = ogonek;
position = "{439.268, 0}";
},
{
name = top;
position = "{409.518, 690}";
}
);
hints = (
{
place = "{29.088, -64.912}";
type = Stem;
},
{
horizontal = 1;
place = "{598.088, -20}";
target = down;
type = TopGhost;
},
{
horizontal = 1;
place = "{-86.912, 21}";
target = up;
type = BottomGhost;
},
{
place = "{128.088, -66.031}";
type = Stem;
},
{
place = "{340.088, -64.043}";
type = Stem;
},
{
horizontal = 1;
place = "{665.651, 21}";
target = up;
type = BottomGhost;
},
{
horizontal = 1;
place = "{771.047, -20}";
target = down;
type = TopGhost;
}
);
layerId = "6E968933-CD79-43C6-9231-80D77C940F4D";
paths = (
{
closed = 1;
nodes = (
"628.507 700 LINE",
"194.507 700 LINE",
"55.268 0 LINE",
"489.268 0 LINE",
"493.247 20 LINE",
"81.247 20 LINE",
"146.888 350 LINE",
"468.888 350 LINE",
"472.866 370 LINE",
"150.866 370 LINE",
"212.529 680 LINE",
"624.529 680 LINE"
);
},
{
closed = 1;
nodes = (
"569.092 873.867 LINE",
"548.092 873.867 LINE",
"536.818 817.192 OFFCURVE",
"494.291 784.38 OFFCURVE",
"432.291 784.38 CURVE",
"370.291 784.38 OFFCURVE",
"341.818 817.192 OFFCURVE",
"353.092 873.867 CURVE",
"332.092 873.867 LINE",
"331.103 868.896 LINE SMOOTH",
"321.609 821.17 OFFCURVE",
"343.534 765.489 OFFCURVE",
"428.534 765.489 CURVE",
"514.534 765.489 OFFCURVE",
"558.609 821.17 OFFCURVE",
"568.103 868.896 CURVE SMOOTH"
);
}
);
width = 624;
},
{
anchors = (
{
name = bottom;
position = "{258.47, 1}";
},
{
name = ogonek;
position = "{480.47, 1}";
},
{
name = top;
position = "{401.908, 702}";
}
);
hints = (
{
place = "{-40.039, 82.961}";
type = Stem;
},
{
horizontal = 1;
place = "{-93.039, 47.961}";
type = Stem;
},
{
horizontal = 1;
place = "{192.961, 47.961}";
type = Stem;
},
{
horizontal = 1;
place = "{465.961, 47.961}";
type = Stem;
},
{
place = "{44.961, -6.535}";
type = Stem;
},
{
place = "{301.961, -6.535}";
type = Stem;
},
{
horizontal = 1;
place = "{648.547, 35.226}";
type = Stem;
},
{
horizontal = 1;
place = "{648.547, 100.85}";
type = Stem;
}
);
layerId = "BAF31694-0472-4296-B0EA-1654553C45D2";
paths = (
{
closed = 1;
nodes = (
"669.51 700 LINE",
"144.51 700 LINE",
"5.271 0 LINE",
"530.262 0 LINE",
"559.313 146 LINE",
"208.313 146 LINE",
"236.359 287 LINE",
"485.359 287 LINE",
"512.411 423 LINE",
"263.411 423 LINE",
"289.469 554 LINE",
"640.469 554 LINE"
);
},
{
closed = 1;
nodes = (
"619.599 935.474 LINE",
"532.599 935.474 LINE",
"524.292 893.714 OFFCURVE",
"499.348 868.856 OFFCURVE",
"434.348 868.856 CURVE SMOOTH",
"369.348 868.856 OFFCURVE",
"354.292 893.714 OFFCURVE",
"362.599 935.474 CURVE",
"275.599 935.474 LINE",
"271.841 916.582 LINE SMOOTH",
"249.096 802.238 OFFCURVE",
"309.032 741.586 OFFCURVE",
"409.032 741.586 CURVE SMOOTH",
"510.032 741.586 OFFCURVE",
"593.096 802.238 OFFCURVE",
"615.841 916.582 CURVE SMOOTH"
);
}
);
width = 614.99962;
},
{
anchors = (
{
name = bottom;
position = "{257.273, 0}";
},
{
name = ogonek;
position = "{454.273, 0}";
},
{
name = top;
position = "{412.915, 697}";
}
);
hints = (
{
place = "{333.823, -23.177}";
type = Stem;
},
{
horizontal = 1;
place = "{167.823, -20}";
target = down;
type = TopGhost;
},
{
horizontal = 1;
place = "{-89.177, 21}";
target = up;
type = BottomGhost;
},
{
place = "{463.823, -25.036}";
type = Stem;
},
{
place = "{543.823, 20.063}";
type = Stem;
},
{
horizontal = 1;
place = "{286.321, 21}";
target = up;
type = BottomGhost;
},
{
horizontal = 1;
place = "{326.409, -20}";
target = down;
type = TopGhost;
}
);
layerId = "9F107B1E-3A61-4335-981B-27DD48125C7E";
paths = (
{
closed = 1;
nodes = (
"643.512 700 LINE",
"184.512 700 LINE",
"45.273 0 LINE",
"504.273 0 LINE",
"518.197 70 LINE",
"139.197 70 LINE",
"189.124 321 LINE",
"478.124 321 LINE",
"492.048 391 LINE",
"203.048 391 LINE",
"250.588 630 LINE",
"629.588 630 LINE"
);
},
{
closed = 1;
nodes = (
"594.127 896.641 LINE",
"545.127 896.641 LINE",
"535.159 846.531 OFFCURVE",
"503.378 817.467 OFFCURVE",
"439.378 817.467 CURVE",
"375.378 817.467 OFFCURVE",
"355.159 846.531 OFFCURVE",
"365.127 896.641 CURVE",
"317.127 896.641 LINE",
"314.136 881.608 LINE SMOOTH",
"300.182 811.454 OFFCURVE",
"335.819 754.329 OFFCURVE",
"426.819 754.329 CURVE",
"518.819 754.329 OFFCURVE",
"576.982 810.452 OFFCURVE",
"590.937 880.606 CURVE SMOOTH"
);
}
);
width = 629.00375;
}
);
leftMetricsKey = H;
rightMetricsKey = E;
unicode = 0114;
},
{
glyphname = Ecaron;
lastChange = "2021-08-30 20:28:08 +0000";
layers = (
{
anchors = (
{
name = bottom;
position = "{262.269, 0}";
},
{
name = ogonek;
position = "{459.269, 0}";
},
{
name = top;
position = "{411.707, 701}";
}
);
hints = (
{
place = "{-5.851, 23.149}";
type = Stem;
},
{
horizontal = 1;
place = "{-90.851, 2.149}";
type = Stem;
},
{
horizontal = 1;
place = "{217.149, 2.149}";
type = Stem;
},
{
horizontal = 1;
place = "{516.149, 2.149}";
type = Stem;
}
);
layerId = "0CF0EA28-C756-4A9E-9D7C-CFEF350B4CFE";
paths = (
{
closed = 1;
nodes = (
"648.508 700 LINE",
"174.508 700 LINE",
"35.269 0 LINE",
"509.269 0 LINE",
"528.166 95 LINE",
"168.166 95 LINE",
"210.335 307 LINE",
"480.335 307 LINE",
"499.232 402 LINE",
"229.232 402 LINE",
"269.611 605 LINE",
"629.611 605 LINE"
);
},
{
closed = 1;
nodes = (
"436.745 826.875 LINE",
"310.971 913.477 LINE",
"293.144 823.854 LINE",
"419.519 740.273 LINE",
"579.144 823.854 LINE",
"596.971 913.477 LINE"
);
}
);
width = 624;
},
{
anchors = (
{
name = bottom;
position = "{243.272, 0}";
},
{
name = ogonek;
position = "{439.272, 0}";
},
{
name = top;
position = "{409.521, 690}";
}
);
hints = (
{
place = "{29.682, -64.318}";
type = Stem;
},
{
horizontal = 1;
place = "{598.682, -20}";
target = down;
type = TopGhost;
},
{
horizontal = 1;
place = "{-86.318, 21}";
target = up;
type = BottomGhost;
}
);
layerId = "6E968933-CD79-43C6-9231-80D77C940F4D";
paths = (
{
closed = 1;
nodes = (
"628.51 700 LINE",
"194.51 700 LINE",
"55.272 0 LINE",
"489.272 0 LINE",
"493.25 20 LINE",
"81.25 20 LINE",
"146.891 350 LINE",
"468.891 350 LINE",
"472.869 370 LINE",
"150.869 370 LINE",
"212.532 680 LINE",
"624.532 680 LINE"
);
},
{
closed = 1;
nodes = (
"432.888 787.363 LINE",
"324.908 867.902 LINE",
"320.557 846.027 LINE",
"428.537 765.489 LINE",
"568.557 846.027 LINE",
"572.908 867.902 LINE"
);
}
);
width = 624;
},
{
anchors = (
{
name = bottom;
position = "{258.472, 1}";
},
{
name = ogonek;
position = "{480.472, 1}";
},
{
name = top;
position = "{401.91, 702}";
}
);
hints = (
{
place = "{-40.236, 82.764}";
type = Stem;
},
{
horizontal = 1;
place = "{-93.236, 47.764}";
type = Stem;
},
{
horizontal = 1;
place = "{192.764, 47.764}";
type = Stem;
},
{
horizontal = 1;
place = "{465.764, 47.764}";
type = Stem;
}
);
layerId = "BAF31694-0472-4296-B0EA-1654553C45D2";
paths = (
{
closed = 1;
nodes = (
"669.512 700 LINE",
"144.512 700 LINE",
"5.274 0 LINE",
"530.265 0 LINE",
"559.315 146 LINE",
"208.315 146 LINE",
"236.361 287 LINE",
"485.361 287 LINE",
"512.413 423 LINE",
"263.413 423 LINE",
"289.471 554 LINE",
"640.471 554 LINE"
);
},
{
closed = 1;
nodes = (
"429.79 850.959 LINE",
"290.996 937.463 LINE",
"267.065 817.152 LINE",
"407.639 739.597 LINE",
"579.065 817.152 LINE",
"602.996 937.463 LINE"
);
}
);
width = 614.99962;
},
{
anchors = (
{
name = bottom;
position = "{257.273, 0}";
},
{
name = ogonek;
position = "{454.273, 0}";
},
{
name = top;
position = "{412.915, 697}";
}
);
hints = (
{
place = "{333.823, -23.177}";
type = Stem;
},
{
horizontal = 1;
place = "{167.823, -20}";
target = down;
type = TopGhost;
},
{
horizontal = 1;
place = "{-89.177, 21}";
target = up;
type = BottomGhost;
}
);
layerId = "9F107B1E-3A61-4335-981B-27DD48125C7E";
paths = (
{
closed = 1;
nodes = (
"643.512 700 LINE",
"184.512 700 LINE",
"45.273 0 LINE",
"504.273 0 LINE",
"518.197 70 LINE",
"139.197 70 LINE",
"189.124 321 LINE",
"478.124 321 LINE",
"492.048 391 LINE",
"203.048 391 LINE",
"250.588 630 LINE",
"629.588 630 LINE"
);
},
{
closed = 1;
nodes = (
"438.381 812.456 LINE",
"319.127 896.641 LINE",
"306.368 832.5 LINE",
"426.021 750.32 LINE",
"578.368 832.5 LINE",
"591.127 896.641 LINE"
);
}
);
width = 629.00375;
}
);
leftMetricsKey = H;
rightMetricsKey = E;
unicode = 011A;
},
{
glyphname = Ecircumflex;
lastChange = "2021-08-30 20:28:08 +0000";
layers = (
{
anchors = (
{
name = bottom;
position = "{262.269, 0}";
},
{
name = ogonek;
position = "{459.269, 0}";
},
{
name = top;
position = "{411.707, 701}";
}
);
hints = (
{
place = "{-5.851, 23.149}";
type = Stem;
},
{
horizontal = 1;
place = "{-90.851, 2.149}";
type = Stem;
},
{
horizontal = 1;
place = "{217.149, 2.149}";
type = Stem;
},
{
horizontal = 1;
place = "{516.149, 2.149}";
type = Stem;
}
);
layerId = "0CF0EA28-C756-4A9E-9D7C-CFEF350B4CFE";
paths = (
{
closed = 1;
nodes = (
"648.508 700 LINE",
"174.508 700 LINE",
"35.269 0 LINE",
"509.269 0 LINE",
"528.166 95 LINE",
"168.166 95 LINE",
"210.335 307 LINE",
"480.335 307 LINE",
"499.232 402 LINE",
"229.232 402 LINE",
"269.611 605 LINE",
"629.611 605 LINE"
);
},
{
closed = 1;
nodes = (
"580.346 829.896 LINE",
"453.971 913.477 LINE",
"294.346 829.896 LINE",
"276.519 740.273 LINE",
"436.745 826.875 LINE",
"562.519 740.273 LINE"
);
}
);
width = 624;
},
{
anchors = (
{
name = bottom;
position = "{243.275, 0}";
},
{
name = ogonek;
position = "{439.275, 0}";
},
{
name = top;
position = "{409.525, 690}";
}
);
background = {
hints = (
{
horizontal = 1;
place = "{0, 48}";
type = Stem;
},
{
horizontal = 1;
place = "{329, 48}";
type = Stem;
},
{
horizontal = 1;
place = "{652, 48}";
type = Stem;
},
{
horizontal = 1;
place = "{765, 21}";
type = Stem;
},
{
horizontal = 1;
place = "{867, 20}";
type = Stem;
},
{
place = "{104, 52}";
type = Stem;
}
);
paths = (
{
closed = 1;
nodes = (
"648.89 0 LINE",
"648.89 48 LINE",
"197.89 48 LINE",
"197.89 329 LINE",
"598.89 329 LINE",
"598.89 377 LINE",
"197.89 377 LINE",
"197.89 652 LINE",
"643.89 652 LINE",
"643.89 700 LINE",
"145.89 700 LINE",
"145.89 0 LINE"
);
},
{
closed = 1;
nodes = (
"389.89 833 LINE",
"463.89 765 LINE",
"510.89 765 LINE",
"410.89 887 LINE",
"370.89 887 LINE",
"270.89 765 LINE",
"315.89 765 LINE"
);
}
);
};
hints = (
{
place = "{29.385, -64.615}";
type = Stem;
},
{
horizontal = 1;
place = "{598.385, -20}";
target = down;
type = TopGhost;
},
{
horizontal = 1;
place = "{-86.615, 21}";
target = up;
type = BottomGhost;
}
);
layerId = "6E968933-CD79-43C6-9231-80D77C940F4D";
paths = (
{
closed = 1;
nodes = (
"628.514 700 LINE",
"194.514 700 LINE",
"55.275 0 LINE",
"489.275 0 LINE",
"493.253 20 LINE",
"81.253 20 LINE",
"146.894 350 LINE",
"468.894 350 LINE",
"472.873 370 LINE",
"150.873 370 LINE",
"212.536 680 LINE",
"624.536 680 LINE"
);
},
{
closed = 1;
nodes = (
"557.485 790.346 LINE",
"449.505 870.885 LINE",
"309.485 790.346 LINE",
"305.134 768.472 LINE",
"445.154 849.01 LINE",
"553.134 768.472 LINE"
);
}
);
width = 624;
},
{
anchors = (
{
name = bottom;
position = "{258.472, 1}";
},
{
name = ogonek;
position = "{480.472, 1}";
},
{
name = top;
position = "{401.91, 702}";
}
);
hints = (
{
place = "{-40.236, 82.764}";
type = Stem;
},
{
horizontal = 1;
place = "{-93.236, 47.764}";
type = Stem;
},
{
horizontal = 1;
place = "{192.764, 47.764}";
type = Stem;
},
{
horizontal = 1;
place = "{465.764, 47.764}";
type = Stem;
}
);
layerId = "BAF31694-0472-4296-B0EA-1654553C45D2";
paths = (
{
closed = 1;
nodes = (
"669.512 700 LINE",
"144.512 700 LINE",
"5.274 0 LINE",
"530.265 0 LINE",
"559.315 146 LINE",
"208.315 146 LINE",
"236.361 287 LINE",
"485.361 287 LINE",
"512.413 423 LINE",
"263.413 423 LINE",
"289.471 554 LINE",
"640.471 554 LINE"
);
},
{
closed = 1;
nodes = (
"587.57 859.907 LINE",
"446.996 937.463 LINE",
"275.57 859.907 LINE",
"251.639 739.597 LINE",
"423.659 820.135 LINE",
"563.639 739.597 LINE"
);
}
);
width = 614.99962;
},
{
anchors = (
{
name = bottom;
position = "{257.274, 0}";
},
{
name = ogonek;
position = "{454.274, 0}";
},
{
name = top;
position = "{412.916, 697}";
}
);
hints = (
{
place = "{333.724, -23.276}";
type = Stem;
},
{
horizontal = 1;
place = "{167.724, -20}";
target = down;
type = TopGhost;
},
{
horizontal = 1;
place = "{-89.276, 21}";
target = up;
type = BottomGhost;
}
);
layerId = "9F107B1E-3A61-4335-981B-27DD48125C7E";
paths = (
{
closed = 1;
nodes = (
"643.512 700 LINE",
"184.512 700 LINE",
"45.274 0 LINE",
"504.274 0 LINE",
"518.198 70 LINE",
"139.198 70 LINE",
"189.125 321 LINE",
"478.125 321 LINE",
"492.049 391 LINE",
"203.049 391 LINE",
"250.589 630 LINE",
"629.589 630 LINE"
);
},
{
closed = 1;
nodes = (
"574.979 815.463 LINE",
"455.326 897.643 LINE",
"302.979 815.463 LINE",
"290.221 751.322 LINE",
"442.966 835.507 LINE",
"562.221 751.322 LINE"
);
}
);
width = 629.00375;
}
);
leftMetricsKey = H;
rightMetricsKey = E;
unicode = 00CA;
},
{
glyphname = Edieresis;
lastChange = "2021-08-30 20:28:08 +0000";
layers = (
{
anchors = (
{
name = bottom;
position = "{262.272, 0}";
},
{
name = ogonek;
position = "{459.272, 0}";
},
{
name = top;
position = "{411.71, 701}";
}
);
hints = (
{
place = "{-3.648, 25.352}";
type = Stem;
},
{
horizontal = 1;
place = "{-88.648, 4.352}";
type = Stem;
},
{
horizontal = 1;
place = "{219.352, 4.352}";
type = Stem;
},
{
horizontal = 1;
place = "{518.352, 4.352}";
type = Stem;
},
{
place = "{86.602, 32.192}";
type = Stem;
},
{
place = "{258.602, 32.192}";
type = Stem;
},
{
horizontal = 1;
place = "{681.835, 32.192}";
type = Stem;
}
);
layerId = "0CF0EA28-C756-4A9E-9D7C-CFEF350B4CFE";
paths = (
{
closed = 1;
nodes = (
"648.511 700 LINE",
"174.511 700 LINE",
"35.272 0 LINE",
"509.272 0 LINE",
"528.169 95 LINE",
"168.169 95 LINE",
"210.339 307 LINE",
"480.339 307 LINE",
"499.235 402 LINE",
"229.235 402 LINE",
"269.614 605 LINE",
"629.614 605 LINE"
);
},
{
closed = 1;
nodes = (
"372.531 770.483 OFFCURVE",
"404.739 796.665 OFFCURVE",
"411.549 830.903 CURVE SMOOTH",
"418.159 864.134 OFFCURVE",
"396.568 891.323 OFFCURVE",
"363.568 891.323 CURVE SMOOTH",
"329.568 891.323 OFFCURVE",
"298.159 864.134 OFFCURVE",
"291.549 830.903 CURVE SMOOTH",
"284.739 796.665 OFFCURVE",
"305.531 770.483 OFFCURVE",
"339.531 770.483 CURVE SMOOTH"
);
},
{
closed = 1;
nodes = (
"544.531 770.483 OFFCURVE",
"576.739 796.665 OFFCURVE",
"583.549 830.903 CURVE SMOOTH",
"590.159 864.134 OFFCURVE",
"568.568 891.323 OFFCURVE",
"535.568 891.323 CURVE SMOOTH",
"501.568 891.323 OFFCURVE",
"470.159 864.134 OFFCURVE",
"463.549 830.903 CURVE SMOOTH",
"456.739 796.665 OFFCURVE",
"477.531 770.483 OFFCURVE",
"511.531 770.483 CURVE SMOOTH"
);
}
);
width = 624;
},
{
anchors = (
{
name = bottom;
position = "{243.27, 0}";
},
{
name = ogonek;
position = "{439.27, 0}";
},
{
name = top;
position = "{409.519, 690}";
}
);
background = {
hints = (
{
horizontal = 1;
place = "{0, 48}";
type = Stem;
},
{
horizontal = 1;
place = "{329, 48}";
type = Stem;
},
{
horizontal = 1;
place = "{652, 48}";
type = Stem;
},
{
horizontal = 1;
place = "{765, 80}";
type = Stem;
},
{
place = "{104, 52}";
type = Stem;
},
{
place = "{233, 69}";
type = Stem;
},
{
place = "{396, 69}";
type = Stem;
}
);
paths = (
{
closed = 1;
nodes = (
"645.72 0 LINE",
"645.72 48 LINE",
"194.72 48 LINE",
"194.72 329 LINE",
"595.72 329 LINE",
"595.72 377 LINE",
"194.72 377 LINE",
"194.72 652 LINE",
"640.72 652 LINE",
"640.72 700 LINE",
"142.72 700 LINE",
"142.72 0 LINE"
);
},
{
closed = 1;
nodes = (
"503.72 765 LINE",
"503.72 845 LINE",
"434.72 845 LINE",
"434.72 765 LINE"
);
},
{
closed = 1;
nodes = (
"340.72 765 LINE",
"340.72 845 LINE",
"271.72 845 LINE",
"271.72 765 LINE"
);
}
);
};
hints = (
{
place = "{32.55, -61.45}";
type = Stem;
},
{
horizontal = 1;
place = "{601.55, -20}";
target = down;
type = TopGhost;
},
{
horizontal = 1;
place = "{-83.45, 21}";
target = up;
type = BottomGhost;
},
{
place = "{140.55, -22.798}";
type = Stem;
},
{
place = "{275.55, -23.792}";
type = Stem;
},
{
horizontal = 1;
place = "{692.976, -22.798}";
type = Stem;
}
);
layerId = "6E968933-CD79-43C6-9231-80D77C940F4D";
paths = (
{
closed = 1;
nodes = (
"628.508 700 LINE",
"194.508 700 LINE",
"55.27 0 LINE",
"489.27 0 LINE",
"493.248 20 LINE",
"81.248 20 LINE",
"146.889 350 LINE",
"468.889 350 LINE",
"472.867 370 LINE",
"150.867 370 LINE",
"212.53 680 LINE",
"624.53 680 LINE"
);
},
{
closed = 1;
nodes = (
"381.106 778.415 OFFCURVE",
"397.875 792.335 OFFCURVE",
"401.039 808.244 CURVE SMOOTH",
"404.402 825.147 OFFCURVE",
"393.17 839.067 OFFCURVE",
"376.17 839.067 CURVE SMOOTH",
"359.17 839.067 OFFCURVE",
"343.402 825.147 OFFCURVE",
"340.039 808.244 CURVE SMOOTH",
"336.875 792.335 OFFCURVE",
"347.106 778.415 OFFCURVE",
"364.106 778.415 CURVE SMOOTH"
);
},
{
closed = 1;
nodes = (
"515.106 778.415 OFFCURVE",
"531.875 792.335 OFFCURVE",
"535.039 808.244 CURVE SMOOTH",
"538.402 825.147 OFFCURVE",
"527.17 839.067 OFFCURVE",
"511.17 839.067 CURVE SMOOTH",
"494.17 839.067 OFFCURVE",
"477.402 825.147 OFFCURVE",
"474.039 808.244 CURVE SMOOTH",
"470.875 792.335 OFFCURVE",
"482.106 778.415 OFFCURVE",
"499.106 778.415 CURVE SMOOTH"
);
}
);
width = 624;
},
{
anchors = (
{
name = bottom;
position = "{258.474, 1}";
},
{
name = ogonek;
position = "{480.474, 1}";
},
{
name = top;
position = "{401.911, 702}";
}
);
hints = (
{
place = "{-37.665, 85.335}";
type = Stem;
},
{
horizontal = 1;
place = "{-90.665, 50.335}";
type = Stem;
},
{
horizontal = 1;
place = "{195.335, 50.335}";
type = Stem;
},
{
horizontal = 1;
place = "{468.335, 50.335}";
type = Stem;
},
{
place = "{42.335, 58.48}";
type = Stem;
},
{
place = "{245.335, 58.48}";
type = Stem;
},
{
horizontal = 1;
place = "{671.801, 58.48}";
type = Stem;
}
);
layerId = "BAF31694-0472-4296-B0EA-1654553C45D2";
paths = (
{
closed = 1;
nodes = (
"669.513 700 LINE",
"144.513 700 LINE",
"5.275 0 LINE",
"530.266 0 LINE",
"559.316 146 LINE",
"208.316 146 LINE",
"236.362 287 LINE",
"485.362 287 LINE",
"512.415 423 LINE",
"263.415 423 LINE",
"289.472 554 LINE",
"640.472 554 LINE"
);
},
{
closed = 1;
nodes = (
"353.189 762.466 OFFCURVE",
"392.517 794.284 OFFCURVE",
"400.824 836.044 CURVE SMOOTH",
"409.329 878.799 OFFCURVE",
"382.855 911.611 OFFCURVE",
"339.855 911.611 CURVE SMOOTH",
"297.855 911.611 OFFCURVE",
"259.329 878.799 OFFCURVE",
"250.824 836.044 CURVE SMOOTH",
"242.517 794.284 OFFCURVE",
"268.189 762.466 OFFCURVE",
"310.189 762.466 CURVE SMOOTH"
);
},
{
closed = 1;
nodes = (
"556.189 762.466 OFFCURVE",
"594.517 794.284 OFFCURVE",
"602.824 836.044 CURVE SMOOTH",
"611.329 878.799 OFFCURVE",
"585.855 911.611 OFFCURVE",
"542.855 911.611 CURVE SMOOTH",
"500.855 911.611 OFFCURVE",
"462.329 878.799 OFFCURVE",
"453.824 836.044 CURVE SMOOTH",
"445.517 794.284 OFFCURVE",
"471.189 762.466 OFFCURVE",
"513.189 762.466 CURVE SMOOTH"
);
}
);
width = 614.99962;
},
{
anchors = (
{
name = bottom;
position = "{257.275, 0}";
},
{
name = ogonek;
position = "{454.275, 0}";
},
{
name = top;
position = "{412.917, 697}";
}
);
hints = (
{
place = "{336.415, -20.585}";
type = Stem;
},
{
horizontal = 1;
place = "{170.415, -20}";
target = down;
type = TopGhost;
},
{
horizontal = 1;
place = "{-86.585, 21}";
target = up;
type = BottomGhost;
},
{
place = "{106.415, 11.631}";
type = Stem;
},
{
place = "{264.415, 11.631}";
type = Stem;
},
{
horizontal = 1;
place = "{686.786, 11.631}";
type = Stem;
}
);
layerId = "9F107B1E-3A61-4335-981B-27DD48125C7E";
paths = (
{
closed = 1;
nodes = (
"643.514 700 LINE",
"184.514 700 LINE",
"45.275 0 LINE",
"504.275 0 LINE",
"518.199 70 LINE",
"139.199 70 LINE",
"189.126 321 LINE",
"478.126 321 LINE",
"492.05 391 LINE",
"203.05 391 LINE",
"250.59 630 LINE",
"629.59 630 LINE"
);
},
{
closed = 1;
nodes = (
"378.409 772.368 OFFCURVE",
"404.595 793.415 OFFCURVE",
"409.977 820.474 CURVE SMOOTH",
"415.36 847.533 OFFCURVE",
"397.945 870.584 OFFCURVE",
"370.945 870.584 CURVE SMOOTH",
"342.945 870.584 OFFCURVE",
"317.36 847.533 OFFCURVE",
"311.977 820.474 CURVE SMOOTH",
"306.595 793.415 OFFCURVE",
"323.409 772.368 OFFCURVE",
"351.409 772.368 CURVE SMOOTH"
);
},
{
closed = 1;
nodes = (
"535.409 772.368 OFFCURVE",
"562.595 793.415 OFFCURVE",
"567.977 820.474 CURVE SMOOTH",
"573.36 847.533 OFFCURVE",
"554.945 870.584 OFFCURVE",
"528.945 870.584 CURVE SMOOTH",
"500.945 870.584 OFFCURVE",
"475.36 847.533 OFFCURVE",
"469.977 820.474 CURVE SMOOTH",
"464.595 793.415 OFFCURVE",
"481.409 772.368 OFFCURVE",
"509.409 772.368 CURVE SMOOTH"
);
}
);
width = 629.00375;
}
);
leftMetricsKey = H;
rightMetricsKey = E;
unicode = 00CB;
},
{
glyphname = Edotaccent;
lastChange = "2021-08-30 20:28:08 +0000";
layers = (
{
anchors = (
{
name = bottom;
position = "{262.272, 0}";
},
{
name = ogonek;
position = "{459.272, 0}";
},
{
name = top;
position = "{411.71, 701}";
}
);
hints = (
{
place = "{-3.648, 25.352}";
type = Stem;
},
{
horizontal = 1;
place = "{-88.648, 4.352}";
type = Stem;
},
{
horizontal = 1;
place = "{219.352, 4.352}";
type = Stem;
},
{
horizontal = 1;
place = "{518.352, 4.352}";
type = Stem;
},
{
place = "{172.602, 32.192}";
type = Stem;
},
{
horizontal = 1;
place = "{681.835, 32.192}";
type = Stem;
}
);
layerId = "0CF0EA28-C756-4A9E-9D7C-CFEF350B4CFE";
paths = (
{
closed = 1;
nodes = (
"648.511 700 LINE",
"174.511 700 LINE",
"35.272 0 LINE",
"509.272 0 LINE",
"528.169 95 LINE",
"168.169 95 LINE",
"210.339 307 LINE",
"480.339 307 LINE",
"499.235 402 LINE",
"229.235 402 LINE",
"269.614 605 LINE",
"629.614 605 LINE"
);
},
{
closed = 1;
nodes = (
"458.531 770.483 OFFCURVE",
"490.739 796.665 OFFCURVE",
"497.549 830.903 CURVE SMOOTH",
"504.159 864.134 OFFCURVE",
"482.568 891.323 OFFCURVE",
"449.568 891.323 CURVE SMOOTH",
"415.568 891.323 OFFCURVE",
"384.159 864.134 OFFCURVE",
"377.549 830.903 CURVE SMOOTH",
"370.739 796.665 OFFCURVE",
"391.531 770.483 OFFCURVE",
"425.531 770.483 CURVE SMOOTH"
);
}
);
width = 624;
},
{
anchors = (
{
name = bottom;
position = "{243.268, 0}";
},
{
name = ogonek;
position = "{439.268, 0}";
},
{
name = top;
position = "{409.518, 690}";
}
);
hints = (
{
place = "{34.638, -59.362}";
type = Stem;
},
{
horizontal = 1;
place = "{603.638, -20}";
target = down;
type = TopGhost;
},
{
horizontal = 1;
place = "{-81.362, 21}";
target = up;
type = BottomGhost;
},
{
place = "{209.638, -20.71}";
type = Stem;
},
{
horizontal = 1;
place = "{674.064, -20.71}";
type = Stem;
}
);
layerId = "6E968933-CD79-43C6-9231-80D77C940F4D";
paths = (
{
closed = 1;
nodes = (
"628.507 700 LINE",
"194.507 700 LINE",
"55.268 0 LINE",
"489.268 0 LINE",
"493.246 20 LINE",
"81.246 20 LINE",
"146.888 350 LINE",
"468.888 350 LINE",
"472.866 370 LINE",
"150.866 370 LINE",
"212.529 680 LINE",
"624.529 680 LINE"
);
},
{
closed = 1;
nodes = (
"443.927 757.415 OFFCURVE",
"460.696 771.335 OFFCURVE",
"463.861 787.244 CURVE SMOOTH",
"467.223 804.147 OFFCURVE",
"455.992 818.067 OFFCURVE",
"438.992 818.067 CURVE SMOOTH",
"422.992 818.067 OFFCURVE",
"406.223 804.147 OFFCURVE",
"402.861 787.244 CURVE SMOOTH",
"399.696 771.335 OFFCURVE",
"410.927 757.415 OFFCURVE",
"426.927 757.415 CURVE SMOOTH"
);
}
);
width = 624;
},
{
anchors = (
{
name = bottom;
position = "{258.474, 1}";
},
{
name = ogonek;
position = "{480.474, 1}";
},
{
name = top;
position = "{401.911, 702}";
}
);
hints = (
{
place = "{-37.665, 85.335}";
type = Stem;
},
{
horizontal = 1;
place = "{-90.665, 50.335}";
type = Stem;
},
{
horizontal = 1;
place = "{195.335, 50.335}";
type = Stem;
},
{
horizontal = 1;
place = "{468.335, 50.335}";
type = Stem;
},
{
place = "{143.335, 58.48}";
type = Stem;
},
{
horizontal = 1;
place = "{671.801, 58.48}";
type = Stem;
}
);
layerId = "BAF31694-0472-4296-B0EA-1654553C45D2";
paths = (
{
closed = 1;
nodes = (
"669.513 700 LINE",
"144.513 700 LINE",
"5.275 0 LINE",
"530.266 0 LINE",
"559.316 146 LINE",
"208.316 146 LINE",
"236.362 287 LINE",
"485.362 287 LINE",
"512.415 423 LINE",
"263.415 423 LINE",
"289.472 554 LINE",
"640.472 554 LINE"
);
},
{
closed = 1;
nodes = (
"454.189 762.466 OFFCURVE",
"493.517 794.284 OFFCURVE",
"501.824 836.044 CURVE SMOOTH",
"510.329 878.799 OFFCURVE",
"483.855 911.611 OFFCURVE",
"440.855 911.611 CURVE SMOOTH",
"398.855 911.611 OFFCURVE",
"360.329 878.799 OFFCURVE",
"351.824 836.044 CURVE SMOOTH",
"343.517 794.284 OFFCURVE",
"369.189 762.466 OFFCURVE",
"411.189 762.466 CURVE SMOOTH"
);
}
);
width = 614.99962;
},
{
anchors = (
{
name = bottom;
position = "{257.271, 0}";
},
{
name = ogonek;
position = "{454.271, 0}";
},
{
name = top;
position = "{412.913, 697}";
}
);
hints = (
{
place = "{337.211, -19.789}";
type = Stem;
},
{
horizontal = 1;
place = "{171.211, -20}";
target = down;
type = TopGhost;
},
{
horizontal = 1;
place = "{-85.789, 21}";
target = up;
type = BottomGhost;
},
{
place = "{186.211, 12.426}";
type = Stem;
},
{
horizontal = 1;
place = "{679.581, 12.426}";
type = Stem;
}
);
layerId = "9F107B1E-3A61-4335-981B-27DD48125C7E";
paths = (
{
closed = 1;
nodes = (
"643.509 700 LINE",
"184.509 700 LINE",
"45.271 0 LINE",
"504.271 0 LINE",
"518.195 70 LINE",
"139.195 70 LINE",
"189.122 321 LINE",
"478.122 321 LINE",
"492.045 391 LINE",
"203.045 391 LINE",
"250.585 630 LINE",
"629.585 630 LINE"
);
},
{
closed = 1;
nodes = (
"455.813 764.368 OFFCURVE",
"481.999 785.415 OFFCURVE",
"487.382 812.474 CURVE SMOOTH",
"492.764 839.533 OFFCURVE",
"475.349 862.584 OFFCURVE",
"448.349 862.584 CURVE SMOOTH",
"420.349 862.584 OFFCURVE",
"394.764 839.533 OFFCURVE",
"389.382 812.474 CURVE SMOOTH",
"383.999 785.415 OFFCURVE",
"400.813 764.368 OFFCURVE",
"428.813 764.368 CURVE SMOOTH"
);
}
);
width = 629.00375;
}
);
leftMetricsKey = H;
rightMetricsKey = E;
unicode = 0116;
},
{
glyphname = Egrave;
lastChange = "2021-08-30 20:28:08 +0000";
layers = (
{
anchors = (
{
name = bottom;
position = "{262.274, 0}";
},
{
name = ogonek;
position = "{459.274, 0}";
},
{
name = top;
position = "{411.712, 701}";
}
);
hints = (
{
place = "{-9.156, 19.844}";
type = Stem;
},
{
horizontal = 1;
place = "{-94.156, -1.156}";
type = Stem;
},
{
horizontal = 1;
place = "{213.844, -1.156}";
type = Stem;
},
{
horizontal = 1;
place = "{512.844, -1.156}";
type = Stem;
}
);
layerId = "0CF0EA28-C756-4A9E-9D7C-CFEF350B4CFE";
paths = (
{
closed = 1;
nodes = (
"648.513 700 LINE",
"174.513 700 LINE",
"35.274 0 LINE",
"509.274 0 LINE",
"528.171 95 LINE",
"168.171 95 LINE",
"210.34 307 LINE",
"480.34 307 LINE",
"499.237 402 LINE",
"229.237 402 LINE",
"269.616 605 LINE",
"629.616 605 LINE"
);
},
{
closed = 1;
nodes = (
"323.557 851.043 LINE",
"522.523 740.273 LINE",
"539.349 824.861 LINE",
"342.586 946.708 LINE"
);
}
);
width = 624;
},
{
anchors = (
{
name = bottom;
position = "{243.275, 0}";
},
{
name = ogonek;
position = "{439.275, 0}";
},
{
name = top;
position = "{409.525, 690}";
}
);
background = {
hints = (
{
horizontal = 1;
place = "{0, 48}";
type = Stem;
},
{
horizontal = 1;
place = "{329, 48}";
type = Stem;
},
{
horizontal = 1;
place = "{652, 48}";
type = Stem;
},
{
horizontal = 1;
place = "{765, 21}";
type = Stem;
},
{
horizontal = 1;
place = "{878, 20}";
type = Stem;
},
{
place = "{104, 52}";
type = Stem;
}
);
paths = (
{
closed = 1;
nodes = (
"650.67 0 LINE",
"650.67 48 LINE",
"199.67 48 LINE",
"199.67 329 LINE",
"600.67 329 LINE",
"600.67 377 LINE",
"199.67 377 LINE",
"199.67 652 LINE",
"645.67 652 LINE",
"645.67 700 LINE",
"147.67 700 LINE",
"147.67 0 LINE"
);
},
{
closed = 1;
nodes = (
"392.67 765 LINE",
"434.67 765 LINE",
"346.67 898 LINE",
"285.67 868 LINE"
);
}
);
};
hints = (
{
place = "{27.605, -66.395}";
type = Stem;
},
{
horizontal = 1;
place = "{596.605, -20}";
target = down;
type = TopGhost;
},
{
horizontal = 1;
place = "{-88.395, 21}";
target = up;
type = BottomGhost;
}
);
layerId = "6E968933-CD79-43C6-9231-80D77C940F4D";
paths = (
{
closed = 1;
nodes = (
"628.514 700 LINE",
"194.514 700 LINE",
"55.275 0 LINE",
"489.275 0 LINE",
"493.253 20 LINE",
"81.253 20 LINE",
"146.894 350 LINE",
"468.894 350 LINE",
"472.873 370 LINE",
"150.873 370 LINE",
"212.536 680 LINE",
"624.536 680 LINE"
);
},
{
closed = 1;
nodes = (
"341.12 863.924 LINE",
"502.409 734.665 LINE",
"506.563 755.546 LINE",
"346.065 888.782 LINE"
);
}
);
width = 624;
},
{
anchors = (
{
name = bottom;
position = "{258.47, 1}";
},
{
name = ogonek;
position = "{480.47, 1}";
},
{
name = top;
position = "{401.908, 702}";
}
);
hints = (
{
place = "{-43.599, 79.401}";
type = Stem;
},
{
horizontal = 1;
place = "{-96.599, 44.401}";
type = Stem;
},
{
horizontal = 1;
place = "{189.401, 44.401}";
type = Stem;
},
{
horizontal = 1;
place = "{462.401, 44.401}";
type = Stem;
}
);
layerId = "BAF31694-0472-4296-B0EA-1654553C45D2";
paths = (
{
closed = 1;
nodes = (
"669.51 700 LINE",
"144.51 700 LINE",
"5.271 0 LINE",
"530.262 0 LINE",
"559.312 146 LINE",
"208.312 146 LINE",
"236.359 287 LINE",
"485.359 287 LINE",
"512.411 423 LINE",
"263.411 423 LINE",
"289.469 554 LINE",
"640.469 554 LINE"
);
},
{
closed = 1;
nodes = (
"301.821 836.044 LINE",
"525.241 737.608 LINE",
"549.172 857.919 LINE",
"328.719 971.269 LINE"
);
}
);
width = 614.99962;
},
{
anchors = (
{
name = bottom;
position = "{257.273, 0}";
},
{
name = ogonek;
position = "{454.273, 0}";
},
{
name = top;
position = "{412.915, 697}";
}
);
hints = (
{
place = "{330.933, -26.067}";
type = Stem;
},
{
horizontal = 1;
place = "{164.933, -20}";
target = down;
type = TopGhost;
},
{
horizontal = 1;
place = "{-92.067, 21}";
target = up;
type = BottomGhost;
}
);
layerId = "9F107B1E-3A61-4335-981B-27DD48125C7E";
paths = (
{
closed = 1;
nodes = (
"643.512 700 LINE",
"184.512 700 LINE",
"45.273 0 LINE",
"504.273 0 LINE",
"518.197 70 LINE",
"139.197 70 LINE",
"189.124 321 LINE",
"478.124 321 LINE",
"492.048 391 LINE",
"203.048 391 LINE",
"250.588 630 LINE",
"629.588 630 LINE"
);
},
{
closed = 1;
nodes = (
"333.152 856.553 LINE",
"518.027 740.298 LINE",
"529.988 800.43 LINE",
"346.907 925.705 LINE"
);
}
);
width = 629.00375;
}
);
leftMetricsKey = H;
rightMetricsKey = E;
unicode = 00C8;
},
{
glyphname = Emacron;
lastChange = "2021-08-30 20:28:08 +0000";
layers = (
{
anchors = (
{
name = bottom;
position = "{262.275, 0}";
},
{
name = ogonek;
position = "{459.275, 0}";
},
{
name = top;
position = "{411.713, 701}";
}
);
hints = (
{
place = "{-1.645, 27.355}";
type = Stem;
},
{
horizontal = 1;
place = "{-86.645, 6.355}";
type = Stem;
},
{
horizontal = 1;
place = "{221.355, 6.355}";
type = Stem;
},
{
horizontal = 1;
place = "{520.355, 6.355}";
type = Stem;
},
{
horizontal = 1;
place = "{698.943, -1.05}";
type = Stem;
}
);
layerId = "0CF0EA28-C756-4A9E-9D7C-CFEF350B4CFE";
paths = (
{
closed = 1;
nodes = (
"648.514 700 LINE",
"174.514 700 LINE",
"35.275 0 LINE",
"509.275 0 LINE",
"528.172 95 LINE",
"168.172 95 LINE",
"210.342 307 LINE",
"480.342 307 LINE",
"499.238 402 LINE",
"229.238 402 LINE",
"269.617 605 LINE",
"629.617 605 LINE"
);
},
{
closed = 1;
nodes = (
"245.539 785.588 LINE",
"611.539 785.588 LINE",
"628.565 871.183 LINE",
"262.565 871.183 LINE"
);
}
);
width = 624;
},
{
anchors = (
{
name = bottom;
position = "{243.276, 0}";
},
{
name = ogonek;
position = "{439.276, 0}";
},
{
name = top;
position = "{409.526, 690}";
}
);
hints = (
{
place = "{33.736, -60.264}";
type = Stem;
},
{
horizontal = 1;
place = "{602.736, -20}";
target = down;
type = TopGhost;
},
{
horizontal = 1;
place = "{-82.264, 21}";
target = up;
type = BottomGhost;
},
{
horizontal = 1;
place = "{712.06, 21}";
target = up;
type = BottomGhost;
},
{
horizontal = 1;
place = "{729.957, -20}";
target = down;
type = TopGhost;
}
);
layerId = "6E968933-CD79-43C6-9231-80D77C940F4D";
paths = (
{
closed = 1;
nodes = (
"628.515 700 LINE",
"194.515 700 LINE",
"55.276 0 LINE",
"489.276 0 LINE",
"493.255 20 LINE",
"81.255 20 LINE",
"146.896 350 LINE",
"468.896 350 LINE",
"472.874 370 LINE",
"150.874 370 LINE",
"212.537 680 LINE",
"624.537 680 LINE"
);
},
{
closed = 1;
nodes = (
"281.848 807.249 LINE",
"591.848 807.249 LINE",
"595.804 827.135 LINE",
"285.804 827.135 LINE"
);
}
);
width = 624;
},
{
anchors = (
{
name = bottom;
position = "{258.469, 1}";
},
{
name = ogonek;
position = "{480.469, 1}";
},
{
name = top;
position = "{401.907, 702}";
}
);
hints = (
{
place = "{-35.49, 87.51}";
type = Stem;
},
{
horizontal = 1;
place = "{-88.49, 52.51}";
type = Stem;
},
{
horizontal = 1;
place = "{197.51, 52.51}";
type = Stem;
},
{
horizontal = 1;
place = "{470.51, 52.51}";
type = Stem;
},
{
horizontal = 1;
place = "{681.931, 31.821}";
type = Stem;
}
);
layerId = "BAF31694-0472-4296-B0EA-1654553C45D2";
paths = (
{
closed = 1;
nodes = (
"669.509 700 LINE",
"144.509 700 LINE",
"5.27 0 LINE",
"530.261 0 LINE",
"559.311 146 LINE",
"208.311 146 LINE",
"236.358 287 LINE",
"485.358 287 LINE",
"512.41 423 LINE",
"263.41 423 LINE",
"289.468 554 LINE",
"640.468 554 LINE"
);
},
{
closed = 1;
nodes = (
"212.766 770.42 LINE",
"615.766 770.42 LINE",
"639.5 889.736 LINE",
"236.5 889.736 LINE"
);
}
);
width = 614.99962;
},
{
anchors = (
{
name = bottom;
position = "{257.27, 0}";
},
{
name = ogonek;
position = "{454.27, 0}";
},
{
name = top;
position = "{412.912, 697}";
}
);
hints = (
{
place = "{338.01, -18.99}";
type = Stem;
},
{
horizontal = 1;
place = "{172.01, -20}";
target = down;
type = TopGhost;
},
{
horizontal = 1;
place = "{-84.99, 21}";
target = up;
type = BottomGhost;
},
{
horizontal = 1;
place = "{306.542, 21}";
target = up;
type = BottomGhost;
},
{
horizontal = 1;
place = "{313.558, -20}";
target = down;
type = TopGhost;
}
);
layerId = "9F107B1E-3A61-4335-981B-27DD48125C7E";
paths = (
{
closed = 1;
nodes = (
"643.508 700 LINE",
"184.508 700 LINE",
"45.27 0 LINE",
"504.27 0 LINE",
"518.194 70 LINE",
"139.194 70 LINE",
"189.121 321 LINE",
"478.121 321 LINE",
"492.045 391 LINE",
"203.045 391 LINE",
"250.585 630 LINE",
"629.585 630 LINE"
);
},
{
closed = 1;
nodes = (
"262.789 794.417 LINE",
"607.789 794.417 LINE",
"619.75 854.549 LINE",
"274.75 854.549 LINE"
);
}
);
width = 628.99375;
}
);
leftMetricsKey = H;
rightMetricsKey = E;
unicode = 0112;
},
{
glyphname = Eogonek;
lastChange = "2021-08-30 20:28:08 +0000";
layers = (
{
anchors = (
{
name = bottom;
position = "{262.273, 0}";
},
{
name = ogonek;
position = "{459.273, 0}";
},
{
name = top;
position = "{411.71, 701}";
}
);
hints = (
{
place = "{36.513, 65.513}";
type = Stem;
},
{
horizontal = 1;
place = "{-48.487, 44.513}";
type = Stem;
},
{
horizontal = 1;
place = "{259.513, 44.513}";
type = Stem;
},
{
horizontal = 1;
place = "{558.513, 44.513}";
type = Stem;
},
{
place = "{252.513, 45.164}";
type = Stem;
},
{
place = "{252.513, 167.011}";
type = Stem;
},
{
horizontal = 1;
place = "{-260.964, 26.031}";
type = Stem;
}
);
layerId = "0CF0EA28-C756-4A9E-9D7C-CFEF350B4CFE";
paths = (
{
closed = 1;
nodes = (
"648.511 700 LINE",
"174.511 700 LINE",
"35.273 0 LINE",
"509.273 0 LINE",
"528.169 95 LINE",
"168.169 95 LINE",
"210.339 307 LINE",
"480.339 307 LINE",
"499.236 402 LINE",
"229.236 402 LINE",
"269.615 605 LINE",
"629.615 605 LINE"
);
},
{
closed = 1;
nodes = (
"386.835 39.273 LINE SMOOTH",
"284.222 -4.028 OFFCURVE",
"241.607 -52.364 OFFCURVE",
"231.391 -103.721 CURVE SMOOTH",
"215.367 -184.281 OFFCURVE",
"279.759 -212.477 OFFCURVE",
"342.759 -212.477 CURVE SMOOTH",
"371.759 -212.477 OFFCURVE",
"401.96 -206.435 OFFCURVE",
"426.763 -197.372 CURVE",
"441.385 -123.861 LINE",
"416.583 -132.924 OFFCURVE",
"391.581 -137.959 OFFCURVE",
"372.581 -137.959 CURVE SMOOTH",
"338.581 -137.959 OFFCURVE",
"321.187 -119.833 OFFCURVE",
"326.795 -91.637 CURVE SMOOTH",
"331.602 -67.469 OFFCURVE",
"349.608 -47.329 OFFCURVE",
"397.015 -25.175 CURVE SMOOTH",
"451.023 0 LINE",
"432.64 58.406 LINE"
);
}
);
width = 624;
},
{
anchors = (
{
name = bottom;
position = "{243.27, 0}";
},
{
name = ogonek;
position = "{439.27, 0}";
},
{
name = top;
position = "{409.519, 690}";
}
);
hints = (
{
place = "{65.17, -28.83}";
type = Stem;
},
{
horizontal = 1;
place = "{634.17, -20}";
target = down;
type = TopGhost;
},
{
horizontal = 1;
place = "{-50.83, 21}";
target = up;
type = BottomGhost;
},
{
place = "{216.17, -29.95}";
type = Stem;
},
{
horizontal = 1;
place = "{-235.77, 21}";
target = up;
type = BottomGhost;
}
);
layerId = "6E968933-CD79-43C6-9231-80D77C940F4D";
paths = (
{
closed = 1;
nodes = (
"628.508 700 LINE",
"194.508 700 LINE",
"55.27 0 LINE",
"489.27 0 LINE",
"493.248 20 LINE",
"81.248 20 LINE",
"146.889 350 LINE",
"468.889 350 LINE",
"472.867 370 LINE",
"150.867 370 LINE",
"212.53 680 LINE",
"624.53 680 LINE"
);
},
{
closed = 1;
nodes = (
"311.303 -14.915 LINE SMOOTH",
"242.765 -42.755 OFFCURVE",
"212.041 -76.561 OFFCURVE",
"204.327 -115.339 CURVE SMOOTH",
"194.241 -166.048 OFFCURVE",
"228.692 -188.917 OFFCURVE",
"279.692 -188.917 CURVE SMOOTH",
"299.692 -188.917 OFFCURVE",
"322.483 -184.94 OFFCURVE",
"345.065 -176.985 CURVE",
"349.218 -156.105 LINE",
"326.636 -164.059 OFFCURVE",
"303.647 -169.031 OFFCURVE",
"283.647 -169.031 CURVE SMOOTH",
"244.647 -169.031 OFFCURVE",
"218.01 -152.128 OFFCURVE",
"225.723 -113.35 CURVE SMOOTH",
"231.261 -85.51 OFFCURVE",
"254.996 -56.675 OFFCURVE",
"311.743 -32.812 CURVE SMOOTH",
"389.27 0 LINE",
"385.434 15.909 LINE"
);
}
);
width = 624;
},
{
anchors = (
{
name = bottom;
position = "{258.468, 1}";
},
{
name = ogonek;
position = "{480.468, 1}";
},
{
name = top;
position = "{401.906, 702}";
}
);
hints = (
{
place = "{4.839, 127.839}";
type = Stem;
},
{
horizontal = 1;
place = "{-48.161, 92.839}";
type = Stem;
},
{
horizontal = 1;
place = "{237.839, 92.839}";
type = Stem;
},
{
horizontal = 1;
place = "{510.839, 92.839}";
type = Stem;
},
{
place = "{234.839, -9.383}";
type = Stem;
},
{
place = "{236.839, 130.813}";
type = Stem;
},
{
horizontal = 1;
place = "{-263.918, 49.28}";
type = Stem;
}
);
layerId = "BAF31694-0472-4296-B0EA-1654553C45D2";
paths = (
{
closed = 1;
nodes = (
"669.508 700 LINE",
"144.508 700 LINE",
"5.269 0 LINE",
"530.26 0 LINE",
"559.31 146 LINE",
"208.31 146 LINE",
"236.357 287 LINE",
"485.357 287 LINE",
"512.409 423 LINE",
"263.409 423 LINE",
"289.467 554 LINE",
"640.467 554 LINE"
);
},
{
closed = 1;
nodes = (
"414.98 62.647 LINE SMOOTH",
"274.3 8.954 OFFCURVE",
"228.214 -41.755 OFFCURVE",
"216.347 -101.413 CURVE SMOOTH",
"201.118 -177.974 OFFCURVE",
"257.602 -215.757 OFFCURVE",
"342.602 -215.757 CURVE SMOOTH",
"379.602 -215.757 OFFCURVE",
"414.789 -209.792 OFFCURVE",
"445.767 -199.849 CURVE",
"464.951 -103.401 LINE",
"433.973 -113.344 OFFCURVE",
"405.985 -118.316 OFFCURVE",
"384.985 -118.316 CURVE SMOOTH",
"357.985 -118.316 OFFCURVE",
"344.556 -105.39 OFFCURVE",
"348.313 -86.498 CURVE SMOOTH",
"352.665 -64.624 OFFCURVE",
"374.225 -46.726 OFFCURVE",
"429.169 -21.869 CURVE SMOOTH",
"478.718 1 LINE",
"457.342 79.55 LINE"
);
}
);
width = 614.99962;
},
{
anchors = (
{
name = bottom;
position = "{257.275, 0}";
},
{
name = ogonek;
position = "{454.275, 0}";
},
{
name = top;
position = "{412.917, 697}";
}
);
hints = (
{
place = "{373.615, 16.615}";
type = Stem;
},
{
horizontal = 1;
place = "{207.615, -20}";
target = down;
type = TopGhost;
},
{
horizontal = 1;
place = "{-49.385, 21}";
target = up;
type = BottomGhost;
},
{
place = "{99.615, 4.733}";
type = Stem;
},
{
horizontal = 1;
place = "{-119.539, 21}";
target = up;
type = BottomGhost;
}
);
layerId = "9F107B1E-3A61-4335-981B-27DD48125C7E";
paths = (
{
closed = 1;
nodes = (
"643.513 700 LINE",
"184.513 700 LINE",
"45.275 0 LINE",
"504.275 0 LINE",
"518.199 70 LINE",
"139.199 70 LINE",
"189.126 321 LINE",
"478.126 321 LINE",
"492.049 391 LINE",
"203.049 391 LINE",
"250.589 630 LINE",
"629.589 630 LINE"
);
},
{
closed = 1;
nodes = (
"361.562 19.042 LINE SMOOTH",
"271.987 -19.042 OFFCURVE",
"233.614 -61.134 OFFCURVE",
"224.245 -108.238 CURVE SMOOTH",
"210.49 -177.389 OFFCURVE",
"263.307 -203.447 OFFCURVE",
"322.307 -203.447 CURVE SMOOTH",
"347.307 -203.447 OFFCURVE",
"375.303 -198.436 OFFCURVE",
"399.098 -189.416 CURVE",
"409.663 -136.299 LINE",
"386.068 -144.317 OFFCURVE",
"362.072 -149.328 OFFCURVE",
"342.072 -149.328 CURVE SMOOTH",
"306.072 -149.328 OFFCURVE",
"285.46 -132.29 OFFCURVE",
"291.84 -100.22 CURVE SMOOTH",
"297.023 -74.163 OFFCURVE",
"316.608 -51.112 OFFCURVE",
"368.193 -28.062 CURVE SMOOTH",
"430.775 0 LINE",
"418.147 42.092 LINE"
);
}
);
width = 629.00375;
}
);
leftMetricsKey = H;
rightMetricsKey = E;
unicode = 0118;
},
{
glyphname = Etilde;
lastChange = "2021-08-30 20:28:08 +0000";
layers = (
{
anchors = (
{
name = bottom;
position = "{262.275, 0}";
},
{
name = ogonek;
position = "{459.275, 0}";
},
{
name = top;
position = "{411.712, 701}";
}
);
hints = (
{
place = "{-2.145, 26.855}";
type = Stem;
},
{
horizontal = 1;
place = "{-87.145, 5.855}";
type = Stem;
},
{
horizontal = 1;
place = "{220.855, 5.855}";
type = Stem;
},
{
horizontal = 1;
place = "{519.855, 5.855}";
type = Stem;
},
{
horizontal = 1;
place = "{669.24, -11.62}";
type = Stem;
},
{
horizontal = 1;
place = "{671.254, 30.674}";
type = Stem;
},
{
horizontal = 1;
place = "{714.555, -12.627}";
type = Stem;
},
{
horizontal = 1;
place = "{669.24, 30.674}";
type = Stem;
}
);
layerId = "0CF0EA28-C756-4A9E-9D7C-CFEF350B4CFE";
paths = (
{
closed = 1;
nodes = (
"648.513 700 LINE",
"174.513 700 LINE",
"35.275 0 LINE",
"509.275 0 LINE",
"528.171 95 LINE",
"168.171 95 LINE",
"210.341 307 LINE",
"480.341 307 LINE",
"499.237 402 LINE",
"229.237 402 LINE",
"269.617 605 LINE",
"629.617 605 LINE"
);
},
{
closed = 1;
nodes = (
"324.13 758.399 LINE",
"333.938 787.602 OFFCURVE",
"353.743 801.7 OFFCURVE",
"375.743 801.7 CURVE SMOOTH",
"415.743 801.7 OFFCURVE",
"428.729 756.385 OFFCURVE",
"482.729 756.385 CURVE SMOOTH",
"540.729 756.385 OFFCURVE",
"592.341 794.651 OFFCURVE",
"619.165 874.204 CURVE",
"555.165 874.204 LINE",
"545.356 845.001 OFFCURVE",
"525.752 831.91 OFFCURVE",
"503.752 831.91 CURVE SMOOTH",
"463.752 831.91 OFFCURVE",
"450.565 876.218 OFFCURVE",
"396.565 876.218 CURVE SMOOTH",
"338.565 876.218 OFFCURVE",
"286.954 837.952 OFFCURVE",
"260.13 758.399 CURVE"
);
}
);
width = 624;
},
{
anchors = (
{
name = bottom;
position = "{243.268, 0}";
},
{
name = ogonek;
position = "{439.268, 0}";
},
{
name = top;
position = "{409.518, 690}";
}
);
hints = (
{
place = "{34.428, -59.572}";
type = Stem;
},
{
horizontal = 1;
place = "{603.428, -20}";
target = down;
type = TopGhost;
},
{
horizontal = 1;
place = "{-81.572, 21}";
target = up;
type = BottomGhost;
},
{
horizontal = 1;
place = "{657.071, 21}";
target = up;
type = BottomGhost;
},
{
horizontal = 1;
place = "{723.689, -20}";
target = down;
type = TopGhost;
}
);
layerId = "6E968933-CD79-43C6-9231-80D77C940F4D";
paths = (
{
closed = 1;
nodes = (
"628.507 700 LINE",
"194.507 700 LINE",
"55.268 0 LINE",
"489.268 0 LINE",
"493.247 20 LINE",
"81.247 20 LINE",
"146.888 350 LINE",
"468.888 350 LINE",
"472.866 370 LINE",
"150.866 370 LINE",
"212.529 680 LINE",
"624.529 680 LINE"
);
},
{
closed = 1;
nodes = (
"328.16 753.557 LINE",
"338.687 786.369 OFFCURVE",
"356.654 801.284 OFFCURVE",
"379.654 801.284 CURVE SMOOTH",
"421.654 801.284 OFFCURVE",
"425.765 751.569 OFFCURVE",
"477.765 751.569 CURVE SMOOTH",
"511.765 751.569 OFFCURVE",
"544.5 780.403 OFFCURVE",
"553.818 817.192 CURVE",
"534.818 817.192 LINE",
"524.687 786.369 OFFCURVE",
"502.523 770.46 OFFCURVE",
"481.523 770.46 CURVE SMOOTH",
"434.523 770.46 OFFCURVE",
"433.412 820.175 OFFCURVE",
"383.412 820.175 CURVE SMOOTH",
"348.412 820.175 OFFCURVE",
"322.269 794.323 OFFCURVE",
"309.16 753.557 CURVE"
);
}
);
width = 624;
},
{
anchors = (
{
name = bottom;
position = "{258.468, 1}";
},
{
name = ogonek;
position = "{480.468, 1}";
},
{
name = top;
position = "{401.906, 702}";
}
);
hints = (
{
place = "{-36.281, 86.719}";
type = Stem;
},
{
horizontal = 1;
place = "{-89.281, 51.719}";
type = Stem;
},
{
horizontal = 1;
place = "{196.719, 51.719}";
type = Stem;
},
{
horizontal = 1;
place = "{469.719, 51.719}";
type = Stem;
},
{
horizontal = 1;
place = "{312.254, -57.463}";
type = Stem;
},
{
horizontal = 1;
place = "{659.265, 33.018}";
type = Stem;
},
{
horizontal = 1;
place = "{703.014, 16.115}";
type = Stem;
},
{
horizontal = 1;
place = "{657.276, 60.858}";
type = Stem;
}
);
layerId = "BAF31694-0472-4296-B0EA-1654553C45D2";
paths = (
{
closed = 1;
nodes = (
"669.508 700 LINE",
"144.508 700 LINE",
"5.269 0 LINE",
"530.26 0 LINE",
"559.31 146 LINE",
"208.31 146 LINE",
"236.357 287 LINE",
"485.357 287 LINE",
"512.409 423 LINE",
"263.409 423 LINE",
"289.467 554 LINE",
"640.467 554 LINE"
);
},
{
closed = 1;
nodes = (
"295.216 747.552 LINE",
"306.347 778.375 OFFCURVE",
"325.116 792.295 OFFCURVE",
"348.116 792.295 CURVE SMOOTH",
"388.116 792.295 OFFCURVE",
"411.216 747.552 OFFCURVE",
"472.216 747.552 CURVE SMOOTH",
"543.216 747.552 OFFCURVE",
"603.721 790.306 OFFCURVE",
"641.883 896.697 CURVE",
"551.883 896.697 LINE",
"541.95 866.867 OFFCURVE",
"522.983 851.953 OFFCURVE",
"499.983 851.953 CURVE SMOOTH",
"459.983 851.953 OFFCURVE",
"437.081 897.691 OFFCURVE",
"377.081 897.691 CURVE SMOOTH",
"305.081 897.691 OFFCURVE",
"244.379 853.942 OFFCURVE",
"206.216 747.552 CURVE"
);
}
);
width = 614.99962;
},
{
anchors = (
{
name = bottom;
position = "{257.27, 0}";
},
{
name = ogonek;
position = "{454.27, 0}";
},
{
name = top;
position = "{412.912, 697}";
}
);
hints = (
{
place = "{337.91, -19.09}";
type = Stem;
},
{
horizontal = 1;
place = "{171.91, -20}";
target = down;
type = TopGhost;
},
{
horizontal = 1;
place = "{-85.09, 21}";
target = up;
type = BottomGhost;
},
{
horizontal = 1;
place = "{285.396, 21}";
target = up;
type = BottomGhost;
},
{
horizontal = 1;
place = "{310.451, -20}";
target = down;
type = TopGhost;
}
);
layerId = "9F107B1E-3A61-4335-981B-27DD48125C7E";
paths = (
{
closed = 1;
nodes = (
"643.509 700 LINE",
"184.509 700 LINE",
"45.27 0 LINE",
"504.27 0 LINE",
"518.194 70 LINE",
"139.194 70 LINE",
"189.121 321 LINE",
"478.121 321 LINE",
"492.045 391 LINE",
"203.045 391 LINE",
"250.585 630 LINE",
"629.585 630 LINE"
);
},
{
closed = 1;
nodes = (
"328.812 759.34 LINE",
"338.793 789.406 OFFCURVE",
"357.185 801.432 OFFCURVE",
"380.185 801.432 CURVE SMOOTH",
"420.185 801.432 OFFCURVE",
"430.015 755.331 OFFCURVE",
"484.015 755.331 CURVE SMOOTH",
"533.015 755.331 OFFCURVE",
"576.394 787.401 OFFCURVE",
"596.953 850.54 CURVE",
"549.953 850.54 LINE",
"540.172 821.476 OFFCURVE",
"519.78 809.45 OFFCURVE",
"497.78 809.45 CURVE SMOOTH",
"455.78 809.45 OFFCURVE",
"446.95 855.551 OFFCURVE",
"393.95 855.551 CURVE SMOOTH",
"344.95 855.551 OFFCURVE",
"303.571 823.481 OFFCURVE",
"281.812 759.34 CURVE"
);
}
);
width = 628.99375;
}
);
leftMetricsKey = E;
rightMetricsKey = E;
unicode = 1EBC;
},
{
glyphname = F;
lastChange = "2021-08-30 20:28:08 +0000";
layers = (
{
hints = (
{
place = "{15.381, 44.381}";
type = Stem;
},
{
horizontal = 1;
place = "{236.381, 23.381}";
type = Stem;
},
{
horizontal = 1;
place = "{537.381, 23.381}";
type = Stem;
},
{
horizontal = 1;
place = "{-69.619, 21}";
target = up;
type = BottomGhost;
}
);
layerId = "0CF0EA28-C756-4A9E-9D7C-CFEF350B4CFE";
paths = (
{
closed = 1;
nodes = (
"35.271 0 LINE",
"149.271 0 LINE",
"210.337 307 LINE",
"480.337 307 LINE",
"499.233 402 LINE",
"229.233 402 LINE",
"269.613 605 LINE",
"629.613 605 LINE",
"648.509 700 LINE",
"174.509 700 LINE"
);
}
);
width = 602.29292;
},
{
background = {
hints = (
{
horizontal = 1;
place = "{0, 21}";
type = Stem;
},
{
horizontal = 1;
place = "{317, 48}";
type = Stem;
},
{
horizontal = 1;
place = "{652, 48}";
type = Stem;
},
{
place = "{104, 52}";
type = Stem;
}
);
paths = (
{
closed = 1;
nodes = (
"625.89 652 LINE",
"625.89 700 LINE",
"132.89 700 LINE",
"132.89 0 LINE",
"184.89 0 LINE",
"184.89 317 LINE",
"580.89 317 LINE",
"580.89 365 LINE",
"184.89 365 LINE",
"184.89 652 LINE"
);
}
);
};
hints = (
{
place = "{46.381, -47.619}";
type = Stem;
},
{
horizontal = 1;
place = "{615.381, -20}";
target = down;
type = TopGhost;
},
{
horizontal = 1;
place = "{-69.619, 21}";
target = up;
type = BottomGhost;
}
);
layerId = "6E968933-CD79-43C6-9231-80D77C940F4D";
paths = (
{
closed = 1;
nodes = (
"55.271 0 LINE",
"77.271 0 LINE",
"146.89 350 LINE",
"468.89 350 LINE",
"472.868 370 LINE",
"150.868 370 LINE",
"212.531 680 LINE",
"624.531 680 LINE",
"628.509 700 LINE",
"194.509 700 LINE"
);
}
);
width = 595.60942;
},
{
hints = (
{
place = "{-16.619, 106.381}";
type = Stem;
},
{
horizontal = 1;
place = "{211.381, 66.381}";
type = Stem;
},
{
horizontal = 1;
place = "{489.381, 71.381}";
type = Stem;
},
{
horizontal = 1;
place = "{-69.619, 21}";
target = up;
type = BottomGhost;
}
);
layerId = "BAF31694-0472-4296-B0EA-1654553C45D2";
paths = (
{
closed = 1;
nodes = (
"5.271 0 LINE",
"179.271 0 LINE",
"236.359 287 LINE",
"485.359 287 LINE",
"512.411 423 LINE",
"263.411 423 LINE",
"289.468 554 LINE",
"640.468 554 LINE",
"669.509 700 LINE",
"144.509 700 LINE"
);
}
);
width = 603.31071;
},
{
hints = (
{
place = "{353.381, -3.619}";
type = Stem;
},
{
horizontal = 1;
place = "{187.381, -20}";
target = down;
type = TopGhost;
},
{
horizontal = 1;
place = "{-69.619, 21}";
target = up;
type = BottomGhost;
}
);
layerId = "9F107B1E-3A61-4335-981B-27DD48125C7E";
paths = (
{
closed = 1;
nodes = (
"45.271 0 LINE",
"125.271 0 LINE",
"189.122 321 LINE",
"478.122 321 LINE",
"492.045 391 LINE",
"203.045 391 LINE",
"250.585 630 LINE",
"629.585 630 LINE",
"643.509 700 LINE",
"184.509 700 LINE"
);
}
);
width = 603.94961;
}
);
leftMetricsKey = H;
rightMetricsKey = "=E*0.666";
unicode = 0046;
},
{
glyphname = G;
lastChange = "2021-08-30 20:28:08 +0000";
layers = (
{
anchors = (
{
name = bottom;
position = "{341.771, 0}";
},
{
name = top;
position = "{481.208, 701}";
}
);
hints = (
{
place = "{-27.619, 47.381}";
type = Stem;
},
{
place = "{529.381, 52.381}";
type = Stem;
},
{
horizontal = 1;
place = "{-75.619, 33.381}";
type = Stem;
},
{
horizontal = 1;
place = "{222.381, 21.381}";
type = Stem;
},
{
horizontal = 1;
place = "{534.381, 34.381}";
type = Stem;
}
);
layerId = "0CF0EA28-C756-4A9E-9D7C-CFEF350B4CFE";
paths = (
{
closed = 1;
nodes = (
"765.205 520 LINE",
"735.273 641 OFFCURVE",
"621.402 707 OFFCURVE",
"488.402 707 CURVE SMOOTH",
"292.402 707 OFFCURVE",
"103.963 559 OFFCURVE",
"62.39 350 CURVE SMOOTH",
"20.618 140 OFFCURVE",
"150.378 -7 OFFCURVE",
"346.378 -7 CURVE SMOOTH",
"502.378 -7 OFFCURVE",
"646.474 89 OFFCURVE",
"719.338 214 CURVE",
"753.551 386 LINE",
"433.551 386 LINE",
"414.853 292 LINE",
"618.853 292 LINE",
"604.332 219 LINE",
"554.215 143 OFFCURVE",
"463.673 90 OFFCURVE",
"365.673 90 CURVE SMOOTH",
"227.673 90 OFFCURVE",
"147.757 196 OFFCURVE",
"178.39 350 CURVE SMOOTH",
"209.023 504 OFFCURVE",
"334.107 610 OFFCURVE",
"472.107 610 CURVE SMOOTH",
"560.782 610 OFFCURVE",
"626.375 573.242 OFFCURVE",
"657.845 483 CURVE"
);
}
);
width = 777.5;
},
{
anchors = (
{
name = bottom;
position = "{353.771, 0}";
},
{
name = top;
position = "{488.832, 679}";
}
);
background = {
hints = (
{
horizontal = 1;
place = "{-12, 46}";
type = Stem;
},
{
horizontal = 1;
place = "{315, 48}";
type = Stem;
},
{
horizontal = 1;
place = "{665, 47}";
type = Stem;
},
{
place = "{73, 54}";
type = Stem;
},
{
place = "{650, 50}";
type = Stem;
}
);
paths = (
{
closed = 1;
nodes = (
"724.39 363 LINE",
"440.39 363 LINE",
"440.39 315 LINE",
"674.39 315 LINE",
"674.39 114 LINE",
"623.39 71 OFFCURVE",
"540.39 34 OFFCURVE",
"451.39 34 CURVE SMOOTH",
"264.39 34 OFFCURVE",
"151.39 169 OFFCURVE",
"151.39 350 CURVE SMOOTH",
"151.39 352 LINE SMOOTH",
"151.39 521 OFFCURVE",
"270.39 665 OFFCURVE",
"440.39 665 CURVE SMOOTH",
"546.39 665 OFFCURVE",
"610.39 629 OFFCURVE",
"665.39 581 CURVE",
"699.39 620 LINE",
"629.39 678 OFFCURVE",
"557.39 712 OFFCURVE",
"443.39 712 CURVE SMOOTH",
"234.39 712 OFFCURVE",
"97.39 539 OFFCURVE",
"97.39 350 CURVE SMOOTH",
"97.39 348 LINE SMOOTH",
"97.39 151 OFFCURVE",
"228.39 -12 OFFCURVE",
"449.39 -12 CURVE SMOOTH",
"563.39 -12 OFFCURVE",
"661.39 37 OFFCURVE",
"724.39 93 CURVE"
);
}
);
};
hints = (
{
place = "{-5.619, -46.619}";
type = Stem;
},
{
horizontal = 1;
place = "{621.381, -20}";
target = down;
type = TopGhost;
},
{
horizontal = 1;
place = "{-77.619, 21}";
target = up;
type = BottomGhost;
}
);
layerId = "6E968933-CD79-43C6-9231-80D77C940F4D";
paths = (
{
closed = 1;
nodes = (
"744.017 509 LINE",
"716.887 629 OFFCURVE",
"628.402 707 OFFCURVE",
"480.402 707 CURVE SMOOTH",
"284.402 707 OFFCURVE",
"114.162 560 OFFCURVE",
"72.39 350 CURVE SMOOTH",
"30.618 140 OFFCURVE",
"142.378 -7 OFFCURVE",
"338.378 -7 CURVE SMOOTH",
"497.378 -7 OFFCURVE",
"639.872 91 OFFCURVE",
"709.51 240 CURVE",
"733.18 359 LINE",
"411.18 359 LINE",
"407.202 339 LINE",
"707.202 339 LINE",
"687.907 242 LINE",
"619.264 98 OFFCURVE",
"483.357 13 OFFCURVE",
"342.357 13 CURVE SMOOTH",
"167.357 13 OFFCURVE",
"52.817 141 OFFCURVE",
"94.39 350 CURVE SMOOTH",
"136.162 560 OFFCURVE",
"301.423 687 OFFCURVE",
"476.423 687 CURVE SMOOTH",
"616.423 687 OFFCURVE",
"702.908 609 OFFCURVE",
"724.625 502 CURVE"
);
}
);
width = 774.5006;
},
{
anchors = (
{
name = bottom;
position = "{325.97, 1}";
},
{
name = top;
position = "{465.407, 702}";
}
);
hints = (
{
place = "{-51.619, -19.619}";
type = Stem;
},
{
place = "{193.381, 111.381}";
type = Stem;
},
{
horizontal = 1;
place = "{-74.619, 86.381}";
type = Stem;
},
{
horizontal = 1;
place = "{197.381, 58.381}";
type = Stem;
},
{
horizontal = 1;
place = "{475.381, 92.381}";
type = Stem;
}
);
layerId = "BAF31694-0472-4296-B0EA-1654553C45D2";
paths = (
{
closed = 1;
nodes = (
"759.818 508 LINE",
"740.284 631 OFFCURVE",
"629.402 707 OFFCURVE",
"474.402 707 CURVE SMOOTH",
"263.402 707 OFFCURVE",
"88.963 559 OFFCURVE",
"47.39 350 CURVE SMOOTH",
"5.817 141 OFFCURVE",
"122.378 -7 OFFCURVE",
"334.378 -7 CURVE SMOOTH",
"505.378 -7 OFFCURVE",
"635.468 94 OFFCURVE",
"703.757 196 CURVE",
"744.535 401 LINE",
"416.535 401 LINE",
"389.482 265 LINE",
"557.482 265 LINE",
"551.714 236 LINE",
"507.376 179 OFFCURVE",
"447.817 141 OFFCURVE",
"376.817 141 CURVE SMOOTH",
"255.817 141 OFFCURVE",
"199.128 223 OFFCURVE",
"224.39 350 CURVE SMOOTH",
"247.862 468 OFFCURVE",
"342.963 559 OFFCURVE",
"450.963 559 CURVE SMOOTH",
"521.413 559 OFFCURVE",
"568.242 530.981 OFFCURVE",
"588.259 470 CURVE"
);
}
);
width = 747.50309;
},
{
anchors = (
{
name = bottom;
position = "{347.771, 0}";
},
{
name = top;
position = "{485.617, 693}";
}
);
hints = (
{
place = "{332.381, 4.381}";
type = Stem;
},
{
horizontal = 1;
place = "{189.381, -20}";
target = down;
type = TopGhost;
},
{
horizontal = 1;
place = "{-72.619, 21}";
target = up;
type = BottomGhost;
}
);
layerId = "9F107B1E-3A61-4335-981B-27DD48125C7E";
paths = (
{
closed = 1;
nodes = (
"760.409 516 LINE",
"731.478 637 OFFCURVE",
"625.402 707 OFFCURVE",
"487.402 707 CURVE SMOOTH",
"291.402 707 OFFCURVE",
"109.162 560 OFFCURVE",
"67.39 350 CURVE SMOOTH",
"25.618 140 OFFCURVE",
"149.378 -7 OFFCURVE",
"345.378 -7 CURVE SMOOTH",
"502.378 -7 OFFCURVE",
"646.673 90 OFFCURVE",
"718.327 224 CURVE",
"748.164 374 LINE",
"427.164 374 LINE",
"414.235 309 LINE",
"654.235 309 LINE",
"638.123 228 LINE",
"580.834 126 OFFCURVE",
"473.7 65 OFFCURVE",
"359.7 65 CURVE SMOOTH",
"207.7 65 OFFCURVE",
"113.779 176 OFFCURVE",
"148.39 350 CURVE SMOOTH",
"183.2 525 OFFCURVE",
"321.279 636 OFFCURVE",
"473.279 636 CURVE SMOOTH",
"576.279 636 OFFCURVE",
"655.688 590.513 OFFCURVE",
"685.238 490 CURVE"
);
}
);
width = 780.50073;
}
);
leftMetricsKey = O;
rightMetricsKey = "=O*1.2";
unicode = 0047;
},
{
glyphname = Gbreve;
lastChange = "2021-08-30 20:28:08 +0000";
layers = (
{
anchors = (
{
name = bottom;
position = "{341.776, 0}";
},
{
name = top;
position = "{481.213, 701}";
}
);
hints = (
{
place = "{-47.754, 27.246}";
type = Stem;
},
{
place = "{509.246, 32.246}";
type = Stem;
},
{
horizontal = 1;
place = "{-95.754, 13.246}";
type = Stem;
},
{
horizontal = 1;
place = "{202.246, 1.246}";
type = Stem;
},
{
horizontal = 1;
place = "{514.246, 14.246}";
type = Stem;
},
{
place = "{150.996, -24.299}";
type = Stem;
},
{
place = "{385.996, -23.292}";
type = Stem;
},
{
horizontal = 1;
place = "{657.568, -0.131}";
type = Stem;
},
{
horizontal = 1;
place = "{657.568, 72.373}";
type = Stem;
}
);
layerId = "0CF0EA28-C756-4A9E-9D7C-CFEF350B4CFE";
paths = (
{
closed = 1;
nodes = (
"765.21 520 LINE",
"735.279 641 OFFCURVE",
"621.407 707 OFFCURVE",
"488.407 707 CURVE SMOOTH",
"292.407 707 OFFCURVE",
"103.968 559 OFFCURVE",
"62.395 350 CURVE SMOOTH",
"20.624 140 OFFCURVE",
"150.383 -7 OFFCURVE",
"346.383 -7 CURVE SMOOTH",
"502.383 -7 OFFCURVE",
"646.479 89 OFFCURVE",
"719.343 214 CURVE",
"753.556 386 LINE",
"433.556 386 LINE",
"414.858 292 LINE",
"618.858 292 LINE",
"604.338 219 LINE",
"554.22 143 OFFCURVE",
"463.678 90 OFFCURVE",
"365.678 90 CURVE SMOOTH",
"227.678 90 OFFCURVE",
"147.763 196 OFFCURVE",
"178.395 350 CURVE SMOOTH",
"209.028 504 OFFCURVE",
"334.112 610 OFFCURVE",
"472.112 610 CURVE SMOOTH",
"560.787 610 OFFCURVE",
"626.38 573.242 OFFCURVE",
"657.851 483 CURVE"
);
},
{
closed = 1;
nodes = (
"673.677 909.449 LINE",
"607.677 909.449 LINE",
"598.663 864.134 OFFCURVE",
"573.255 836.945 OFFCURVE",
"508.255 836.945 CURVE SMOOTH",
"443.255 836.945 OFFCURVE",
"428.663 864.134 OFFCURVE",
"437.677 909.449 CURVE",
"372.677 909.449 LINE",
"368.47 888.302 LINE SMOOTH",
"351.845 804.721 OFFCURVE",
"396.427 747.322 OFFCURVE",
"490.427 747.322 CURVE SMOOTH",
"585.427 747.322 OFFCURVE",
"652.645 803.714 OFFCURVE",
"669.27 887.295 CURVE SMOOTH"
);
}
);
width = 777.5;
},
{
anchors = (
{
name = bottom;
position = "{353.769, 0}";
},
{
name = top;
position = "{488.83, 679}";
}
);
hints = (
{
place = "{-21.121, -62.121}";
type = Stem;
},
{
horizontal = 1;
place = "{605.879, -20}";
target = down;
type = TopGhost;
},
{
horizontal = 1;
place = "{-93.121, 21}";
target = up;
type = BottomGhost;
},
{
place = "{210.879, -64.241}";
type = Stem;
},
{
place = "{422.879, -62.252}";
type = Stem;
},
{
horizontal = 1;
place = "{656.442, 21}";
target = up;
type = BottomGhost;
},
{
horizontal = 1;
place = "{761.837, -20}";
target = down;
type = TopGhost;
}
);
layerId = "6E968933-CD79-43C6-9231-80D77C940F4D";
paths = (
{
closed = 1;
nodes = (
"744.015 509 LINE",
"716.885 629 OFFCURVE",
"628.4 707 OFFCURVE",
"480.4 707 CURVE SMOOTH",
"284.4 707 OFFCURVE",
"114.16 560 OFFCURVE",
"72.388 350 CURVE SMOOTH",
"30.616 140 OFFCURVE",
"142.376 -7 OFFCURVE",
"338.376 -7 CURVE SMOOTH",
"497.376 -7 OFFCURVE",
"639.87 91 OFFCURVE",
"709.508 240 CURVE",
"733.178 359 LINE",
"411.178 359 LINE",
"407.2 339 LINE",
"707.2 339 LINE",
"687.905 242 LINE",
"619.262 98 OFFCURVE",
"483.355 13 OFFCURVE",
"342.355 13 CURVE SMOOTH",
"167.355 13 OFFCURVE",
"52.815 141 OFFCURVE",
"94.388 350 CURVE SMOOTH",
"136.16 560 OFFCURVE",
"301.421 687 OFFCURVE",
"476.421 687 CURVE SMOOTH",
"616.421 687 OFFCURVE",
"702.906 609 OFFCURVE",
"724.623 502 CURVE"
);
},
{
closed = 1;
nodes = (
"645.404 862.867 LINE",
"624.404 862.867 LINE",
"613.13 806.192 OFFCURVE",
"570.604 773.38 OFFCURVE",
"508.604 773.38 CURVE",
"446.604 773.38 OFFCURVE",
"418.13 806.192 OFFCURVE",
"429.404 862.867 CURVE",
"408.404 862.867 LINE",
"407.415 857.896 LINE SMOOTH",
"397.921 810.17 OFFCURVE",
"419.846 754.489 OFFCURVE",
"504.846 754.489 CURVE",
"590.846 754.489 OFFCURVE",
"634.921 810.17 OFFCURVE",
"644.415 857.896 CURVE SMOOTH"
);
}
);
width = 774.4966;
},
{
anchors = (
{
name = bottom;
position = "{325.966, 1}";
},
{
name = top;
position = "{465.404, 702}";
}
);
hints = (
{
place = "{-74.343, -42.343}";
type = Stem;
},
{
place = "{170.657, 88.657}";
type = Stem;
},
{
horizontal = 1;
place = "{-97.343, 63.657}";
type = Stem;
},
{
horizontal = 1;
place = "{174.657, 35.657}";
type = Stem;
},
{
horizontal = 1;
place = "{452.657, 69.657}";
type = Stem;
},
{
place = "{109.657, -5.838}";
type = Stem;
},
{
place = "{366.657, -5.838}";
type = Stem;
},
{
horizontal = 1;
place = "{649.243, 35.922}";
type = Stem;
},
{
horizontal = 1;
place = "{649.243, 101.546}";
type = Stem;
}
);
layerId = "BAF31694-0472-4296-B0EA-1654553C45D2";
paths = (
{
closed = 1;
nodes = (
"759.815 508 LINE",
"740.281 631 OFFCURVE",
"629.399 707 OFFCURVE",
"474.399 707 CURVE SMOOTH",
"263.399 707 OFFCURVE",
"88.96 559 OFFCURVE",
"47.387 350 CURVE SMOOTH",
"5.814 141 OFFCURVE",
"122.375 -7 OFFCURVE",
"334.375 -7 CURVE SMOOTH",
"505.375 -7 OFFCURVE",
"635.465 94 OFFCURVE",
"703.754 196 CURVE",
"744.531 401 LINE",
"416.531 401 LINE",
"389.479 265 LINE",
"557.479 265 LINE",
"551.711 236 LINE",
"507.373 179 OFFCURVE",
"447.814 141 OFFCURVE",
"376.814 141 CURVE SMOOTH",
"255.814 141 OFFCURVE",
"199.125 223 OFFCURVE",
"224.387 350 CURVE SMOOTH",
"247.858 468 OFFCURVE",
"342.96 559 OFFCURVE",
"450.96 559 CURVE SMOOTH",
"521.41 559 OFFCURVE",
"568.239 530.981 OFFCURVE",
"588.256 470 CURVE"
);
},
{
closed = 1;
nodes = (
"683.595 935.474 LINE",
"596.595 935.474 LINE",
"588.288 893.714 OFFCURVE",
"563.344 868.856 OFFCURVE",
"498.344 868.856 CURVE SMOOTH",
"433.344 868.856 OFFCURVE",
"418.288 893.714 OFFCURVE",
"426.595 935.474 CURVE",
"339.595 935.474 LINE",
"335.837 916.582 LINE SMOOTH",
"313.093 802.238 OFFCURVE",
"373.028 741.586 OFFCURVE",
"473.028 741.586 CURVE SMOOTH",
"574.028 741.586 OFFCURVE",
"657.093 802.238 OFFCURVE",
"679.837 916.582 CURVE SMOOTH"
);
}
);
width = 747.49509;
},
{
anchors = (
{
name = bottom;
position = "{347.768, 0}";
},
{
name = top;
position = "{485.614, 693}";
}
);
hints = (
{
place = "{313.918, -14.082}";
type = Stem;
},
{
horizontal = 1;
place = "{170.918, -20}";
target = down;
type = TopGhost;
},
{
horizontal = 1;
place = "{-91.082, 21}";
target = up;
type = BottomGhost;
},
{
place = "{538.918, -23.942}";
type = Stem;
},
{
place = "{618.918, 21.157}";
type = Stem;
},
{
horizontal = 1;
place = "{283.415, 21}";
target = up;
type = BottomGhost;
},
{
horizontal = 1;
place = "{323.503, -20}";
target = down;
type = TopGhost;
}
);
layerId = "9F107B1E-3A61-4335-981B-27DD48125C7E";
paths = (
{
closed = 1;
nodes = (
"760.406 516 LINE",
"731.475 637 OFFCURVE",
"625.399 707 OFFCURVE",
"487.399 707 CURVE SMOOTH",
"291.399 707 OFFCURVE",
"109.158 560 OFFCURVE",
"67.387 350 CURVE SMOOTH",
"25.615 140 OFFCURVE",
"149.375 -7 OFFCURVE",
"345.375 -7 CURVE SMOOTH",
"502.375 -7 OFFCURVE",
"646.67 90 OFFCURVE",
"718.324 224 CURVE",
"748.161 374 LINE",
"427.161 374 LINE",
"414.231 309 LINE",
"654.231 309 LINE",
"638.12 228 LINE",
"580.83 126 OFFCURVE",
"473.697 65 OFFCURVE",
"359.697 65 CURVE SMOOTH",
"207.697 65 OFFCURVE",
"113.776 176 OFFCURVE",
"148.387 350 CURVE SMOOTH",
"183.196 525 OFFCURVE",
"321.276 636 OFFCURVE",
"473.276 636 CURVE SMOOTH",
"576.276 636 OFFCURVE",
"655.685 590.513 OFFCURVE",
"685.235 490 CURVE"
);
},
{
closed = 1;
nodes = (
"664.825 892.641 LINE",
"615.825 892.641 LINE",
"605.857 842.531 OFFCURVE",
"574.076 813.467 OFFCURVE",
"510.076 813.467 CURVE",
"446.076 813.467 OFFCURVE",
"425.857 842.531 OFFCURVE",
"435.825 892.641 CURVE",
"387.825 892.641 LINE",
"384.835 877.608 LINE SMOOTH",
"370.88 807.454 OFFCURVE",
"406.517 750.329 OFFCURVE",
"497.517 750.329 CURVE",
"589.517 750.329 OFFCURVE",
"647.681 806.452 OFFCURVE",
"661.635 876.606 CURVE SMOOTH"
);
}
);
width = 780.49248;
}
);
leftMetricsKey = G;
rightMetricsKey = G;
unicode = 011E;
},
{
glyphname = Gcommaaccent;
lastChange = "2021-08-30 20:28:08 +0000";
layers = (
{
anchors = (
{
name = _bottom;
position = "{336.277, 0}";
},
{
name = bottom;
position = "{341.777, 0}";
}
);
hints = (
{
place = "{288.737, 73.737}";
type = Stem;
},
{
place = "{292.737, 69.737}";
type = Stem;
},
{
place = "{341.737, 20.737}";
type = Stem;
},
{
horizontal = 1;
place = "{-186.263, 52.737}";
type = Stem;
},
{
horizontal = 1;
place = "{-315.263, 21}";
target = up;
type = BottomGhost;
},
{
place = "{-1.263, 73.737}";
type = Stem;
},
{
place = "{555.737, 78.737}";
type = Stem;
},
{
horizontal = 1;
place = "{-49.263, 59.737}";
type = Stem;
},
{
horizontal = 1;
place = "{248.737, 47.737}";
type = Stem;
},
{
horizontal = 1;
place = "{560.737, 60.737}";
type = Stem;
}
);
layerId = "0CF0EA28-C756-4A9E-9D7C-CFEF350B4CFE";
paths = (
{
closed = 1;
nodes = (
"272.928 -47 LINE",
"253.832 -143 LINE",
"306.832 -143 LINE",
"302.456 -165 LINE SMOOTH",
"294.897 -203.003 OFFCURVE",
"276.118 -222 OFFCURVE",
"242.118 -222 CURVE",
"232.172 -272 LINE",
"306.172 -272 OFFCURVE",
"353.527 -230 OFFCURVE",
"370.235 -146 CURVE SMOOTH",
"376.004 -117 OFFCURVE",
"377.568 -84 OFFCURVE",
"375.928 -47 CURVE"
);
},
{
closed = 1;
nodes = (
"765.211 520 LINE",
"735.279 641 OFFCURVE",
"621.408 707 OFFCURVE",
"488.408 707 CURVE SMOOTH",
"292.408 707 OFFCURVE",
"103.969 559 OFFCURVE",
"62.396 350 CURVE SMOOTH",
"20.624 140 OFFCURVE",
"150.384 -7 OFFCURVE",
"346.384 -7 CURVE SMOOTH",
"502.384 -7 OFFCURVE",
"646.48 89 OFFCURVE",
"719.344 214 CURVE",
"753.557 386 LINE",
"433.557 386 LINE",
"414.859 292 LINE",
"618.859 292 LINE",
"604.338 219 LINE",
"554.221 143 OFFCURVE",
"463.679 90 OFFCURVE",
"365.679 90 CURVE SMOOTH",
"227.679 90 OFFCURVE",
"147.763 196 OFFCURVE",
"178.396 350 CURVE SMOOTH",
"209.028 504 OFFCURVE",
"334.113 610 OFFCURVE",
"472.113 610 CURVE SMOOTH",
"560.788 610 OFFCURVE",
"626.38 573.242 OFFCURVE",
"657.851 483 CURVE"
);
}
);
width = 777.5;
},
{
anchors = (
{
name = _bottom;
position = "{347.177, -8}";
},
{
name = bottom;
position = "{353.768, 0}";
}
);
hints = (
{
place = "{343.288, -28.712}";
type = Stem;
},
{
horizontal = 1;
place = "{-110.712, -20}";
target = down;
type = TopGhost;
},
{
horizontal = 1;
place = "{-229.712, 21}";
target = up;
type = BottomGhost;
},
{
place = "{11.288, -29.712}";
type = Stem;
},
{
horizontal = 1;
place = "{638.288, -20}";
target = down;
type = TopGhost;
},
{
horizontal = 1;
place = "{-60.712, 21}";
target = up;
type = BottomGhost;
}
);
layerId = "6E968933-CD79-43C6-9231-80D77C940F4D";
paths = (
{
closed = 1;
nodes = (
"317.231 -58 LINE",
"309.474 -97 LINE",
"341.474 -97 LINE",
"339.882 -105 LINE SMOOTH",
"333.318 -138 OFFCURVE",
"317.34 -158 OFFCURVE",
"285.34 -158 CURVE",
"281.561 -177 LINE",
"318.561 -177 OFFCURVE",
"350.544 -162 OFFCURVE",
"364.667 -91 CURVE SMOOTH",
"366.656 -81 OFFCURVE",
"368.242 -68 OFFCURVE",
"369.231 -58 CURVE"
);
},
{
closed = 1;
nodes = (
"744.015 509 LINE",
"716.884 629 OFFCURVE",
"628.399 707 OFFCURVE",
"480.399 707 CURVE SMOOTH",
"284.399 707 OFFCURVE",
"114.159 560 OFFCURVE",
"72.388 350 CURVE SMOOTH",
"30.616 140 OFFCURVE",
"142.376 -7 OFFCURVE",
"338.376 -7 CURVE SMOOTH",
"497.376 -7 OFFCURVE",
"639.869 91 OFFCURVE",
"709.507 240 CURVE",
"733.178 359 LINE",
"411.178 359 LINE",
"407.2 339 LINE",
"707.2 339 LINE",
"687.905 242 LINE",
"619.262 98 OFFCURVE",
"483.354 13 OFFCURVE",
"342.354 13 CURVE SMOOTH",
"167.354 13 OFFCURVE",
"52.815 141 OFFCURVE",
"94.388 350 CURVE SMOOTH",
"136.159 560 OFFCURVE",
"301.421 687 OFFCURVE",
"476.421 687 CURVE SMOOTH",
"616.421 687 OFFCURVE",
"702.906 609 OFFCURVE",
"724.622 502 CURVE"
);
}
);
width = 774.4966;
},
{
anchors = (
{
name = _bottom;
position = "{331.474, 1}";
},
{
name = bottom;
position = "{325.974, 1}";
}
);
hints = (
{
place = "{272.715, 114.715}";
type = Stem;
},
{
place = "{316.715, 71.715}";
type = Stem;
},
{
place = "{-72.285, 33.715}";
type = Stem;
},
{
horizontal = 1;
place = "{-203.285, 85.715}";
type = Stem;
},
{
horizontal = 1;
place = "{-154.285, 21}";
target = up;
type = BottomGhost;
},
{
place = "{-21.285, 10.715}";
type = Stem;
},
{
place = "{223.715, 141.715}";
type = Stem;
},
{
horizontal = 1;
place = "{-44.285, 116.715}";
type = Stem;
},
{
horizontal = 1;
place = "{227.715, 88.715}";
type = Stem;
},
{
horizontal = 1;
place = "{505.715, 122.715}";
type = Stem;
}
);
layerId = "BAF31694-0472-4296-B0EA-1654553C45D2";
paths = (
{
closed = 1;
nodes = (
"254.716 -38 LINE",
"229.653 -164 LINE",
"293.653 -164 LINE",
"290.868 -178 LINE SMOOTH",
"281.718 -224 OFFCURVE",
"259.541 -245 OFFCURVE",
"225.541 -245 CURVE",
"212.214 -312 LINE",
"309.214 -312 OFFCURVE",
"367.945 -248 OFFCURVE",
"385.847 -158 CURVE SMOOTH",
"393.206 -121 OFFCURVE",
"394.163 -81 OFFCURVE",
"388.716 -38 CURVE"
);
},
{
closed = 1;
nodes = (
"759.822 508 LINE",
"740.289 631 OFFCURVE",
"629.406 707 OFFCURVE",
"474.406 707 CURVE SMOOTH",
"263.406 707 OFFCURVE",
"88.967 559 OFFCURVE",
"47.394 350 CURVE SMOOTH",
"5.821 141 OFFCURVE",
"122.382 -7 OFFCURVE",
"334.382 -7 CURVE SMOOTH",
"505.382 -7 OFFCURVE",
"635.473 94 OFFCURVE",
"703.762 196 CURVE",
"744.539 401 LINE",
"416.539 401 LINE",
"389.487 265 LINE",
"557.487 265 LINE",
"551.718 236 LINE",
"507.38 179 OFFCURVE",
"447.821 141 OFFCURVE",
"376.821 141 CURVE SMOOTH",
"255.821 141 OFFCURVE",
"199.132 223 OFFCURVE",
"224.394 350 CURVE SMOOTH",
"247.866 468 OFFCURVE",
"342.967 559 OFFCURVE",
"450.967 559 CURVE SMOOTH",
"521.417 559 OFFCURVE",
"568.246 530.981 OFFCURVE",
"588.264 470 CURVE"
);
}
);
width = 747.50509;
},
{
anchors = (
{
name = _bottom;
position = "{342.179, -3}";
},
{
name = bottom;
position = "{347.776, 0}";
}
);
hints = (
{
place = "{12.156, 22.156}";
type = Stem;
},
{
horizontal = 1;
place = "{-68.844, -20}";
target = down;
type = TopGhost;
},
{
horizontal = 1;
place = "{-282.844, 21}";
target = up;
type = BottomGhost;
},
{
place = "{355.156, 27.156}";
type = Stem;
},
{
horizontal = 1;
place = "{212.156, -20}";
target = down;
type = TopGhost;
},
{
horizontal = 1;
place = "{-49.844, 21}";
target = up;
type = BottomGhost;
}
);
layerId = "9F107B1E-3A61-4335-981B-27DD48125C7E";
paths = (
{
closed = 1;
nodes = (
"291.632 -51 LINE",
"276.713 -126 LINE",
"321.713 -126 LINE",
"318.332 -143 LINE SMOOTH",
"311.171 -179 OFFCURVE",
"293.391 -198 OFFCURVE",
"260.391 -198 CURVE",
"252.833 -236 LINE",
"312.833 -236 OFFCURVE",
"353.999 -205 OFFCURVE",
"369.912 -125 CURVE SMOOTH",
"374.089 -104 OFFCURVE",
"375.261 -78 OFFCURVE",
"374.632 -51 CURVE"
);
},
{
closed = 1;
nodes = (
"760.415 516 LINE",
"731.483 637 OFFCURVE",
"625.407 707 OFFCURVE",
"487.407 707 CURVE SMOOTH",
"291.407 707 OFFCURVE",
"109.167 560 OFFCURVE",
"67.395 350 CURVE SMOOTH",
"25.624 140 OFFCURVE",
"149.384 -7 OFFCURVE",
"345.384 -7 CURVE SMOOTH",
"502.384 -7 OFFCURVE",
"646.678 90 OFFCURVE",
"718.333 224 CURVE",
"748.169 374 LINE",
"427.169 374 LINE",
"414.24 309 LINE",
"654.24 309 LINE",
"638.128 228 LINE",
"580.839 126 OFFCURVE",
"473.705 65 OFFCURVE",
"359.705 65 CURVE SMOOTH",
"207.705 65 OFFCURVE",
"113.785 176 OFFCURVE",
"148.395 350 CURVE SMOOTH",
"183.205 525 OFFCURVE",
"321.284 636 OFFCURVE",
"473.284 636 CURVE SMOOTH",
"576.284 636 OFFCURVE",
"655.693 590.513 OFFCURVE",
"685.243 490 CURVE"
);
}
);
width = 780.50248;
}
);
leftMetricsKey = G;
rightMetricsKey = G;
unicode = 0122;
},
